G04 #@! TF.GenerationSoftware,KiCad,Pcbnew,(5.1.4-0-10_14)*
G04 #@! TF.CreationDate,2019-10-23T14:37:35-04:00*
G04 #@! TF.ProjectId,Nomad,4e6f6d61-642e-46b6-9963-61645f706362,rev?*
G04 #@! TF.SameCoordinates,Original*
G04 #@! TF.FileFunction,Legend,Top*
G04 #@! TF.FilePolarity,Positive*
%FSLAX46Y46*%
G04 Gerber Fmt 4.6, Leading zero omitted, Abs format (unit mm)*
G04 Created by KiCad (PCBNEW (5.1.4-0-10_14)) date 2019-10-23 14:37:35*
%MOMM*%
%LPD*%
G04 APERTURE LIST*
%ADD10C,0.400000*%
%ADD11C,0.127000*%
%ADD12C,0.381000*%
%ADD13C,0.150000*%
%ADD14C,0.050000*%
%ADD15C,0.203200*%
G04 APERTURE END LIST*
D10*
X168160000Y-78160000D02*
G75*
G03X168160000Y-78160000I-200000J0D01*
G01*
D11*
X162460000Y-68360000D02*
X165510000Y-68360000D01*
X158460000Y-68360000D02*
X160560000Y-68360000D01*
X158460000Y-73010000D02*
X158460000Y-68360000D01*
X158460000Y-77360000D02*
X158460000Y-75360000D01*
X165360000Y-77360000D02*
X158460000Y-77360000D01*
X172460000Y-75660000D02*
X169460000Y-75660000D01*
X172460000Y-69660000D02*
X172460000Y-75660000D01*
X169460000Y-69660000D02*
X172460000Y-69660000D01*
X169460000Y-68360000D02*
X167710000Y-68360000D01*
X169460000Y-69660000D02*
X169460000Y-68360000D01*
X169460000Y-70410000D02*
X169460000Y-69660000D01*
X168160000Y-70410000D02*
X169460000Y-70410000D01*
X168160000Y-74910000D02*
X168160000Y-70410000D01*
X169460000Y-74910000D02*
X168160000Y-74910000D01*
X169460000Y-75660000D02*
X169460000Y-74910000D01*
X169460000Y-77360000D02*
X169460000Y-75660000D01*
X167760000Y-77360000D02*
X169460000Y-77360000D01*
D12*
X83200000Y-26480000D02*
X83200000Y-23940000D01*
X85740000Y-26480000D02*
X83200000Y-26480000D01*
X55260000Y-41720000D02*
X85740000Y-41720000D01*
X55260000Y-23940000D02*
X55260000Y-41720000D01*
X85740000Y-23940000D02*
X55260000Y-23940000D01*
X85740000Y-41720000D02*
X85740000Y-23940000D01*
D13*
X46754761Y-97072380D02*
X46754761Y-96072380D01*
X46754761Y-96548571D02*
X47326190Y-96548571D01*
X47326190Y-97072380D02*
X47326190Y-96072380D01*
X48278571Y-97072380D02*
X47802380Y-97072380D01*
X47802380Y-96072380D01*
X48945238Y-96548571D02*
X49088095Y-96596190D01*
X49135714Y-96643809D01*
X49183333Y-96739047D01*
X49183333Y-96881904D01*
X49135714Y-96977142D01*
X49088095Y-97024761D01*
X48992857Y-97072380D01*
X48611904Y-97072380D01*
X48611904Y-96072380D01*
X48945238Y-96072380D01*
X49040476Y-96120000D01*
X49088095Y-96167619D01*
X49135714Y-96262857D01*
X49135714Y-96358095D01*
X49088095Y-96453333D01*
X49040476Y-96500952D01*
X48945238Y-96548571D01*
X48611904Y-96548571D01*
X50088095Y-97072380D02*
X49611904Y-97072380D01*
X49611904Y-96072380D01*
X89094285Y-138512380D02*
X89094285Y-137512380D01*
X89094285Y-137988571D02*
X89665714Y-137988571D01*
X89665714Y-138512380D02*
X89665714Y-137512380D01*
X90475238Y-137988571D02*
X90618095Y-138036190D01*
X90665714Y-138083809D01*
X90713333Y-138179047D01*
X90713333Y-138321904D01*
X90665714Y-138417142D01*
X90618095Y-138464761D01*
X90522857Y-138512380D01*
X90141904Y-138512380D01*
X90141904Y-137512380D01*
X90475238Y-137512380D01*
X90570476Y-137560000D01*
X90618095Y-137607619D01*
X90665714Y-137702857D01*
X90665714Y-137798095D01*
X90618095Y-137893333D01*
X90570476Y-137940952D01*
X90475238Y-137988571D01*
X90141904Y-137988571D01*
X152954285Y-138512380D02*
X152954285Y-137512380D01*
X152954285Y-137988571D02*
X153525714Y-137988571D01*
X153525714Y-138512380D02*
X153525714Y-137512380D01*
X154335238Y-137988571D02*
X154478095Y-138036190D01*
X154525714Y-138083809D01*
X154573333Y-138179047D01*
X154573333Y-138321904D01*
X154525714Y-138417142D01*
X154478095Y-138464761D01*
X154382857Y-138512380D01*
X154001904Y-138512380D01*
X154001904Y-137512380D01*
X154335238Y-137512380D01*
X154430476Y-137560000D01*
X154478095Y-137607619D01*
X154525714Y-137702857D01*
X154525714Y-137798095D01*
X154478095Y-137893333D01*
X154430476Y-137940952D01*
X154335238Y-137988571D01*
X154001904Y-137988571D01*
X155573333Y-138512380D02*
X155240000Y-138036190D01*
X155001904Y-138512380D02*
X155001904Y-137512380D01*
X155382857Y-137512380D01*
X155478095Y-137560000D01*
X155525714Y-137607619D01*
X155573333Y-137702857D01*
X155573333Y-137845714D01*
X155525714Y-137940952D01*
X155478095Y-137988571D01*
X155382857Y-138036190D01*
X155001904Y-138036190D01*
X172984285Y-119522380D02*
X172984285Y-118522380D01*
X172984285Y-118998571D02*
X173555714Y-118998571D01*
X173555714Y-119522380D02*
X173555714Y-118522380D01*
X174603333Y-119522380D02*
X174270000Y-119046190D01*
X174031904Y-119522380D02*
X174031904Y-118522380D01*
X174412857Y-118522380D01*
X174508095Y-118570000D01*
X174555714Y-118617619D01*
X174603333Y-118712857D01*
X174603333Y-118855714D01*
X174555714Y-118950952D01*
X174508095Y-118998571D01*
X174412857Y-119046190D01*
X174031904Y-119046190D01*
X175365238Y-118998571D02*
X175508095Y-119046190D01*
X175555714Y-119093809D01*
X175603333Y-119189047D01*
X175603333Y-119331904D01*
X175555714Y-119427142D01*
X175508095Y-119474761D01*
X175412857Y-119522380D01*
X175031904Y-119522380D01*
X175031904Y-118522380D01*
X175365238Y-118522380D01*
X175460476Y-118570000D01*
X175508095Y-118617619D01*
X175555714Y-118712857D01*
X175555714Y-118808095D01*
X175508095Y-118903333D01*
X175460476Y-118950952D01*
X175365238Y-118998571D01*
X175031904Y-118998571D01*
X176603333Y-119522380D02*
X176270000Y-119046190D01*
X176031904Y-119522380D02*
X176031904Y-118522380D01*
X176412857Y-118522380D01*
X176508095Y-118570000D01*
X176555714Y-118617619D01*
X176603333Y-118712857D01*
X176603333Y-118855714D01*
X176555714Y-118950952D01*
X176508095Y-118998571D01*
X176412857Y-119046190D01*
X176031904Y-119046190D01*
X167283333Y-40102380D02*
X167283333Y-39102380D01*
X167283333Y-39578571D02*
X167854761Y-39578571D01*
X167854761Y-40102380D02*
X167854761Y-39102380D01*
X168188095Y-39102380D02*
X168759523Y-39102380D01*
X168473809Y-40102380D02*
X168473809Y-39102380D01*
X169664285Y-40102380D02*
X169330952Y-39626190D01*
X169092857Y-40102380D02*
X169092857Y-39102380D01*
X169473809Y-39102380D01*
X169569047Y-39150000D01*
X169616666Y-39197619D01*
X169664285Y-39292857D01*
X169664285Y-39435714D01*
X169616666Y-39530952D01*
X169569047Y-39578571D01*
X169473809Y-39626190D01*
X169092857Y-39626190D01*
X89073333Y-21092380D02*
X89073333Y-20092380D01*
X89073333Y-20568571D02*
X89644761Y-20568571D01*
X89644761Y-21092380D02*
X89644761Y-20092380D01*
X89978095Y-20092380D02*
X90549523Y-20092380D01*
X90263809Y-21092380D02*
X90263809Y-20092380D01*
X30968571Y-21082380D02*
X30968571Y-20082380D01*
X30968571Y-20558571D02*
X31540000Y-20558571D01*
X31540000Y-21082380D02*
X31540000Y-20082380D01*
X31873333Y-20082380D02*
X32444761Y-20082380D01*
X32159047Y-21082380D02*
X32159047Y-20082380D01*
X33254285Y-21082380D02*
X32778095Y-21082380D01*
X32778095Y-20082380D01*
X27669523Y-138492380D02*
X27669523Y-137492380D01*
X27669523Y-137968571D02*
X28240952Y-137968571D01*
X28240952Y-138492380D02*
X28240952Y-137492380D01*
X29050476Y-137968571D02*
X29193333Y-138016190D01*
X29240952Y-138063809D01*
X29288571Y-138159047D01*
X29288571Y-138301904D01*
X29240952Y-138397142D01*
X29193333Y-138444761D01*
X29098095Y-138492380D01*
X28717142Y-138492380D01*
X28717142Y-137492380D01*
X29050476Y-137492380D01*
X29145714Y-137540000D01*
X29193333Y-137587619D01*
X29240952Y-137682857D01*
X29240952Y-137778095D01*
X29193333Y-137873333D01*
X29145714Y-137920952D01*
X29050476Y-137968571D01*
X28717142Y-137968571D01*
X30193333Y-138492380D02*
X29717142Y-138492380D01*
X29717142Y-137492380D01*
X31509523Y-81332380D02*
X31509523Y-80332380D01*
X31509523Y-80808571D02*
X32080952Y-80808571D01*
X32080952Y-81332380D02*
X32080952Y-80332380D01*
X33033333Y-81332380D02*
X32557142Y-81332380D01*
X32557142Y-80332380D01*
X162984285Y-77402380D02*
X162984285Y-76402380D01*
X162984285Y-76878571D02*
X163555714Y-76878571D01*
X163555714Y-77402380D02*
X163555714Y-76402380D01*
X164603333Y-77402380D02*
X164270000Y-76926190D01*
X164031904Y-77402380D02*
X164031904Y-76402380D01*
X164412857Y-76402380D01*
X164508095Y-76450000D01*
X164555714Y-76497619D01*
X164603333Y-76592857D01*
X164603333Y-76735714D01*
X164555714Y-76830952D01*
X164508095Y-76878571D01*
X164412857Y-76926190D01*
X164031904Y-76926190D01*
D14*
X167084680Y-79210085D02*
X167084680Y-79553369D01*
X167061795Y-79622026D01*
X167016023Y-79667797D01*
X166947366Y-79690683D01*
X166901595Y-79690683D01*
X167565278Y-79690683D02*
X167290651Y-79690683D01*
X167427964Y-79690683D02*
X167427964Y-79210085D01*
X167382193Y-79278742D01*
X167336422Y-79324513D01*
X167290651Y-79347399D01*
X165279742Y-66534050D02*
X165508716Y-66534050D01*
X165233948Y-66671434D02*
X165394229Y-66190590D01*
X165554510Y-66671434D01*
X165920868Y-66350872D02*
X165920868Y-66671434D01*
X165714792Y-66350872D02*
X165714792Y-66602742D01*
X165737689Y-66648537D01*
X165783484Y-66671434D01*
X165852176Y-66671434D01*
X165897970Y-66648537D01*
X165920868Y-66625640D01*
X166355917Y-66671434D02*
X166355917Y-66190590D01*
X166355917Y-66648537D02*
X166310122Y-66671434D01*
X166218533Y-66671434D01*
X166172738Y-66648537D01*
X166149841Y-66625640D01*
X166126944Y-66579845D01*
X166126944Y-66442461D01*
X166149841Y-66396666D01*
X166172738Y-66373769D01*
X166218533Y-66350872D01*
X166310122Y-66350872D01*
X166355917Y-66373769D01*
X166584890Y-66671434D02*
X166584890Y-66350872D01*
X166584890Y-66190590D02*
X166561993Y-66213488D01*
X166584890Y-66236385D01*
X166607788Y-66213488D01*
X166584890Y-66190590D01*
X166584890Y-66236385D01*
X166882556Y-66671434D02*
X166836761Y-66648537D01*
X166813864Y-66625640D01*
X166790966Y-66579845D01*
X166790966Y-66442461D01*
X166813864Y-66396666D01*
X166836761Y-66373769D01*
X166882556Y-66350872D01*
X166951248Y-66350872D01*
X166997042Y-66373769D01*
X167019940Y-66396666D01*
X167042837Y-66442461D01*
X167042837Y-66579845D01*
X167019940Y-66625640D01*
X166997042Y-66648537D01*
X166951248Y-66671434D01*
X166882556Y-66671434D01*
X167386297Y-66190590D02*
X167386297Y-66534050D01*
X167363400Y-66602742D01*
X167317605Y-66648537D01*
X167248913Y-66671434D01*
X167203118Y-66671434D01*
X167821346Y-66671434D02*
X167821346Y-66419564D01*
X167798449Y-66373769D01*
X167752654Y-66350872D01*
X167661065Y-66350872D01*
X167615270Y-66373769D01*
X167821346Y-66648537D02*
X167775552Y-66671434D01*
X167661065Y-66671434D01*
X167615270Y-66648537D01*
X167592373Y-66602742D01*
X167592373Y-66556948D01*
X167615270Y-66511153D01*
X167661065Y-66488256D01*
X167775552Y-66488256D01*
X167821346Y-66465358D01*
X168256396Y-66648537D02*
X168210601Y-66671434D01*
X168119012Y-66671434D01*
X168073217Y-66648537D01*
X168050320Y-66625640D01*
X168027422Y-66579845D01*
X168027422Y-66442461D01*
X168050320Y-66396666D01*
X168073217Y-66373769D01*
X168119012Y-66350872D01*
X168210601Y-66350872D01*
X168256396Y-66373769D01*
X168462472Y-66671434D02*
X168462472Y-66190590D01*
X168508266Y-66488256D02*
X168645650Y-66671434D01*
X168645650Y-66350872D02*
X168462472Y-66534050D01*
X169057802Y-66350872D02*
X169057802Y-66671434D01*
X168943316Y-66167693D02*
X168828829Y-66511153D01*
X169126494Y-66511153D01*
D15*
X69338857Y-30509523D02*
X69338857Y-31537619D01*
X69411428Y-31658571D01*
X69484000Y-31719047D01*
X69629142Y-31779523D01*
X69919428Y-31779523D01*
X70064571Y-31719047D01*
X70137142Y-31658571D01*
X70209714Y-31537619D01*
X70209714Y-30509523D01*
X71733714Y-31779523D02*
X70862857Y-31779523D01*
X71298285Y-31779523D02*
X71298285Y-30509523D01*
X71153142Y-30690952D01*
X71008000Y-30811904D01*
X70862857Y-30872380D01*
M02*
