G04 #@! TF.GenerationSoftware,KiCad,Pcbnew,(5.1.4-0-10_14)*
G04 #@! TF.CreationDate,2019-10-23T14:37:35-04:00*
G04 #@! TF.ProjectId,Nomad,4e6f6d61-642e-46b6-9963-61645f706362,rev?*
G04 #@! TF.SameCoordinates,Original*
G04 #@! TF.FileFunction,Copper,L1,Top*
G04 #@! TF.FilePolarity,Positive*
%FSLAX46Y46*%
G04 Gerber Fmt 4.6, Leading zero omitted, Abs format (unit mm)*
G04 Created by KiCad (PCBNEW (5.1.4-0-10_14)) date 2019-10-23 14:37:35*
%MOMM*%
%LPD*%
G04 APERTURE LIST*
%ADD10C,2.000000*%
%ADD11C,1.650000*%
%ADD12R,1.650000X1.650000*%
%ADD13C,1.752600*%
%ADD14R,1.752600X1.752600*%
%ADD15O,1.600000X1.600000*%
%ADD16R,1.600000X1.600000*%
%ADD17C,0.250000*%
G04 APERTURE END LIST*
D10*
X59053333Y-114850000D03*
X64053333Y-116950000D03*
X104720000Y-76850000D03*
X109720000Y-78950000D03*
X38220000Y-38850000D03*
X43220000Y-40950000D03*
X152220000Y-57850000D03*
X157220000Y-59950000D03*
X133220000Y-57850000D03*
X138220000Y-59950000D03*
X114220000Y-57850000D03*
X119220000Y-59950000D03*
X95220000Y-57850000D03*
X100220000Y-59950000D03*
X76220000Y-57850000D03*
X81220000Y-59950000D03*
X57220000Y-57850000D03*
X62220000Y-59950000D03*
X38220000Y-57850000D03*
X43220000Y-59950000D03*
X142720000Y-76850000D03*
X147720000Y-78950000D03*
X123720000Y-76850000D03*
X128720000Y-78950000D03*
X85720000Y-76850000D03*
X90720000Y-78950000D03*
X66720000Y-76850000D03*
X71720000Y-78950000D03*
X43220000Y-76850000D03*
X48220000Y-78950000D03*
X149053333Y-95850000D03*
X154053333Y-97950000D03*
X130053333Y-95850000D03*
X135053333Y-97950000D03*
X111053333Y-95850000D03*
X116053333Y-97950000D03*
X92053333Y-95850000D03*
X97053333Y-97950000D03*
X73053333Y-95850000D03*
X78053333Y-97950000D03*
X158553333Y-114850000D03*
X163553333Y-116950000D03*
X139553333Y-114850000D03*
X144553333Y-116950000D03*
X120553333Y-114850000D03*
X125553333Y-116950000D03*
X101553333Y-114850000D03*
X106553333Y-116950000D03*
X82553333Y-114850000D03*
X87553333Y-116950000D03*
X129053333Y-133850000D03*
X134053333Y-135950000D03*
X96553333Y-133850000D03*
X101553333Y-135950000D03*
X73053333Y-133850000D03*
X78053333Y-135950000D03*
X54053333Y-133850000D03*
X59053333Y-135950000D03*
X35053333Y-133850000D03*
X40053333Y-135950000D03*
D11*
X166560000Y-68160000D03*
X158460000Y-74260000D03*
X161560000Y-69060000D03*
D12*
X166560000Y-77460000D03*
D13*
X74310000Y-27750000D03*
X74310000Y-37910000D03*
X84470000Y-40450000D03*
X81930000Y-40450000D03*
X79390000Y-40450000D03*
X76850000Y-40450000D03*
X74310000Y-40450000D03*
X71770000Y-40450000D03*
X69230000Y-40450000D03*
X66690000Y-40450000D03*
X64150000Y-40450000D03*
X61610000Y-40450000D03*
X59070000Y-40450000D03*
X56530000Y-40450000D03*
X56530000Y-37910000D03*
X56530000Y-35370000D03*
X56530000Y-32830000D03*
X56530000Y-30290000D03*
X56530000Y-27750000D03*
X56530000Y-25210000D03*
X59070000Y-25210000D03*
X61610000Y-25210000D03*
X64150000Y-25210000D03*
X66690000Y-25210000D03*
X69230000Y-25210000D03*
X71770000Y-25210000D03*
X74310000Y-25210000D03*
X76850000Y-25210000D03*
X79390000Y-25210000D03*
X81930000Y-25210000D03*
D14*
X84470000Y-25210000D03*
D15*
X167263333Y-102940000D03*
D16*
X159643333Y-102940000D03*
D15*
X157763333Y-83940000D03*
D16*
X150143333Y-83940000D03*
D15*
X160930000Y-45940000D03*
D16*
X153310000Y-45940000D03*
D15*
X137763333Y-121940000D03*
D16*
X130143333Y-121940000D03*
D15*
X148263333Y-102940000D03*
D16*
X140643333Y-102940000D03*
D15*
X138763333Y-83940000D03*
D16*
X131143333Y-83940000D03*
D15*
X151430000Y-64940000D03*
D16*
X143810000Y-64940000D03*
D15*
X141930000Y-45940000D03*
D16*
X134310000Y-45940000D03*
D15*
X129263333Y-102940000D03*
D16*
X121643333Y-102940000D03*
D15*
X119763333Y-83940000D03*
D16*
X112143333Y-83940000D03*
D15*
X132430000Y-64940000D03*
D16*
X124810000Y-64940000D03*
D15*
X122930000Y-45940000D03*
D16*
X115310000Y-45940000D03*
D15*
X105263333Y-121940000D03*
D16*
X97643333Y-121940000D03*
D15*
X110263333Y-102940000D03*
D16*
X102643333Y-102940000D03*
D15*
X100763333Y-83940000D03*
D16*
X93143333Y-83940000D03*
D15*
X113430000Y-64940000D03*
D16*
X105810000Y-64940000D03*
D15*
X103930000Y-45940000D03*
D16*
X96310000Y-45940000D03*
D15*
X81763333Y-121940000D03*
D16*
X74143333Y-121940000D03*
D15*
X91263333Y-102940000D03*
D16*
X83643333Y-102940000D03*
D15*
X81763333Y-83940000D03*
D16*
X74143333Y-83940000D03*
D15*
X94430000Y-64940000D03*
D16*
X86810000Y-64940000D03*
D15*
X84930000Y-45940000D03*
D16*
X77310000Y-45940000D03*
D15*
X62763333Y-121940000D03*
D16*
X55143333Y-121940000D03*
D15*
X67763333Y-102940000D03*
D16*
X60143333Y-102940000D03*
D15*
X75430000Y-64940000D03*
D16*
X67810000Y-64940000D03*
D15*
X65930000Y-45940000D03*
D16*
X58310000Y-45940000D03*
D15*
X43763333Y-121940000D03*
D16*
X36143333Y-121940000D03*
D15*
X51930000Y-64940000D03*
D16*
X44310000Y-64940000D03*
D15*
X46930000Y-45940000D03*
D16*
X39310000Y-45940000D03*
D15*
X46930000Y-26940000D03*
D16*
X39310000Y-26940000D03*
D17*
X39310000Y-46990000D02*
X39310000Y-45940000D01*
X36544999Y-58224999D02*
X36544999Y-49755001D01*
X43260000Y-64940000D02*
X36544999Y-58224999D01*
X36544999Y-49755001D02*
X39310000Y-46990000D01*
X44310000Y-64940000D02*
X43260000Y-64940000D01*
X36544999Y-30755001D02*
X39310000Y-27990000D01*
X39310000Y-44890000D02*
X36544999Y-42124999D01*
X39310000Y-27990000D02*
X39310000Y-26940000D01*
X36544999Y-42124999D02*
X36544999Y-30755001D01*
X39310000Y-45940000D02*
X39310000Y-44890000D01*
X58193701Y-26086299D02*
X59070000Y-25210000D01*
X57868699Y-26411301D02*
X58193701Y-26086299D01*
X55953375Y-26411301D02*
X57868699Y-26411301D01*
X55357073Y-25814999D02*
X55953375Y-26411301D01*
X39385001Y-25814999D02*
X55357073Y-25814999D01*
X39310000Y-25890000D02*
X39385001Y-25814999D01*
X39310000Y-26940000D02*
X39310000Y-25890000D01*
X44310000Y-65990000D02*
X44310000Y-64940000D01*
X41544999Y-68755001D02*
X44310000Y-65990000D01*
X44683999Y-80275001D02*
X41544999Y-77136001D01*
X65245001Y-80275001D02*
X44683999Y-80275001D01*
X47200000Y-113270000D02*
X59110000Y-101360000D01*
X66280000Y-81310000D02*
X65245001Y-80275001D01*
X64150000Y-101360000D02*
X66280000Y-99230000D01*
X47200000Y-118830000D02*
X47200000Y-113270000D01*
X43560000Y-120250000D02*
X45780000Y-120250000D01*
X66280000Y-99230000D02*
X66280000Y-81310000D01*
X36143333Y-121940000D02*
X41870000Y-121940000D01*
X41544999Y-77136001D02*
X41544999Y-68755001D01*
X45780000Y-120250000D02*
X47200000Y-118830000D01*
X59110000Y-101360000D02*
X64150000Y-101360000D01*
X41870000Y-121940000D02*
X43560000Y-120250000D01*
X58310000Y-46990000D02*
X58310000Y-45940000D01*
X55544999Y-49755001D02*
X58310000Y-46990000D01*
X55544999Y-58136001D02*
X55544999Y-49755001D01*
X62348998Y-64940000D02*
X55544999Y-58136001D01*
X67810000Y-64940000D02*
X62348998Y-64940000D01*
X57868699Y-41026625D02*
X57868699Y-28951301D01*
X58310000Y-41467926D02*
X57868699Y-41026625D01*
X60733701Y-26086299D02*
X61610000Y-25210000D01*
X57868699Y-28951301D02*
X60733701Y-26086299D01*
X58310000Y-45940000D02*
X58310000Y-41467926D01*
X67810000Y-65990000D02*
X67810000Y-64940000D01*
X65044999Y-68755001D02*
X67810000Y-65990000D01*
X65044999Y-73614001D02*
X65044999Y-68755001D01*
X65394999Y-73964001D02*
X65044999Y-73614001D01*
X55143333Y-121940000D02*
X55143333Y-111016667D01*
X65394999Y-78594999D02*
X65394999Y-73964001D01*
X66770000Y-79970000D02*
X65394999Y-78594999D01*
X66770000Y-99390000D02*
X66770000Y-79970000D01*
X60143333Y-106016667D02*
X60143333Y-102940000D01*
X55143333Y-111016667D02*
X60143333Y-106016667D01*
X63220000Y-102940000D02*
X66770000Y-99390000D01*
X60143333Y-102940000D02*
X63220000Y-102940000D01*
X82593333Y-102940000D02*
X83643333Y-102940000D01*
X74143333Y-111390000D02*
X82593333Y-102940000D01*
X74143333Y-121940000D02*
X74143333Y-111390000D01*
X86810000Y-69720998D02*
X86810000Y-65990000D01*
X74143333Y-82387665D02*
X86810000Y-69720998D01*
X86810000Y-65990000D02*
X86810000Y-64940000D01*
X74143333Y-83940000D02*
X74143333Y-82387665D01*
X75193333Y-83940000D02*
X74143333Y-83940000D01*
X76318334Y-82814999D02*
X75193333Y-83940000D01*
X84728334Y-85239999D02*
X82303334Y-82814999D01*
X82303334Y-82814999D02*
X76318334Y-82814999D01*
X84728334Y-100804999D02*
X84728334Y-85239999D01*
X83643333Y-101890000D02*
X84728334Y-100804999D01*
X83643333Y-102940000D02*
X83643333Y-101890000D01*
X74544999Y-49755001D02*
X77310000Y-46990000D01*
X77310000Y-46990000D02*
X77310000Y-45940000D01*
X74544999Y-58136001D02*
X74544999Y-49755001D01*
X81348998Y-64940000D02*
X74544999Y-58136001D01*
X86810000Y-64940000D02*
X81348998Y-64940000D01*
X65026299Y-26086299D02*
X64150000Y-25210000D01*
X80591301Y-39873375D02*
X67129227Y-26411301D01*
X65351301Y-26411301D02*
X65026299Y-26086299D01*
X80591301Y-41026625D02*
X80591301Y-39873375D01*
X67129227Y-26411301D02*
X65351301Y-26411301D01*
X77310000Y-44307926D02*
X80591301Y-41026625D01*
X77310000Y-45940000D02*
X77310000Y-44307926D01*
X97643333Y-106890000D02*
X101593333Y-102940000D01*
X101593333Y-102940000D02*
X102643333Y-102940000D01*
X97643333Y-121940000D02*
X97643333Y-106890000D01*
X93143333Y-84990000D02*
X93143333Y-83940000D01*
X90378332Y-96136001D02*
X90378332Y-87755001D01*
X90378332Y-87755001D02*
X93143333Y-84990000D01*
X97182331Y-102940000D02*
X90378332Y-96136001D01*
X102643333Y-102940000D02*
X97182331Y-102940000D01*
X105810000Y-65990000D02*
X105810000Y-64940000D01*
X93143333Y-82387665D02*
X105810000Y-69720998D01*
X105810000Y-69720998D02*
X105810000Y-65990000D01*
X93143333Y-83940000D02*
X93143333Y-82387665D01*
X93544999Y-49755001D02*
X96310000Y-46990000D01*
X93544999Y-58136001D02*
X93544999Y-49755001D01*
X96310000Y-46990000D02*
X96310000Y-45940000D01*
X100348998Y-64940000D02*
X93544999Y-58136001D01*
X105810000Y-64940000D02*
X100348998Y-64940000D01*
X76399989Y-27299989D02*
X75186299Y-26086299D01*
X96310000Y-45940000D02*
X91933589Y-45940000D01*
X91933589Y-45940000D02*
X76399989Y-30406400D01*
X76399989Y-30406400D02*
X76399989Y-27299989D01*
X75186299Y-26086299D02*
X74310000Y-25210000D01*
X112143333Y-84990000D02*
X112143333Y-83940000D01*
X109378332Y-87755001D02*
X112143333Y-84990000D01*
X109378332Y-96136001D02*
X109378332Y-87755001D01*
X116182331Y-102940000D02*
X109378332Y-96136001D01*
X121643333Y-102940000D02*
X116182331Y-102940000D01*
X116395001Y-74404999D02*
X124810000Y-65990000D01*
X116395001Y-78638332D02*
X116395001Y-74404999D01*
X124810000Y-65990000D02*
X124810000Y-64940000D01*
X112143333Y-82890000D02*
X116395001Y-78638332D01*
X112143333Y-83940000D02*
X112143333Y-82890000D01*
X112544999Y-49755001D02*
X115310000Y-46990000D01*
X112544999Y-58136001D02*
X112544999Y-49755001D01*
X115310000Y-46990000D02*
X115310000Y-45940000D01*
X119348998Y-64940000D02*
X112544999Y-58136001D01*
X124810000Y-64940000D02*
X119348998Y-64940000D01*
X91260000Y-44630000D02*
X76850000Y-30220000D01*
X112950000Y-44630000D02*
X91260000Y-44630000D01*
X114260000Y-45940000D02*
X112950000Y-44630000D01*
X76850000Y-30220000D02*
X76850000Y-25210000D01*
X115310000Y-45940000D02*
X114260000Y-45940000D01*
X140643333Y-103990000D02*
X140643333Y-102940000D01*
X132228334Y-112404999D02*
X140643333Y-103990000D01*
X132228334Y-118804999D02*
X132228334Y-112404999D01*
X130143333Y-120890000D02*
X132228334Y-118804999D01*
X130143333Y-121940000D02*
X130143333Y-120890000D01*
X131143333Y-84990000D02*
X131143333Y-83940000D01*
X128378332Y-87755001D02*
X131143333Y-84990000D01*
X128378332Y-96136001D02*
X128378332Y-87755001D01*
X135182331Y-102940000D02*
X128378332Y-96136001D01*
X140643333Y-102940000D02*
X135182331Y-102940000D01*
X135395001Y-74404999D02*
X143810000Y-65990000D01*
X135395001Y-78638332D02*
X135395001Y-74404999D01*
X131143333Y-82890000D02*
X135395001Y-78638332D01*
X143810000Y-65990000D02*
X143810000Y-64940000D01*
X131143333Y-83940000D02*
X131143333Y-82890000D01*
X131544999Y-49755001D02*
X134310000Y-46990000D01*
X134310000Y-46990000D02*
X134310000Y-45940000D01*
X131544999Y-58136001D02*
X131544999Y-49755001D01*
X138348998Y-64940000D02*
X131544999Y-58136001D01*
X143810000Y-64940000D02*
X138348998Y-64940000D01*
X133260000Y-45940000D02*
X131480002Y-44160002D01*
X134310000Y-45940000D02*
X133260000Y-45940000D01*
X131480002Y-44160002D02*
X91457180Y-44160002D01*
X91457180Y-44160002D02*
X84939978Y-37642800D01*
X84939978Y-37642800D02*
X84939978Y-30759978D01*
X84939978Y-30759978D02*
X80266299Y-26086299D01*
X80266299Y-26086299D02*
X79390000Y-25210000D01*
X150143333Y-84990000D02*
X150143333Y-83940000D01*
X147378332Y-87755001D02*
X150143333Y-84990000D01*
X154182331Y-102940000D02*
X147378332Y-96136001D01*
X147378332Y-96136001D02*
X147378332Y-87755001D01*
X159643333Y-102940000D02*
X154182331Y-102940000D01*
X153310000Y-46990000D02*
X153310000Y-45940000D01*
X150544999Y-49755001D02*
X153310000Y-46990000D01*
X150544999Y-58136001D02*
X150544999Y-49755001D01*
X152555001Y-60146003D02*
X150544999Y-58136001D01*
X152555001Y-65854407D02*
X152555001Y-60146003D01*
X150143333Y-68266075D02*
X152555001Y-65854407D01*
X150143333Y-83940000D02*
X150143333Y-68266075D01*
X152260000Y-45940000D02*
X150029991Y-43709991D01*
X85389989Y-37456400D02*
X85389989Y-28669989D01*
X150029991Y-43709991D02*
X91643580Y-43709991D01*
X91643580Y-43709991D02*
X85389989Y-37456400D01*
X82806299Y-26086299D02*
X81930000Y-25210000D01*
X153310000Y-45940000D02*
X152260000Y-45940000D01*
X85389989Y-28669989D02*
X82806299Y-26086299D01*
X159284999Y-73435001D02*
X158460000Y-74260000D01*
X159284999Y-55745999D02*
X159284999Y-73435001D01*
X91829980Y-43259980D02*
X159914982Y-43259980D01*
X159914982Y-43259980D02*
X162055001Y-45399999D01*
X85840000Y-37270000D02*
X91829980Y-43259980D01*
X68653375Y-24008699D02*
X85606301Y-24008699D01*
X67452074Y-25210000D02*
X68653375Y-24008699D01*
X85840000Y-24242398D02*
X85840000Y-37270000D01*
X85606301Y-24008699D02*
X85840000Y-24242398D01*
X162055001Y-45399999D02*
X162055001Y-52975997D01*
X162055001Y-52975997D02*
X159284999Y-55745999D01*
X66690000Y-25210000D02*
X67452074Y-25210000D01*
X87895001Y-46415001D02*
X82806299Y-41326299D01*
X82806299Y-41326299D02*
X81930000Y-40450000D01*
X87895001Y-54689212D02*
X87895001Y-46415001D01*
X82634213Y-59950000D02*
X87895001Y-54689212D01*
X81220000Y-59950000D02*
X82634213Y-59950000D01*
X72380000Y-59350000D02*
X72380000Y-42380000D01*
X77005011Y-63975011D02*
X72380000Y-59350000D01*
X76044999Y-72358413D02*
X77005011Y-71398401D01*
X72380000Y-42380000D02*
X74310000Y-40450000D01*
X76044999Y-74625001D02*
X76044999Y-72358413D01*
X77005011Y-71398401D02*
X77005011Y-63975011D01*
X71720000Y-78950000D02*
X76044999Y-74625001D01*
X78395001Y-64565001D02*
X72950000Y-59120000D01*
X72950000Y-44350000D02*
X76850000Y-40450000D01*
X78395001Y-74236001D02*
X78395001Y-64565001D01*
X59053333Y-135950000D02*
X60053332Y-134950001D01*
X70928323Y-125414012D02*
X70928323Y-81702679D01*
X72950000Y-59120000D02*
X72950000Y-44350000D01*
X61392334Y-134950001D02*
X70928323Y-125414012D01*
X60053332Y-134950001D02*
X61392334Y-134950001D01*
X70928323Y-81702679D02*
X78395001Y-74236001D01*
X68888334Y-103480001D02*
X68888334Y-78878668D01*
X64053333Y-116950000D02*
X68330000Y-112673333D01*
X76555000Y-64161410D02*
X71770000Y-59376410D01*
X68330000Y-104038335D02*
X68888334Y-103480001D01*
X68888334Y-78878668D02*
X76555000Y-71212002D01*
X71770000Y-59376410D02*
X71770000Y-41689275D01*
X76555000Y-71212002D02*
X76555000Y-64161410D01*
X68330000Y-112673333D02*
X68330000Y-104038335D01*
X71770000Y-41689275D02*
X71770000Y-40450000D01*
X73630000Y-58930000D02*
X73630000Y-46210000D01*
X78845011Y-64145011D02*
X73630000Y-58930000D01*
X78845011Y-74422401D02*
X78845011Y-64145011D01*
X71378332Y-96136001D02*
X71378332Y-81889080D01*
X73192331Y-97950000D02*
X71378332Y-96136001D01*
X73630000Y-46210000D02*
X79390000Y-40450000D01*
X71378332Y-81889080D02*
X78845011Y-74422401D01*
X78053333Y-97950000D02*
X73192331Y-97950000D01*
X43763333Y-123071370D02*
X43763333Y-121940000D01*
X43763333Y-123342998D02*
X43763333Y-123071370D01*
X35053333Y-132052998D02*
X43763333Y-123342998D01*
X35053333Y-133850000D02*
X35053333Y-132052998D01*
X62763333Y-123071370D02*
X62763333Y-121940000D01*
X62763333Y-123342998D02*
X62763333Y-123071370D01*
X54053333Y-132052998D02*
X62763333Y-123342998D01*
X54053333Y-133850000D02*
X54053333Y-132052998D01*
X74053332Y-129650001D02*
X80963334Y-122739999D01*
X80963334Y-122739999D02*
X81763333Y-121940000D01*
X74053332Y-132850001D02*
X74053332Y-129650001D01*
X73053333Y-133850000D02*
X74053332Y-132850001D01*
X97553332Y-129650001D02*
X104463334Y-122739999D01*
X97553332Y-132850001D02*
X97553332Y-129650001D01*
X104463334Y-122739999D02*
X105263333Y-121940000D01*
X96553333Y-133850000D02*
X97553332Y-132850001D01*
X136963334Y-122739999D02*
X137763333Y-121940000D01*
X130053332Y-129650001D02*
X136963334Y-122739999D01*
X130053332Y-132850001D02*
X130053332Y-129650001D01*
X129053333Y-133850000D02*
X130053332Y-132850001D01*
X66963334Y-103739999D02*
X67763333Y-102940000D01*
X60053332Y-110650001D02*
X66963334Y-103739999D01*
X60053332Y-113850001D02*
X60053332Y-110650001D01*
X59053333Y-114850000D02*
X60053332Y-113850001D01*
X91263333Y-104071370D02*
X91263333Y-102940000D01*
X91263333Y-104342998D02*
X91263333Y-104071370D01*
X82553333Y-113052998D02*
X91263333Y-104342998D01*
X82553333Y-114850000D02*
X82553333Y-113052998D01*
X109463334Y-103739999D02*
X110263333Y-102940000D01*
X102553332Y-110650001D02*
X109463334Y-103739999D01*
X102553332Y-113850001D02*
X102553332Y-110650001D01*
X101553333Y-114850000D02*
X102553332Y-113850001D01*
X121553332Y-110650001D02*
X128463334Y-103739999D01*
X128463334Y-103739999D02*
X129263333Y-102940000D01*
X121553332Y-113850001D02*
X121553332Y-110650001D01*
X120553333Y-114850000D02*
X121553332Y-113850001D01*
X147463334Y-103739999D02*
X148263333Y-102940000D01*
X140553332Y-113850001D02*
X140553332Y-110650001D01*
X140553332Y-110650001D02*
X147463334Y-103739999D01*
X139553333Y-114850000D02*
X140553332Y-113850001D01*
X159553332Y-110650001D02*
X166463334Y-103739999D01*
X159553332Y-113850001D02*
X159553332Y-110650001D01*
X166463334Y-103739999D02*
X167263333Y-102940000D01*
X158553333Y-114850000D02*
X159553332Y-113850001D01*
X81763333Y-85342998D02*
X81763333Y-85071370D01*
X81763333Y-85071370D02*
X81763333Y-83940000D01*
X73053333Y-94052998D02*
X81763333Y-85342998D01*
X73053333Y-95850000D02*
X73053333Y-94052998D01*
X100763333Y-85071370D02*
X100763333Y-83940000D01*
X100763333Y-85342998D02*
X100763333Y-85071370D01*
X92053333Y-94052998D02*
X100763333Y-85342998D01*
X92053333Y-95850000D02*
X92053333Y-94052998D01*
X119763333Y-85071370D02*
X119763333Y-83940000D01*
X119763333Y-85342998D02*
X119763333Y-85071370D01*
X111053333Y-94052998D02*
X119763333Y-85342998D01*
X111053333Y-95850000D02*
X111053333Y-94052998D01*
X138763333Y-85071370D02*
X138763333Y-83940000D01*
X138763333Y-85342998D02*
X138763333Y-85071370D01*
X130053333Y-94052998D02*
X138763333Y-85342998D01*
X130053333Y-95850000D02*
X130053333Y-94052998D01*
X157763333Y-85071370D02*
X157763333Y-83940000D01*
X157763333Y-85342998D02*
X157763333Y-85071370D01*
X149053333Y-94052998D02*
X157763333Y-85342998D01*
X149053333Y-95850000D02*
X149053333Y-94052998D01*
X51130001Y-65739999D02*
X51930000Y-64940000D01*
X44219999Y-75850001D02*
X44219999Y-72650001D01*
X44219999Y-72650001D02*
X51130001Y-65739999D01*
X43220000Y-76850000D02*
X44219999Y-75850001D01*
X75430000Y-66342998D02*
X75430000Y-66071370D01*
X66720000Y-75052998D02*
X75430000Y-66342998D01*
X75430000Y-66071370D02*
X75430000Y-64940000D01*
X66720000Y-76850000D02*
X66720000Y-75052998D01*
X94430000Y-66071370D02*
X94430000Y-64940000D01*
X94430000Y-66342998D02*
X94430000Y-66071370D01*
X85720000Y-75052998D02*
X94430000Y-66342998D01*
X85720000Y-76850000D02*
X85720000Y-75052998D01*
X105719999Y-72650001D02*
X112630001Y-65739999D01*
X105719999Y-75850001D02*
X105719999Y-72650001D01*
X112630001Y-65739999D02*
X113430000Y-64940000D01*
X104720000Y-76850000D02*
X105719999Y-75850001D01*
X132430000Y-66342998D02*
X132430000Y-66071370D01*
X123720000Y-75052998D02*
X132430000Y-66342998D01*
X132430000Y-66071370D02*
X132430000Y-64940000D01*
X123720000Y-76850000D02*
X123720000Y-75052998D01*
X151430000Y-66071370D02*
X151430000Y-64940000D01*
X151430000Y-66342998D02*
X151430000Y-66071370D01*
X142720000Y-75052998D02*
X151430000Y-66342998D01*
X142720000Y-76850000D02*
X142720000Y-75052998D01*
X46130001Y-46739999D02*
X46930000Y-45940000D01*
X39219999Y-53650001D02*
X46130001Y-46739999D01*
X39219999Y-56850001D02*
X39219999Y-53650001D01*
X38220000Y-57850000D02*
X39219999Y-56850001D01*
X65930000Y-47071370D02*
X65930000Y-45940000D01*
X65930000Y-47342998D02*
X65930000Y-47071370D01*
X57220000Y-56052998D02*
X65930000Y-47342998D01*
X57220000Y-57850000D02*
X57220000Y-56052998D01*
X84930000Y-47071370D02*
X84930000Y-45940000D01*
X84930000Y-47342998D02*
X84930000Y-47071370D01*
X76220000Y-56052998D02*
X84930000Y-47342998D01*
X76220000Y-57850000D02*
X76220000Y-56052998D01*
X103130001Y-46739999D02*
X103930000Y-45940000D01*
X98194999Y-51675001D02*
X103130001Y-46739999D01*
X98194999Y-54875001D02*
X98194999Y-51675001D01*
X95220000Y-57850000D02*
X98194999Y-54875001D01*
X115219999Y-53650001D02*
X122130001Y-46739999D01*
X115219999Y-56850001D02*
X115219999Y-53650001D01*
X122130001Y-46739999D02*
X122930000Y-45940000D01*
X114220000Y-57850000D02*
X115219999Y-56850001D01*
X134219999Y-53650001D02*
X141130001Y-46739999D01*
X134219999Y-56850001D02*
X134219999Y-53650001D01*
X141130001Y-46739999D02*
X141930000Y-45940000D01*
X133220000Y-57850000D02*
X134219999Y-56850001D01*
X160930000Y-47071370D02*
X160930000Y-45940000D01*
X160930000Y-47342998D02*
X160930000Y-47071370D01*
X152220000Y-56052998D02*
X160930000Y-47342998D01*
X152220000Y-57850000D02*
X152220000Y-56052998D01*
X46130001Y-27739999D02*
X46930000Y-26940000D01*
X39219999Y-34650001D02*
X46130001Y-27739999D01*
X39219999Y-37850001D02*
X39219999Y-34650001D01*
X38220000Y-38850000D02*
X39219999Y-37850001D01*
M02*
