M48
; DRILL file {KiCad (5.1.4-0-10_14)} date Wednesday, October 23, 2019 at 02:38:32 pm
; FORMAT={-:-/ absolute / inch / decimal}
; #@! TF.CreationDate,2019-10-23T14:38:32-04:00
; #@! TF.GenerationSoftware,Kicad,Pcbnew,(5.1.4-0-10_14)
FMAT,2
INCH
T1C0.0315
T2C0.0430
T3C0.0433
T4C0.0472
T5C0.0433
T6C0.0669
T7C0.0866
T8C0.1339
%
G90
G05
T1
X5.5371Y-4.0528
X5.8371Y-4.0528
X5.9112Y-3.3047
X6.2112Y-3.3047
X3.4177Y-2.5567
X3.7177Y-2.5567
X4.4151Y-3.3047
X4.7151Y-3.3047
X2.3678Y-4.0528
X2.6678Y-4.0528
X6.0358Y-1.8087
X6.3358Y-1.8087
X3.293Y-4.0528
X3.593Y-4.0528
X2.6697Y-2.5567
X2.9697Y-2.5567
X5.1238Y-4.8008
X5.4238Y-4.8008
X1.5476Y-1.0606
X4.0411Y-4.0528
X4.3411Y-4.0528
X1.8476Y-1.0606
X1.423Y-4.8008
X6.2852Y-4.0528
X2.171Y-4.8008
X1.5476Y-1.8087
X1.8476Y-1.8087
X1.723Y-4.8008
X2.471Y-4.8008
X6.5852Y-4.0528
X1.7445Y-2.5567
X2.0445Y-2.5567
X4.1657Y-2.5567
X4.4657Y-2.5567
X5.1631Y-3.3047
X5.4631Y-3.3047
X3.9671Y-3.3047
X3.8442Y-4.8008
X4.1442Y-4.8008
X5.6618Y-2.5567
X5.9618Y-2.5567
X4.5398Y-1.8087
X4.8398Y-1.8087
X5.2878Y-1.8087
X5.5878Y-1.8087
X3.6671Y-3.3047
X4.7891Y-4.0528
X5.0891Y-4.0528
X3.7917Y-1.8087
X4.0917Y-1.8087
X2.919Y-3.3047
X3.219Y-3.3047
X3.0437Y-1.8087
X3.3437Y-1.8087
X2.2957Y-1.8087
X2.5957Y-1.8087
X4.9138Y-2.5567
X5.2138Y-2.5567
X2.919Y-4.8008
X3.219Y-4.8008
T2
X2.2256Y-0.9925
X2.2256Y-1.0925
X2.2256Y-1.1925
X2.2256Y-1.2925
X2.2256Y-1.3925
X2.2256Y-1.4925
X2.2256Y-1.5925
X2.3256Y-0.9925
X2.3256Y-1.5925
X2.4256Y-0.9925
X2.4256Y-1.5925
X2.5256Y-0.9925
X2.5256Y-1.5925
X2.6256Y-0.9925
X2.6256Y-1.5925
X2.7256Y-0.9925
X2.7256Y-1.5925
X2.8256Y-0.9925
X2.8256Y-1.5925
X2.9256Y-0.9925
X2.9256Y-1.0925
X2.9256Y-1.4925
X2.9256Y-1.5925
X3.0256Y-0.9925
X3.0256Y-1.5925
X3.1256Y-0.9925
X3.1256Y-1.5925
X3.2256Y-0.9925
X3.2256Y-1.5925
X3.3256Y-0.9925
X3.3256Y-1.5925
T3
X6.2386Y-2.9236
X6.3606Y-2.7189
X6.5575Y-2.6835
X6.5575Y-3.0496
T4
X1.5047Y-2.2776
X1.7016Y-2.3602
X5.9929Y-2.2776
X6.1898Y-2.3602
X3.2501Y-4.5217
X3.447Y-4.6043
X4.1228Y-3.0256
X4.3197Y-3.1083
X2.4496Y-2.3602
X5.8682Y-3.7736
X6.0651Y-3.8563
X1.5047Y-1.5295
X3.8013Y-5.2697
X3.9982Y-5.3524
X1.7016Y-1.6122
X2.8761Y-3.7736
X3.073Y-3.8563
X6.2423Y-4.5217
X6.4391Y-4.6043
X3.7488Y-2.2776
X3.9457Y-2.3602
X3.0008Y-2.2776
X5.4942Y-4.5217
X5.6911Y-4.6043
X3.1976Y-2.3602
X4.4969Y-2.2776
X4.6937Y-2.3602
X1.7016Y-3.0256
X1.8984Y-3.1083
X4.7462Y-4.5217
X4.943Y-4.6043
X5.1202Y-3.7736
X5.3171Y-3.8563
X2.2528Y-2.2776
X3.6241Y-3.7736
X3.821Y-3.8563
X3.9982Y-4.5217
X4.195Y-4.6043
X3.3748Y-3.0256
X3.5717Y-3.1083
X4.3722Y-3.7736
X2.6268Y-3.0256
X2.3249Y-4.5217
X2.5218Y-4.6043
X5.0808Y-5.2697
X5.2777Y-5.3524
X4.569Y-3.8563
X1.3801Y-5.2697
X1.5769Y-5.3524
X2.1281Y-5.2697
X2.3249Y-5.3524
X5.2449Y-2.2776
X2.8236Y-3.1083
X5.4417Y-2.3602
X4.8709Y-3.0256
X5.0677Y-3.1083
X2.8761Y-5.2697
X3.073Y-5.3524
X5.6189Y-3.0256
X5.8157Y-3.1083
T5
X6.3606Y-2.8606
X6.5575Y-2.8606
T6
X2.2331Y-2.128
X2.6661Y-2.128
X3.2304Y-4.372
X2.9811Y-2.128
X3.4142Y-2.128
X2.8564Y-3.624
X3.2895Y-3.624
X6.2226Y-4.372
X5.8486Y-3.624
X6.2816Y-3.624
X1.6819Y-2.876
X4.2147Y-5.1201
X2.115Y-2.876
X6.6556Y-4.372
X3.7816Y-5.1201
X3.3551Y-2.876
X3.7882Y-2.876
X1.3604Y-5.1201
X4.4772Y-2.128
X4.9102Y-2.128
X4.7265Y-4.372
X5.1596Y-4.372
X3.6045Y-3.624
X4.0375Y-3.624
X3.9785Y-4.372
X4.4115Y-4.372
X1.7934Y-5.1201
X5.1005Y-3.624
X5.5336Y-3.624
X2.3052Y-4.372
X2.7383Y-4.372
X4.7856Y-3.624
X5.4942Y-5.1201
X4.3525Y-3.624
X5.0612Y-5.1201
X2.1084Y-5.1201
X2.5415Y-5.1201
X1.485Y-2.128
X5.9732Y-2.128
X6.4063Y-2.128
X5.6583Y-2.128
X2.6071Y-2.876
X3.0402Y-2.876
X5.2252Y-2.128
X2.8564Y-5.1201
X3.2895Y-5.1201
X1.9181Y-2.128
X4.8512Y-2.876
X5.2843Y-2.876
X3.6635Y-4.372
X5.5992Y-2.876
X6.0323Y-2.876
X4.5362Y-2.876
X5.4745Y-4.372
X5.9076Y-4.372
X4.1031Y-2.876
X3.7291Y-2.128
X4.1622Y-2.128
X1.485Y-1.3799
X1.9181Y-1.3799
T7
X6.0724Y-5.5614
X3.5386Y-5.5614
X6.8807Y-4.8138
X1.9035Y-3.9299
X1.2614Y-0.9382
X3.5331Y-0.9386
X6.4476Y-3.1555
X6.6319Y-1.687
X1.1362Y-5.5606
X1.2677Y-3.3102
T8
X2.5218Y-4.372
X4.3197Y-2.876
X3.073Y-5.1201
X5.0677Y-2.876
X5.4417Y-2.128
X5.2777Y-5.1201
X4.569Y-3.624
X2.3249Y-5.1201
X1.7016Y-2.128
X2.8236Y-2.876
X6.1898Y-2.128
X5.8157Y-2.876
X5.6911Y-4.372
X3.9457Y-2.128
X3.9982Y-5.1201
X1.7016Y-1.3799
X3.1976Y-2.128
X2.4496Y-2.128
X3.447Y-4.372
X3.073Y-3.624
X6.4391Y-4.372
X6.0651Y-3.624
X4.6937Y-2.128
X1.8984Y-2.876
X4.195Y-4.372
X1.5769Y-5.1201
X4.943Y-4.372
X3.5717Y-2.876
X5.3171Y-3.624
X3.821Y-3.624
T0
M30
