G04 #@! TF.GenerationSoftware,KiCad,Pcbnew,(5.1.4-0-10_14)*
G04 #@! TF.CreationDate,2019-10-23T14:37:35-04:00*
G04 #@! TF.ProjectId,Nomad,4e6f6d61-642e-46b6-9963-61645f706362,rev?*
G04 #@! TF.SameCoordinates,Original*
G04 #@! TF.FileFunction,Legend,Bot*
G04 #@! TF.FilePolarity,Positive*
%FSLAX46Y46*%
G04 Gerber Fmt 4.6, Leading zero omitted, Abs format (unit mm)*
G04 Created by KiCad (PCBNEW (5.1.4-0-10_14)) date 2019-10-23 14:37:35*
%MOMM*%
%LPD*%
G04 APERTURE LIST*
%ADD10C,0.120000*%
%ADD11C,0.150000*%
G04 APERTURE END LIST*
D10*
X162043748Y-74930000D02*
X162566252Y-74930000D01*
X162043748Y-76350000D02*
X162566252Y-76350000D01*
X157533748Y-67250000D02*
X158056252Y-67250000D01*
X157533748Y-65830000D02*
X158056252Y-65830000D01*
X161933333Y-104060000D02*
X161933333Y-101820000D01*
X162173333Y-104060000D02*
X162173333Y-101820000D01*
X162053333Y-104060000D02*
X162053333Y-101820000D01*
X166223333Y-102940000D02*
X165573333Y-102940000D01*
X160683333Y-102940000D02*
X161333333Y-102940000D01*
X165573333Y-104060000D02*
X161333333Y-104060000D01*
X165573333Y-101820000D02*
X165573333Y-104060000D01*
X161333333Y-101820000D02*
X165573333Y-101820000D01*
X161333333Y-104060000D02*
X161333333Y-101820000D01*
X152433333Y-85060000D02*
X152433333Y-82820000D01*
X152673333Y-85060000D02*
X152673333Y-82820000D01*
X152553333Y-85060000D02*
X152553333Y-82820000D01*
X156723333Y-83940000D02*
X156073333Y-83940000D01*
X151183333Y-83940000D02*
X151833333Y-83940000D01*
X156073333Y-85060000D02*
X151833333Y-85060000D01*
X156073333Y-82820000D02*
X156073333Y-85060000D01*
X151833333Y-82820000D02*
X156073333Y-82820000D01*
X151833333Y-85060000D02*
X151833333Y-82820000D01*
X155600000Y-47060000D02*
X155600000Y-44820000D01*
X155840000Y-47060000D02*
X155840000Y-44820000D01*
X155720000Y-47060000D02*
X155720000Y-44820000D01*
X159890000Y-45940000D02*
X159240000Y-45940000D01*
X154350000Y-45940000D02*
X155000000Y-45940000D01*
X159240000Y-47060000D02*
X155000000Y-47060000D01*
X159240000Y-44820000D02*
X159240000Y-47060000D01*
X155000000Y-44820000D02*
X159240000Y-44820000D01*
X155000000Y-47060000D02*
X155000000Y-44820000D01*
X132433333Y-123060000D02*
X132433333Y-120820000D01*
X132673333Y-123060000D02*
X132673333Y-120820000D01*
X132553333Y-123060000D02*
X132553333Y-120820000D01*
X136723333Y-121940000D02*
X136073333Y-121940000D01*
X131183333Y-121940000D02*
X131833333Y-121940000D01*
X136073333Y-123060000D02*
X131833333Y-123060000D01*
X136073333Y-120820000D02*
X136073333Y-123060000D01*
X131833333Y-120820000D02*
X136073333Y-120820000D01*
X131833333Y-123060000D02*
X131833333Y-120820000D01*
X142933333Y-104060000D02*
X142933333Y-101820000D01*
X143173333Y-104060000D02*
X143173333Y-101820000D01*
X143053333Y-104060000D02*
X143053333Y-101820000D01*
X147223333Y-102940000D02*
X146573333Y-102940000D01*
X141683333Y-102940000D02*
X142333333Y-102940000D01*
X146573333Y-104060000D02*
X142333333Y-104060000D01*
X146573333Y-101820000D02*
X146573333Y-104060000D01*
X142333333Y-101820000D02*
X146573333Y-101820000D01*
X142333333Y-104060000D02*
X142333333Y-101820000D01*
X133433333Y-85060000D02*
X133433333Y-82820000D01*
X133673333Y-85060000D02*
X133673333Y-82820000D01*
X133553333Y-85060000D02*
X133553333Y-82820000D01*
X137723333Y-83940000D02*
X137073333Y-83940000D01*
X132183333Y-83940000D02*
X132833333Y-83940000D01*
X137073333Y-85060000D02*
X132833333Y-85060000D01*
X137073333Y-82820000D02*
X137073333Y-85060000D01*
X132833333Y-82820000D02*
X137073333Y-82820000D01*
X132833333Y-85060000D02*
X132833333Y-82820000D01*
X146100000Y-66060000D02*
X146100000Y-63820000D01*
X146340000Y-66060000D02*
X146340000Y-63820000D01*
X146220000Y-66060000D02*
X146220000Y-63820000D01*
X150390000Y-64940000D02*
X149740000Y-64940000D01*
X144850000Y-64940000D02*
X145500000Y-64940000D01*
X149740000Y-66060000D02*
X145500000Y-66060000D01*
X149740000Y-63820000D02*
X149740000Y-66060000D01*
X145500000Y-63820000D02*
X149740000Y-63820000D01*
X145500000Y-66060000D02*
X145500000Y-63820000D01*
X136600000Y-47060000D02*
X136600000Y-44820000D01*
X136840000Y-47060000D02*
X136840000Y-44820000D01*
X136720000Y-47060000D02*
X136720000Y-44820000D01*
X140890000Y-45940000D02*
X140240000Y-45940000D01*
X135350000Y-45940000D02*
X136000000Y-45940000D01*
X140240000Y-47060000D02*
X136000000Y-47060000D01*
X140240000Y-44820000D02*
X140240000Y-47060000D01*
X136000000Y-44820000D02*
X140240000Y-44820000D01*
X136000000Y-47060000D02*
X136000000Y-44820000D01*
X123933333Y-104060000D02*
X123933333Y-101820000D01*
X124173333Y-104060000D02*
X124173333Y-101820000D01*
X124053333Y-104060000D02*
X124053333Y-101820000D01*
X128223333Y-102940000D02*
X127573333Y-102940000D01*
X122683333Y-102940000D02*
X123333333Y-102940000D01*
X127573333Y-104060000D02*
X123333333Y-104060000D01*
X127573333Y-101820000D02*
X127573333Y-104060000D01*
X123333333Y-101820000D02*
X127573333Y-101820000D01*
X123333333Y-104060000D02*
X123333333Y-101820000D01*
X114433333Y-85060000D02*
X114433333Y-82820000D01*
X114673333Y-85060000D02*
X114673333Y-82820000D01*
X114553333Y-85060000D02*
X114553333Y-82820000D01*
X118723333Y-83940000D02*
X118073333Y-83940000D01*
X113183333Y-83940000D02*
X113833333Y-83940000D01*
X118073333Y-85060000D02*
X113833333Y-85060000D01*
X118073333Y-82820000D02*
X118073333Y-85060000D01*
X113833333Y-82820000D02*
X118073333Y-82820000D01*
X113833333Y-85060000D02*
X113833333Y-82820000D01*
X127100000Y-66060000D02*
X127100000Y-63820000D01*
X127340000Y-66060000D02*
X127340000Y-63820000D01*
X127220000Y-66060000D02*
X127220000Y-63820000D01*
X131390000Y-64940000D02*
X130740000Y-64940000D01*
X125850000Y-64940000D02*
X126500000Y-64940000D01*
X130740000Y-66060000D02*
X126500000Y-66060000D01*
X130740000Y-63820000D02*
X130740000Y-66060000D01*
X126500000Y-63820000D02*
X130740000Y-63820000D01*
X126500000Y-66060000D02*
X126500000Y-63820000D01*
X117600000Y-47060000D02*
X117600000Y-44820000D01*
X117840000Y-47060000D02*
X117840000Y-44820000D01*
X117720000Y-47060000D02*
X117720000Y-44820000D01*
X121890000Y-45940000D02*
X121240000Y-45940000D01*
X116350000Y-45940000D02*
X117000000Y-45940000D01*
X121240000Y-47060000D02*
X117000000Y-47060000D01*
X121240000Y-44820000D02*
X121240000Y-47060000D01*
X117000000Y-44820000D02*
X121240000Y-44820000D01*
X117000000Y-47060000D02*
X117000000Y-44820000D01*
X99933333Y-123060000D02*
X99933333Y-120820000D01*
X100173333Y-123060000D02*
X100173333Y-120820000D01*
X100053333Y-123060000D02*
X100053333Y-120820000D01*
X104223333Y-121940000D02*
X103573333Y-121940000D01*
X98683333Y-121940000D02*
X99333333Y-121940000D01*
X103573333Y-123060000D02*
X99333333Y-123060000D01*
X103573333Y-120820000D02*
X103573333Y-123060000D01*
X99333333Y-120820000D02*
X103573333Y-120820000D01*
X99333333Y-123060000D02*
X99333333Y-120820000D01*
X104933333Y-104060000D02*
X104933333Y-101820000D01*
X105173333Y-104060000D02*
X105173333Y-101820000D01*
X105053333Y-104060000D02*
X105053333Y-101820000D01*
X109223333Y-102940000D02*
X108573333Y-102940000D01*
X103683333Y-102940000D02*
X104333333Y-102940000D01*
X108573333Y-104060000D02*
X104333333Y-104060000D01*
X108573333Y-101820000D02*
X108573333Y-104060000D01*
X104333333Y-101820000D02*
X108573333Y-101820000D01*
X104333333Y-104060000D02*
X104333333Y-101820000D01*
X95433333Y-85060000D02*
X95433333Y-82820000D01*
X95673333Y-85060000D02*
X95673333Y-82820000D01*
X95553333Y-85060000D02*
X95553333Y-82820000D01*
X99723333Y-83940000D02*
X99073333Y-83940000D01*
X94183333Y-83940000D02*
X94833333Y-83940000D01*
X99073333Y-85060000D02*
X94833333Y-85060000D01*
X99073333Y-82820000D02*
X99073333Y-85060000D01*
X94833333Y-82820000D02*
X99073333Y-82820000D01*
X94833333Y-85060000D02*
X94833333Y-82820000D01*
X108100000Y-66060000D02*
X108100000Y-63820000D01*
X108340000Y-66060000D02*
X108340000Y-63820000D01*
X108220000Y-66060000D02*
X108220000Y-63820000D01*
X112390000Y-64940000D02*
X111740000Y-64940000D01*
X106850000Y-64940000D02*
X107500000Y-64940000D01*
X111740000Y-66060000D02*
X107500000Y-66060000D01*
X111740000Y-63820000D02*
X111740000Y-66060000D01*
X107500000Y-63820000D02*
X111740000Y-63820000D01*
X107500000Y-66060000D02*
X107500000Y-63820000D01*
X98600000Y-47060000D02*
X98600000Y-44820000D01*
X98840000Y-47060000D02*
X98840000Y-44820000D01*
X98720000Y-47060000D02*
X98720000Y-44820000D01*
X102890000Y-45940000D02*
X102240000Y-45940000D01*
X97350000Y-45940000D02*
X98000000Y-45940000D01*
X102240000Y-47060000D02*
X98000000Y-47060000D01*
X102240000Y-44820000D02*
X102240000Y-47060000D01*
X98000000Y-44820000D02*
X102240000Y-44820000D01*
X98000000Y-47060000D02*
X98000000Y-44820000D01*
X76433333Y-123060000D02*
X76433333Y-120820000D01*
X76673333Y-123060000D02*
X76673333Y-120820000D01*
X76553333Y-123060000D02*
X76553333Y-120820000D01*
X80723333Y-121940000D02*
X80073333Y-121940000D01*
X75183333Y-121940000D02*
X75833333Y-121940000D01*
X80073333Y-123060000D02*
X75833333Y-123060000D01*
X80073333Y-120820000D02*
X80073333Y-123060000D01*
X75833333Y-120820000D02*
X80073333Y-120820000D01*
X75833333Y-123060000D02*
X75833333Y-120820000D01*
X85933333Y-104060000D02*
X85933333Y-101820000D01*
X86173333Y-104060000D02*
X86173333Y-101820000D01*
X86053333Y-104060000D02*
X86053333Y-101820000D01*
X90223333Y-102940000D02*
X89573333Y-102940000D01*
X84683333Y-102940000D02*
X85333333Y-102940000D01*
X89573333Y-104060000D02*
X85333333Y-104060000D01*
X89573333Y-101820000D02*
X89573333Y-104060000D01*
X85333333Y-101820000D02*
X89573333Y-101820000D01*
X85333333Y-104060000D02*
X85333333Y-101820000D01*
X76433333Y-85060000D02*
X76433333Y-82820000D01*
X76673333Y-85060000D02*
X76673333Y-82820000D01*
X76553333Y-85060000D02*
X76553333Y-82820000D01*
X80723333Y-83940000D02*
X80073333Y-83940000D01*
X75183333Y-83940000D02*
X75833333Y-83940000D01*
X80073333Y-85060000D02*
X75833333Y-85060000D01*
X80073333Y-82820000D02*
X80073333Y-85060000D01*
X75833333Y-82820000D02*
X80073333Y-82820000D01*
X75833333Y-85060000D02*
X75833333Y-82820000D01*
X89100000Y-66060000D02*
X89100000Y-63820000D01*
X89340000Y-66060000D02*
X89340000Y-63820000D01*
X89220000Y-66060000D02*
X89220000Y-63820000D01*
X93390000Y-64940000D02*
X92740000Y-64940000D01*
X87850000Y-64940000D02*
X88500000Y-64940000D01*
X92740000Y-66060000D02*
X88500000Y-66060000D01*
X92740000Y-63820000D02*
X92740000Y-66060000D01*
X88500000Y-63820000D02*
X92740000Y-63820000D01*
X88500000Y-66060000D02*
X88500000Y-63820000D01*
X79600000Y-47060000D02*
X79600000Y-44820000D01*
X79840000Y-47060000D02*
X79840000Y-44820000D01*
X79720000Y-47060000D02*
X79720000Y-44820000D01*
X83890000Y-45940000D02*
X83240000Y-45940000D01*
X78350000Y-45940000D02*
X79000000Y-45940000D01*
X83240000Y-47060000D02*
X79000000Y-47060000D01*
X83240000Y-44820000D02*
X83240000Y-47060000D01*
X79000000Y-44820000D02*
X83240000Y-44820000D01*
X79000000Y-47060000D02*
X79000000Y-44820000D01*
X57433333Y-123060000D02*
X57433333Y-120820000D01*
X57673333Y-123060000D02*
X57673333Y-120820000D01*
X57553333Y-123060000D02*
X57553333Y-120820000D01*
X61723333Y-121940000D02*
X61073333Y-121940000D01*
X56183333Y-121940000D02*
X56833333Y-121940000D01*
X61073333Y-123060000D02*
X56833333Y-123060000D01*
X61073333Y-120820000D02*
X61073333Y-123060000D01*
X56833333Y-120820000D02*
X61073333Y-120820000D01*
X56833333Y-123060000D02*
X56833333Y-120820000D01*
X62433333Y-104060000D02*
X62433333Y-101820000D01*
X62673333Y-104060000D02*
X62673333Y-101820000D01*
X62553333Y-104060000D02*
X62553333Y-101820000D01*
X66723333Y-102940000D02*
X66073333Y-102940000D01*
X61183333Y-102940000D02*
X61833333Y-102940000D01*
X66073333Y-104060000D02*
X61833333Y-104060000D01*
X66073333Y-101820000D02*
X66073333Y-104060000D01*
X61833333Y-101820000D02*
X66073333Y-101820000D01*
X61833333Y-104060000D02*
X61833333Y-101820000D01*
X70100000Y-66060000D02*
X70100000Y-63820000D01*
X70340000Y-66060000D02*
X70340000Y-63820000D01*
X70220000Y-66060000D02*
X70220000Y-63820000D01*
X74390000Y-64940000D02*
X73740000Y-64940000D01*
X68850000Y-64940000D02*
X69500000Y-64940000D01*
X73740000Y-66060000D02*
X69500000Y-66060000D01*
X73740000Y-63820000D02*
X73740000Y-66060000D01*
X69500000Y-63820000D02*
X73740000Y-63820000D01*
X69500000Y-66060000D02*
X69500000Y-63820000D01*
X60600000Y-47060000D02*
X60600000Y-44820000D01*
X60840000Y-47060000D02*
X60840000Y-44820000D01*
X60720000Y-47060000D02*
X60720000Y-44820000D01*
X64890000Y-45940000D02*
X64240000Y-45940000D01*
X59350000Y-45940000D02*
X60000000Y-45940000D01*
X64240000Y-47060000D02*
X60000000Y-47060000D01*
X64240000Y-44820000D02*
X64240000Y-47060000D01*
X60000000Y-44820000D02*
X64240000Y-44820000D01*
X60000000Y-47060000D02*
X60000000Y-44820000D01*
X38433333Y-123060000D02*
X38433333Y-120820000D01*
X38673333Y-123060000D02*
X38673333Y-120820000D01*
X38553333Y-123060000D02*
X38553333Y-120820000D01*
X42723333Y-121940000D02*
X42073333Y-121940000D01*
X37183333Y-121940000D02*
X37833333Y-121940000D01*
X42073333Y-123060000D02*
X37833333Y-123060000D01*
X42073333Y-120820000D02*
X42073333Y-123060000D01*
X37833333Y-120820000D02*
X42073333Y-120820000D01*
X37833333Y-123060000D02*
X37833333Y-120820000D01*
X46600000Y-66060000D02*
X46600000Y-63820000D01*
X46840000Y-66060000D02*
X46840000Y-63820000D01*
X46720000Y-66060000D02*
X46720000Y-63820000D01*
X50890000Y-64940000D02*
X50240000Y-64940000D01*
X45350000Y-64940000D02*
X46000000Y-64940000D01*
X50240000Y-66060000D02*
X46000000Y-66060000D01*
X50240000Y-63820000D02*
X50240000Y-66060000D01*
X46000000Y-63820000D02*
X50240000Y-63820000D01*
X46000000Y-66060000D02*
X46000000Y-63820000D01*
X41600000Y-47060000D02*
X41600000Y-44820000D01*
X41840000Y-47060000D02*
X41840000Y-44820000D01*
X41720000Y-47060000D02*
X41720000Y-44820000D01*
X45890000Y-45940000D02*
X45240000Y-45940000D01*
X40350000Y-45940000D02*
X41000000Y-45940000D01*
X45240000Y-47060000D02*
X41000000Y-47060000D01*
X45240000Y-44820000D02*
X45240000Y-47060000D01*
X41000000Y-44820000D02*
X45240000Y-44820000D01*
X41000000Y-47060000D02*
X41000000Y-44820000D01*
X41600000Y-28060000D02*
X41600000Y-25820000D01*
X41840000Y-28060000D02*
X41840000Y-25820000D01*
X41720000Y-28060000D02*
X41720000Y-25820000D01*
X45890000Y-26940000D02*
X45240000Y-26940000D01*
X40350000Y-26940000D02*
X41000000Y-26940000D01*
X45240000Y-28060000D02*
X41000000Y-28060000D01*
X45240000Y-25820000D02*
X45240000Y-28060000D01*
X41000000Y-25820000D02*
X45240000Y-25820000D01*
X41000000Y-28060000D02*
X41000000Y-25820000D01*
D11*
X162471666Y-77742380D02*
X162805000Y-77266190D01*
X163043095Y-77742380D02*
X163043095Y-76742380D01*
X162662142Y-76742380D01*
X162566904Y-76790000D01*
X162519285Y-76837619D01*
X162471666Y-76932857D01*
X162471666Y-77075714D01*
X162519285Y-77170952D01*
X162566904Y-77218571D01*
X162662142Y-77266190D01*
X163043095Y-77266190D01*
X162090714Y-76837619D02*
X162043095Y-76790000D01*
X161947857Y-76742380D01*
X161709761Y-76742380D01*
X161614523Y-76790000D01*
X161566904Y-76837619D01*
X161519285Y-76932857D01*
X161519285Y-77028095D01*
X161566904Y-77170952D01*
X162138333Y-77742380D01*
X161519285Y-77742380D01*
X157961666Y-68642380D02*
X158295000Y-68166190D01*
X158533095Y-68642380D02*
X158533095Y-67642380D01*
X158152142Y-67642380D01*
X158056904Y-67690000D01*
X158009285Y-67737619D01*
X157961666Y-67832857D01*
X157961666Y-67975714D01*
X158009285Y-68070952D01*
X158056904Y-68118571D01*
X158152142Y-68166190D01*
X158533095Y-68166190D01*
X157009285Y-68642380D02*
X157580714Y-68642380D01*
X157295000Y-68642380D02*
X157295000Y-67642380D01*
X157390238Y-67785238D01*
X157485476Y-67880476D01*
X157580714Y-67928095D01*
X164905713Y-105512380D02*
X164905713Y-104512380D01*
X164667618Y-104512380D01*
X164524761Y-104560000D01*
X164429523Y-104655238D01*
X164381904Y-104750476D01*
X164334285Y-104940952D01*
X164334285Y-105083809D01*
X164381904Y-105274285D01*
X164429523Y-105369523D01*
X164524761Y-105464761D01*
X164667618Y-105512380D01*
X164905713Y-105512380D01*
X163381904Y-105512380D02*
X163953333Y-105512380D01*
X163667618Y-105512380D02*
X163667618Y-104512380D01*
X163762856Y-104655238D01*
X163858094Y-104750476D01*
X163953333Y-104798095D01*
X162953333Y-105417142D02*
X162905713Y-105464761D01*
X162953333Y-105512380D01*
X163000952Y-105464761D01*
X162953333Y-105417142D01*
X162953333Y-105512380D01*
X162953333Y-104893333D02*
X162905713Y-104940952D01*
X162953333Y-104988571D01*
X163000952Y-104940952D01*
X162953333Y-104893333D01*
X162953333Y-104988571D01*
X162048571Y-104512380D02*
X162239047Y-104512380D01*
X162334285Y-104560000D01*
X162381904Y-104607619D01*
X162477142Y-104750476D01*
X162524761Y-104940952D01*
X162524761Y-105321904D01*
X162477142Y-105417142D01*
X162429523Y-105464761D01*
X162334285Y-105512380D01*
X162143809Y-105512380D01*
X162048571Y-105464761D01*
X162000952Y-105417142D01*
X161953333Y-105321904D01*
X161953333Y-105083809D01*
X162000952Y-104988571D01*
X162048571Y-104940952D01*
X162143809Y-104893333D01*
X162334285Y-104893333D01*
X162429523Y-104940952D01*
X162477142Y-104988571D01*
X162524761Y-105083809D01*
X159905237Y-105192380D02*
X159905237Y-104192380D01*
X159333809Y-105192380D02*
X159762380Y-104620952D01*
X159333809Y-104192380D02*
X159905237Y-104763809D01*
X155405713Y-86512380D02*
X155405713Y-85512380D01*
X155167618Y-85512380D01*
X155024761Y-85560000D01*
X154929523Y-85655238D01*
X154881904Y-85750476D01*
X154834285Y-85940952D01*
X154834285Y-86083809D01*
X154881904Y-86274285D01*
X154929523Y-86369523D01*
X155024761Y-86464761D01*
X155167618Y-86512380D01*
X155405713Y-86512380D01*
X154453333Y-85607619D02*
X154405713Y-85560000D01*
X154310475Y-85512380D01*
X154072380Y-85512380D01*
X153977142Y-85560000D01*
X153929523Y-85607619D01*
X153881904Y-85702857D01*
X153881904Y-85798095D01*
X153929523Y-85940952D01*
X154500952Y-86512380D01*
X153881904Y-86512380D01*
X153453333Y-86417142D02*
X153405713Y-86464761D01*
X153453333Y-86512380D01*
X153500952Y-86464761D01*
X153453333Y-86417142D01*
X153453333Y-86512380D01*
X153453333Y-85893333D02*
X153405713Y-85940952D01*
X153453333Y-85988571D01*
X153500952Y-85940952D01*
X153453333Y-85893333D01*
X153453333Y-85988571D01*
X152548571Y-85512380D02*
X152739047Y-85512380D01*
X152834285Y-85560000D01*
X152881904Y-85607619D01*
X152977142Y-85750476D01*
X153024761Y-85940952D01*
X153024761Y-86321904D01*
X152977142Y-86417142D01*
X152929523Y-86464761D01*
X152834285Y-86512380D01*
X152643809Y-86512380D01*
X152548571Y-86464761D01*
X152500952Y-86417142D01*
X152453333Y-86321904D01*
X152453333Y-86083809D01*
X152500952Y-85988571D01*
X152548571Y-85940952D01*
X152643809Y-85893333D01*
X152834285Y-85893333D01*
X152929523Y-85940952D01*
X152977142Y-85988571D01*
X153024761Y-86083809D01*
X150405237Y-86192380D02*
X150405237Y-85192380D01*
X149833809Y-86192380D02*
X150262380Y-85620952D01*
X149833809Y-85192380D02*
X150405237Y-85763809D01*
X158572380Y-48512380D02*
X158572380Y-47512380D01*
X158334285Y-47512380D01*
X158191428Y-47560000D01*
X158096190Y-47655238D01*
X158048571Y-47750476D01*
X158000952Y-47940952D01*
X158000952Y-48083809D01*
X158048571Y-48274285D01*
X158096190Y-48369523D01*
X158191428Y-48464761D01*
X158334285Y-48512380D01*
X158572380Y-48512380D01*
X157143809Y-47845714D02*
X157143809Y-48512380D01*
X157381904Y-47464761D02*
X157620000Y-48179047D01*
X157000952Y-48179047D01*
X156620000Y-48417142D02*
X156572380Y-48464761D01*
X156620000Y-48512380D01*
X156667619Y-48464761D01*
X156620000Y-48417142D01*
X156620000Y-48512380D01*
X156620000Y-47893333D02*
X156572380Y-47940952D01*
X156620000Y-47988571D01*
X156667619Y-47940952D01*
X156620000Y-47893333D01*
X156620000Y-47988571D01*
X155715238Y-47512380D02*
X155905714Y-47512380D01*
X156000952Y-47560000D01*
X156048571Y-47607619D01*
X156143809Y-47750476D01*
X156191428Y-47940952D01*
X156191428Y-48321904D01*
X156143809Y-48417142D01*
X156096190Y-48464761D01*
X156000952Y-48512380D01*
X155810476Y-48512380D01*
X155715238Y-48464761D01*
X155667619Y-48417142D01*
X155620000Y-48321904D01*
X155620000Y-48083809D01*
X155667619Y-47988571D01*
X155715238Y-47940952D01*
X155810476Y-47893333D01*
X156000952Y-47893333D01*
X156096190Y-47940952D01*
X156143809Y-47988571D01*
X156191428Y-48083809D01*
X153571904Y-48192380D02*
X153571904Y-47192380D01*
X153000476Y-48192380D02*
X153429047Y-47620952D01*
X153000476Y-47192380D02*
X153571904Y-47763809D01*
X135405713Y-124512380D02*
X135405713Y-123512380D01*
X135167618Y-123512380D01*
X135024761Y-123560000D01*
X134929523Y-123655238D01*
X134881904Y-123750476D01*
X134834285Y-123940952D01*
X134834285Y-124083809D01*
X134881904Y-124274285D01*
X134929523Y-124369523D01*
X135024761Y-124464761D01*
X135167618Y-124512380D01*
X135405713Y-124512380D01*
X134215237Y-123512380D02*
X134119999Y-123512380D01*
X134024761Y-123560000D01*
X133977142Y-123607619D01*
X133929523Y-123702857D01*
X133881904Y-123893333D01*
X133881904Y-124131428D01*
X133929523Y-124321904D01*
X133977142Y-124417142D01*
X134024761Y-124464761D01*
X134119999Y-124512380D01*
X134215237Y-124512380D01*
X134310475Y-124464761D01*
X134358094Y-124417142D01*
X134405713Y-124321904D01*
X134453333Y-124131428D01*
X134453333Y-123893333D01*
X134405713Y-123702857D01*
X134358094Y-123607619D01*
X134310475Y-123560000D01*
X134215237Y-123512380D01*
X133453333Y-124417142D02*
X133405713Y-124464761D01*
X133453333Y-124512380D01*
X133500952Y-124464761D01*
X133453333Y-124417142D01*
X133453333Y-124512380D01*
X133453333Y-123893333D02*
X133405713Y-123940952D01*
X133453333Y-123988571D01*
X133500952Y-123940952D01*
X133453333Y-123893333D01*
X133453333Y-123988571D01*
X132500952Y-123512380D02*
X132977142Y-123512380D01*
X133024761Y-123988571D01*
X132977142Y-123940952D01*
X132881904Y-123893333D01*
X132643809Y-123893333D01*
X132548571Y-123940952D01*
X132500952Y-123988571D01*
X132453333Y-124083809D01*
X132453333Y-124321904D01*
X132500952Y-124417142D01*
X132548571Y-124464761D01*
X132643809Y-124512380D01*
X132881904Y-124512380D01*
X132977142Y-124464761D01*
X133024761Y-124417142D01*
X130405237Y-124192380D02*
X130405237Y-123192380D01*
X129833809Y-124192380D02*
X130262380Y-123620952D01*
X129833809Y-123192380D02*
X130405237Y-123763809D01*
X145905713Y-105512380D02*
X145905713Y-104512380D01*
X145667618Y-104512380D01*
X145524761Y-104560000D01*
X145429523Y-104655238D01*
X145381904Y-104750476D01*
X145334285Y-104940952D01*
X145334285Y-105083809D01*
X145381904Y-105274285D01*
X145429523Y-105369523D01*
X145524761Y-105464761D01*
X145667618Y-105512380D01*
X145905713Y-105512380D01*
X144381904Y-105512380D02*
X144953333Y-105512380D01*
X144667618Y-105512380D02*
X144667618Y-104512380D01*
X144762856Y-104655238D01*
X144858094Y-104750476D01*
X144953333Y-104798095D01*
X143953333Y-105417142D02*
X143905713Y-105464761D01*
X143953333Y-105512380D01*
X144000952Y-105464761D01*
X143953333Y-105417142D01*
X143953333Y-105512380D01*
X143953333Y-104893333D02*
X143905713Y-104940952D01*
X143953333Y-104988571D01*
X144000952Y-104940952D01*
X143953333Y-104893333D01*
X143953333Y-104988571D01*
X143000952Y-104512380D02*
X143477142Y-104512380D01*
X143524761Y-104988571D01*
X143477142Y-104940952D01*
X143381904Y-104893333D01*
X143143809Y-104893333D01*
X143048571Y-104940952D01*
X143000952Y-104988571D01*
X142953333Y-105083809D01*
X142953333Y-105321904D01*
X143000952Y-105417142D01*
X143048571Y-105464761D01*
X143143809Y-105512380D01*
X143381904Y-105512380D01*
X143477142Y-105464761D01*
X143524761Y-105417142D01*
X140905237Y-105192380D02*
X140905237Y-104192380D01*
X140333809Y-105192380D02*
X140762380Y-104620952D01*
X140333809Y-104192380D02*
X140905237Y-104763809D01*
X136405713Y-86512380D02*
X136405713Y-85512380D01*
X136167618Y-85512380D01*
X136024761Y-85560000D01*
X135929523Y-85655238D01*
X135881904Y-85750476D01*
X135834285Y-85940952D01*
X135834285Y-86083809D01*
X135881904Y-86274285D01*
X135929523Y-86369523D01*
X136024761Y-86464761D01*
X136167618Y-86512380D01*
X136405713Y-86512380D01*
X135453333Y-85607619D02*
X135405713Y-85560000D01*
X135310475Y-85512380D01*
X135072380Y-85512380D01*
X134977142Y-85560000D01*
X134929523Y-85607619D01*
X134881904Y-85702857D01*
X134881904Y-85798095D01*
X134929523Y-85940952D01*
X135500952Y-86512380D01*
X134881904Y-86512380D01*
X134453333Y-86417142D02*
X134405713Y-86464761D01*
X134453333Y-86512380D01*
X134500952Y-86464761D01*
X134453333Y-86417142D01*
X134453333Y-86512380D01*
X134453333Y-85893333D02*
X134405713Y-85940952D01*
X134453333Y-85988571D01*
X134500952Y-85940952D01*
X134453333Y-85893333D01*
X134453333Y-85988571D01*
X133500952Y-85512380D02*
X133977142Y-85512380D01*
X134024761Y-85988571D01*
X133977142Y-85940952D01*
X133881904Y-85893333D01*
X133643809Y-85893333D01*
X133548571Y-85940952D01*
X133500952Y-85988571D01*
X133453333Y-86083809D01*
X133453333Y-86321904D01*
X133500952Y-86417142D01*
X133548571Y-86464761D01*
X133643809Y-86512380D01*
X133881904Y-86512380D01*
X133977142Y-86464761D01*
X134024761Y-86417142D01*
X131405237Y-86192380D02*
X131405237Y-85192380D01*
X130833809Y-86192380D02*
X131262380Y-85620952D01*
X130833809Y-85192380D02*
X131405237Y-85763809D01*
X149072380Y-67512380D02*
X149072380Y-66512380D01*
X148834285Y-66512380D01*
X148691428Y-66560000D01*
X148596190Y-66655238D01*
X148548571Y-66750476D01*
X148500952Y-66940952D01*
X148500952Y-67083809D01*
X148548571Y-67274285D01*
X148596190Y-67369523D01*
X148691428Y-67464761D01*
X148834285Y-67512380D01*
X149072380Y-67512380D01*
X148167619Y-66512380D02*
X147548571Y-66512380D01*
X147881904Y-66893333D01*
X147739047Y-66893333D01*
X147643809Y-66940952D01*
X147596190Y-66988571D01*
X147548571Y-67083809D01*
X147548571Y-67321904D01*
X147596190Y-67417142D01*
X147643809Y-67464761D01*
X147739047Y-67512380D01*
X148024761Y-67512380D01*
X148120000Y-67464761D01*
X148167619Y-67417142D01*
X147120000Y-67417142D02*
X147072380Y-67464761D01*
X147120000Y-67512380D01*
X147167619Y-67464761D01*
X147120000Y-67417142D01*
X147120000Y-67512380D01*
X147120000Y-66893333D02*
X147072380Y-66940952D01*
X147120000Y-66988571D01*
X147167619Y-66940952D01*
X147120000Y-66893333D01*
X147120000Y-66988571D01*
X146167619Y-66512380D02*
X146643809Y-66512380D01*
X146691428Y-66988571D01*
X146643809Y-66940952D01*
X146548571Y-66893333D01*
X146310476Y-66893333D01*
X146215238Y-66940952D01*
X146167619Y-66988571D01*
X146120000Y-67083809D01*
X146120000Y-67321904D01*
X146167619Y-67417142D01*
X146215238Y-67464761D01*
X146310476Y-67512380D01*
X146548571Y-67512380D01*
X146643809Y-67464761D01*
X146691428Y-67417142D01*
X144071904Y-67192380D02*
X144071904Y-66192380D01*
X143500476Y-67192380D02*
X143929047Y-66620952D01*
X143500476Y-66192380D02*
X144071904Y-66763809D01*
X139572380Y-48512380D02*
X139572380Y-47512380D01*
X139334285Y-47512380D01*
X139191428Y-47560000D01*
X139096190Y-47655238D01*
X139048571Y-47750476D01*
X139000952Y-47940952D01*
X139000952Y-48083809D01*
X139048571Y-48274285D01*
X139096190Y-48369523D01*
X139191428Y-48464761D01*
X139334285Y-48512380D01*
X139572380Y-48512380D01*
X138143809Y-47845714D02*
X138143809Y-48512380D01*
X138381904Y-47464761D02*
X138620000Y-48179047D01*
X138000952Y-48179047D01*
X137620000Y-48417142D02*
X137572380Y-48464761D01*
X137620000Y-48512380D01*
X137667619Y-48464761D01*
X137620000Y-48417142D01*
X137620000Y-48512380D01*
X137620000Y-47893333D02*
X137572380Y-47940952D01*
X137620000Y-47988571D01*
X137667619Y-47940952D01*
X137620000Y-47893333D01*
X137620000Y-47988571D01*
X136667619Y-47512380D02*
X137143809Y-47512380D01*
X137191428Y-47988571D01*
X137143809Y-47940952D01*
X137048571Y-47893333D01*
X136810476Y-47893333D01*
X136715238Y-47940952D01*
X136667619Y-47988571D01*
X136620000Y-48083809D01*
X136620000Y-48321904D01*
X136667619Y-48417142D01*
X136715238Y-48464761D01*
X136810476Y-48512380D01*
X137048571Y-48512380D01*
X137143809Y-48464761D01*
X137191428Y-48417142D01*
X134571904Y-48192380D02*
X134571904Y-47192380D01*
X134000476Y-48192380D02*
X134429047Y-47620952D01*
X134000476Y-47192380D02*
X134571904Y-47763809D01*
X126905713Y-105512380D02*
X126905713Y-104512380D01*
X126667618Y-104512380D01*
X126524761Y-104560000D01*
X126429523Y-104655238D01*
X126381904Y-104750476D01*
X126334285Y-104940952D01*
X126334285Y-105083809D01*
X126381904Y-105274285D01*
X126429523Y-105369523D01*
X126524761Y-105464761D01*
X126667618Y-105512380D01*
X126905713Y-105512380D01*
X125381904Y-105512380D02*
X125953333Y-105512380D01*
X125667618Y-105512380D02*
X125667618Y-104512380D01*
X125762856Y-104655238D01*
X125858094Y-104750476D01*
X125953333Y-104798095D01*
X124953333Y-105417142D02*
X124905713Y-105464761D01*
X124953333Y-105512380D01*
X125000952Y-105464761D01*
X124953333Y-105417142D01*
X124953333Y-105512380D01*
X124953333Y-104893333D02*
X124905713Y-104940952D01*
X124953333Y-104988571D01*
X125000952Y-104940952D01*
X124953333Y-104893333D01*
X124953333Y-104988571D01*
X124048571Y-104845714D02*
X124048571Y-105512380D01*
X124286666Y-104464761D02*
X124524761Y-105179047D01*
X123905713Y-105179047D01*
X121905237Y-105192380D02*
X121905237Y-104192380D01*
X121333809Y-105192380D02*
X121762380Y-104620952D01*
X121333809Y-104192380D02*
X121905237Y-104763809D01*
X117405713Y-86512380D02*
X117405713Y-85512380D01*
X117167618Y-85512380D01*
X117024761Y-85560000D01*
X116929523Y-85655238D01*
X116881904Y-85750476D01*
X116834285Y-85940952D01*
X116834285Y-86083809D01*
X116881904Y-86274285D01*
X116929523Y-86369523D01*
X117024761Y-86464761D01*
X117167618Y-86512380D01*
X117405713Y-86512380D01*
X116453333Y-85607619D02*
X116405713Y-85560000D01*
X116310475Y-85512380D01*
X116072380Y-85512380D01*
X115977142Y-85560000D01*
X115929523Y-85607619D01*
X115881904Y-85702857D01*
X115881904Y-85798095D01*
X115929523Y-85940952D01*
X116500952Y-86512380D01*
X115881904Y-86512380D01*
X115453333Y-86417142D02*
X115405713Y-86464761D01*
X115453333Y-86512380D01*
X115500952Y-86464761D01*
X115453333Y-86417142D01*
X115453333Y-86512380D01*
X115453333Y-85893333D02*
X115405713Y-85940952D01*
X115453333Y-85988571D01*
X115500952Y-85940952D01*
X115453333Y-85893333D01*
X115453333Y-85988571D01*
X114548571Y-85845714D02*
X114548571Y-86512380D01*
X114786666Y-85464761D02*
X115024761Y-86179047D01*
X114405713Y-86179047D01*
X112405237Y-86192380D02*
X112405237Y-85192380D01*
X111833809Y-86192380D02*
X112262380Y-85620952D01*
X111833809Y-85192380D02*
X112405237Y-85763809D01*
X130072380Y-67512380D02*
X130072380Y-66512380D01*
X129834285Y-66512380D01*
X129691428Y-66560000D01*
X129596190Y-66655238D01*
X129548571Y-66750476D01*
X129500952Y-66940952D01*
X129500952Y-67083809D01*
X129548571Y-67274285D01*
X129596190Y-67369523D01*
X129691428Y-67464761D01*
X129834285Y-67512380D01*
X130072380Y-67512380D01*
X129167619Y-66512380D02*
X128548571Y-66512380D01*
X128881904Y-66893333D01*
X128739047Y-66893333D01*
X128643809Y-66940952D01*
X128596190Y-66988571D01*
X128548571Y-67083809D01*
X128548571Y-67321904D01*
X128596190Y-67417142D01*
X128643809Y-67464761D01*
X128739047Y-67512380D01*
X129024761Y-67512380D01*
X129120000Y-67464761D01*
X129167619Y-67417142D01*
X128120000Y-67417142D02*
X128072380Y-67464761D01*
X128120000Y-67512380D01*
X128167619Y-67464761D01*
X128120000Y-67417142D01*
X128120000Y-67512380D01*
X128120000Y-66893333D02*
X128072380Y-66940952D01*
X128120000Y-66988571D01*
X128167619Y-66940952D01*
X128120000Y-66893333D01*
X128120000Y-66988571D01*
X127215238Y-66845714D02*
X127215238Y-67512380D01*
X127453333Y-66464761D02*
X127691428Y-67179047D01*
X127072380Y-67179047D01*
X125071904Y-67192380D02*
X125071904Y-66192380D01*
X124500476Y-67192380D02*
X124929047Y-66620952D01*
X124500476Y-66192380D02*
X125071904Y-66763809D01*
X120572380Y-48512380D02*
X120572380Y-47512380D01*
X120334285Y-47512380D01*
X120191428Y-47560000D01*
X120096190Y-47655238D01*
X120048571Y-47750476D01*
X120000952Y-47940952D01*
X120000952Y-48083809D01*
X120048571Y-48274285D01*
X120096190Y-48369523D01*
X120191428Y-48464761D01*
X120334285Y-48512380D01*
X120572380Y-48512380D01*
X119143809Y-47845714D02*
X119143809Y-48512380D01*
X119381904Y-47464761D02*
X119620000Y-48179047D01*
X119000952Y-48179047D01*
X118620000Y-48417142D02*
X118572380Y-48464761D01*
X118620000Y-48512380D01*
X118667619Y-48464761D01*
X118620000Y-48417142D01*
X118620000Y-48512380D01*
X118620000Y-47893333D02*
X118572380Y-47940952D01*
X118620000Y-47988571D01*
X118667619Y-47940952D01*
X118620000Y-47893333D01*
X118620000Y-47988571D01*
X117715238Y-47845714D02*
X117715238Y-48512380D01*
X117953333Y-47464761D02*
X118191428Y-48179047D01*
X117572380Y-48179047D01*
X115571904Y-48192380D02*
X115571904Y-47192380D01*
X115000476Y-48192380D02*
X115429047Y-47620952D01*
X115000476Y-47192380D02*
X115571904Y-47763809D01*
X102905713Y-124512380D02*
X102905713Y-123512380D01*
X102667618Y-123512380D01*
X102524761Y-123560000D01*
X102429523Y-123655238D01*
X102381904Y-123750476D01*
X102334285Y-123940952D01*
X102334285Y-124083809D01*
X102381904Y-124274285D01*
X102429523Y-124369523D01*
X102524761Y-124464761D01*
X102667618Y-124512380D01*
X102905713Y-124512380D01*
X101715237Y-123512380D02*
X101619999Y-123512380D01*
X101524761Y-123560000D01*
X101477142Y-123607619D01*
X101429523Y-123702857D01*
X101381904Y-123893333D01*
X101381904Y-124131428D01*
X101429523Y-124321904D01*
X101477142Y-124417142D01*
X101524761Y-124464761D01*
X101619999Y-124512380D01*
X101715237Y-124512380D01*
X101810475Y-124464761D01*
X101858094Y-124417142D01*
X101905713Y-124321904D01*
X101953333Y-124131428D01*
X101953333Y-123893333D01*
X101905713Y-123702857D01*
X101858094Y-123607619D01*
X101810475Y-123560000D01*
X101715237Y-123512380D01*
X100953333Y-124417142D02*
X100905713Y-124464761D01*
X100953333Y-124512380D01*
X101000952Y-124464761D01*
X100953333Y-124417142D01*
X100953333Y-124512380D01*
X100953333Y-123893333D02*
X100905713Y-123940952D01*
X100953333Y-123988571D01*
X101000952Y-123940952D01*
X100953333Y-123893333D01*
X100953333Y-123988571D01*
X100572380Y-123512380D02*
X99953333Y-123512380D01*
X100286666Y-123893333D01*
X100143809Y-123893333D01*
X100048571Y-123940952D01*
X100000952Y-123988571D01*
X99953333Y-124083809D01*
X99953333Y-124321904D01*
X100000952Y-124417142D01*
X100048571Y-124464761D01*
X100143809Y-124512380D01*
X100429523Y-124512380D01*
X100524761Y-124464761D01*
X100572380Y-124417142D01*
X97905237Y-124192380D02*
X97905237Y-123192380D01*
X97333809Y-124192380D02*
X97762380Y-123620952D01*
X97333809Y-123192380D02*
X97905237Y-123763809D01*
X107905713Y-105512380D02*
X107905713Y-104512380D01*
X107667618Y-104512380D01*
X107524761Y-104560000D01*
X107429523Y-104655238D01*
X107381904Y-104750476D01*
X107334285Y-104940952D01*
X107334285Y-105083809D01*
X107381904Y-105274285D01*
X107429523Y-105369523D01*
X107524761Y-105464761D01*
X107667618Y-105512380D01*
X107905713Y-105512380D01*
X106381904Y-105512380D02*
X106953333Y-105512380D01*
X106667618Y-105512380D02*
X106667618Y-104512380D01*
X106762856Y-104655238D01*
X106858094Y-104750476D01*
X106953333Y-104798095D01*
X105953333Y-105417142D02*
X105905713Y-105464761D01*
X105953333Y-105512380D01*
X106000952Y-105464761D01*
X105953333Y-105417142D01*
X105953333Y-105512380D01*
X105953333Y-104893333D02*
X105905713Y-104940952D01*
X105953333Y-104988571D01*
X106000952Y-104940952D01*
X105953333Y-104893333D01*
X105953333Y-104988571D01*
X105572380Y-104512380D02*
X104953333Y-104512380D01*
X105286666Y-104893333D01*
X105143809Y-104893333D01*
X105048571Y-104940952D01*
X105000952Y-104988571D01*
X104953333Y-105083809D01*
X104953333Y-105321904D01*
X105000952Y-105417142D01*
X105048571Y-105464761D01*
X105143809Y-105512380D01*
X105429523Y-105512380D01*
X105524761Y-105464761D01*
X105572380Y-105417142D01*
X102905237Y-105192380D02*
X102905237Y-104192380D01*
X102333809Y-105192380D02*
X102762380Y-104620952D01*
X102333809Y-104192380D02*
X102905237Y-104763809D01*
X98405713Y-86512380D02*
X98405713Y-85512380D01*
X98167618Y-85512380D01*
X98024761Y-85560000D01*
X97929523Y-85655238D01*
X97881904Y-85750476D01*
X97834285Y-85940952D01*
X97834285Y-86083809D01*
X97881904Y-86274285D01*
X97929523Y-86369523D01*
X98024761Y-86464761D01*
X98167618Y-86512380D01*
X98405713Y-86512380D01*
X97453333Y-85607619D02*
X97405713Y-85560000D01*
X97310475Y-85512380D01*
X97072380Y-85512380D01*
X96977142Y-85560000D01*
X96929523Y-85607619D01*
X96881904Y-85702857D01*
X96881904Y-85798095D01*
X96929523Y-85940952D01*
X97500952Y-86512380D01*
X96881904Y-86512380D01*
X96453333Y-86417142D02*
X96405713Y-86464761D01*
X96453333Y-86512380D01*
X96500952Y-86464761D01*
X96453333Y-86417142D01*
X96453333Y-86512380D01*
X96453333Y-85893333D02*
X96405713Y-85940952D01*
X96453333Y-85988571D01*
X96500952Y-85940952D01*
X96453333Y-85893333D01*
X96453333Y-85988571D01*
X96072380Y-85512380D02*
X95453333Y-85512380D01*
X95786666Y-85893333D01*
X95643809Y-85893333D01*
X95548571Y-85940952D01*
X95500952Y-85988571D01*
X95453333Y-86083809D01*
X95453333Y-86321904D01*
X95500952Y-86417142D01*
X95548571Y-86464761D01*
X95643809Y-86512380D01*
X95929523Y-86512380D01*
X96024761Y-86464761D01*
X96072380Y-86417142D01*
X93405237Y-86192380D02*
X93405237Y-85192380D01*
X92833809Y-86192380D02*
X93262380Y-85620952D01*
X92833809Y-85192380D02*
X93405237Y-85763809D01*
X111072380Y-67512380D02*
X111072380Y-66512380D01*
X110834285Y-66512380D01*
X110691428Y-66560000D01*
X110596190Y-66655238D01*
X110548571Y-66750476D01*
X110500952Y-66940952D01*
X110500952Y-67083809D01*
X110548571Y-67274285D01*
X110596190Y-67369523D01*
X110691428Y-67464761D01*
X110834285Y-67512380D01*
X111072380Y-67512380D01*
X110167619Y-66512380D02*
X109548571Y-66512380D01*
X109881904Y-66893333D01*
X109739047Y-66893333D01*
X109643809Y-66940952D01*
X109596190Y-66988571D01*
X109548571Y-67083809D01*
X109548571Y-67321904D01*
X109596190Y-67417142D01*
X109643809Y-67464761D01*
X109739047Y-67512380D01*
X110024761Y-67512380D01*
X110120000Y-67464761D01*
X110167619Y-67417142D01*
X109120000Y-67417142D02*
X109072380Y-67464761D01*
X109120000Y-67512380D01*
X109167619Y-67464761D01*
X109120000Y-67417142D01*
X109120000Y-67512380D01*
X109120000Y-66893333D02*
X109072380Y-66940952D01*
X109120000Y-66988571D01*
X109167619Y-66940952D01*
X109120000Y-66893333D01*
X109120000Y-66988571D01*
X108739047Y-66512380D02*
X108120000Y-66512380D01*
X108453333Y-66893333D01*
X108310476Y-66893333D01*
X108215238Y-66940952D01*
X108167619Y-66988571D01*
X108120000Y-67083809D01*
X108120000Y-67321904D01*
X108167619Y-67417142D01*
X108215238Y-67464761D01*
X108310476Y-67512380D01*
X108596190Y-67512380D01*
X108691428Y-67464761D01*
X108739047Y-67417142D01*
X106071904Y-67192380D02*
X106071904Y-66192380D01*
X105500476Y-67192380D02*
X105929047Y-66620952D01*
X105500476Y-66192380D02*
X106071904Y-66763809D01*
X101572380Y-48512380D02*
X101572380Y-47512380D01*
X101334285Y-47512380D01*
X101191428Y-47560000D01*
X101096190Y-47655238D01*
X101048571Y-47750476D01*
X101000952Y-47940952D01*
X101000952Y-48083809D01*
X101048571Y-48274285D01*
X101096190Y-48369523D01*
X101191428Y-48464761D01*
X101334285Y-48512380D01*
X101572380Y-48512380D01*
X100143809Y-47845714D02*
X100143809Y-48512380D01*
X100381904Y-47464761D02*
X100620000Y-48179047D01*
X100000952Y-48179047D01*
X99620000Y-48417142D02*
X99572380Y-48464761D01*
X99620000Y-48512380D01*
X99667619Y-48464761D01*
X99620000Y-48417142D01*
X99620000Y-48512380D01*
X99620000Y-47893333D02*
X99572380Y-47940952D01*
X99620000Y-47988571D01*
X99667619Y-47940952D01*
X99620000Y-47893333D01*
X99620000Y-47988571D01*
X99239047Y-47512380D02*
X98620000Y-47512380D01*
X98953333Y-47893333D01*
X98810476Y-47893333D01*
X98715238Y-47940952D01*
X98667619Y-47988571D01*
X98620000Y-48083809D01*
X98620000Y-48321904D01*
X98667619Y-48417142D01*
X98715238Y-48464761D01*
X98810476Y-48512380D01*
X99096190Y-48512380D01*
X99191428Y-48464761D01*
X99239047Y-48417142D01*
X96571904Y-48192380D02*
X96571904Y-47192380D01*
X96000476Y-48192380D02*
X96429047Y-47620952D01*
X96000476Y-47192380D02*
X96571904Y-47763809D01*
X79405713Y-124512380D02*
X79405713Y-123512380D01*
X79167618Y-123512380D01*
X79024761Y-123560000D01*
X78929523Y-123655238D01*
X78881904Y-123750476D01*
X78834285Y-123940952D01*
X78834285Y-124083809D01*
X78881904Y-124274285D01*
X78929523Y-124369523D01*
X79024761Y-124464761D01*
X79167618Y-124512380D01*
X79405713Y-124512380D01*
X78215237Y-123512380D02*
X78119999Y-123512380D01*
X78024761Y-123560000D01*
X77977142Y-123607619D01*
X77929523Y-123702857D01*
X77881904Y-123893333D01*
X77881904Y-124131428D01*
X77929523Y-124321904D01*
X77977142Y-124417142D01*
X78024761Y-124464761D01*
X78119999Y-124512380D01*
X78215237Y-124512380D01*
X78310475Y-124464761D01*
X78358094Y-124417142D01*
X78405713Y-124321904D01*
X78453333Y-124131428D01*
X78453333Y-123893333D01*
X78405713Y-123702857D01*
X78358094Y-123607619D01*
X78310475Y-123560000D01*
X78215237Y-123512380D01*
X77453333Y-124417142D02*
X77405713Y-124464761D01*
X77453333Y-124512380D01*
X77500952Y-124464761D01*
X77453333Y-124417142D01*
X77453333Y-124512380D01*
X77453333Y-123893333D02*
X77405713Y-123940952D01*
X77453333Y-123988571D01*
X77500952Y-123940952D01*
X77453333Y-123893333D01*
X77453333Y-123988571D01*
X77024761Y-123607619D02*
X76977142Y-123560000D01*
X76881904Y-123512380D01*
X76643809Y-123512380D01*
X76548571Y-123560000D01*
X76500952Y-123607619D01*
X76453333Y-123702857D01*
X76453333Y-123798095D01*
X76500952Y-123940952D01*
X77072380Y-124512380D01*
X76453333Y-124512380D01*
X74405237Y-124192380D02*
X74405237Y-123192380D01*
X73833809Y-124192380D02*
X74262380Y-123620952D01*
X73833809Y-123192380D02*
X74405237Y-123763809D01*
X88905713Y-105512380D02*
X88905713Y-104512380D01*
X88667618Y-104512380D01*
X88524761Y-104560000D01*
X88429523Y-104655238D01*
X88381904Y-104750476D01*
X88334285Y-104940952D01*
X88334285Y-105083809D01*
X88381904Y-105274285D01*
X88429523Y-105369523D01*
X88524761Y-105464761D01*
X88667618Y-105512380D01*
X88905713Y-105512380D01*
X87381904Y-105512380D02*
X87953333Y-105512380D01*
X87667618Y-105512380D02*
X87667618Y-104512380D01*
X87762856Y-104655238D01*
X87858094Y-104750476D01*
X87953333Y-104798095D01*
X86953333Y-105417142D02*
X86905713Y-105464761D01*
X86953333Y-105512380D01*
X87000952Y-105464761D01*
X86953333Y-105417142D01*
X86953333Y-105512380D01*
X86953333Y-104893333D02*
X86905713Y-104940952D01*
X86953333Y-104988571D01*
X87000952Y-104940952D01*
X86953333Y-104893333D01*
X86953333Y-104988571D01*
X86524761Y-104607619D02*
X86477142Y-104560000D01*
X86381904Y-104512380D01*
X86143809Y-104512380D01*
X86048571Y-104560000D01*
X86000952Y-104607619D01*
X85953333Y-104702857D01*
X85953333Y-104798095D01*
X86000952Y-104940952D01*
X86572380Y-105512380D01*
X85953333Y-105512380D01*
X83905237Y-105192380D02*
X83905237Y-104192380D01*
X83333809Y-105192380D02*
X83762380Y-104620952D01*
X83333809Y-104192380D02*
X83905237Y-104763809D01*
X79405713Y-86512380D02*
X79405713Y-85512380D01*
X79167618Y-85512380D01*
X79024761Y-85560000D01*
X78929523Y-85655238D01*
X78881904Y-85750476D01*
X78834285Y-85940952D01*
X78834285Y-86083809D01*
X78881904Y-86274285D01*
X78929523Y-86369523D01*
X79024761Y-86464761D01*
X79167618Y-86512380D01*
X79405713Y-86512380D01*
X78453333Y-85607619D02*
X78405713Y-85560000D01*
X78310475Y-85512380D01*
X78072380Y-85512380D01*
X77977142Y-85560000D01*
X77929523Y-85607619D01*
X77881904Y-85702857D01*
X77881904Y-85798095D01*
X77929523Y-85940952D01*
X78500952Y-86512380D01*
X77881904Y-86512380D01*
X77453333Y-86417142D02*
X77405713Y-86464761D01*
X77453333Y-86512380D01*
X77500952Y-86464761D01*
X77453333Y-86417142D01*
X77453333Y-86512380D01*
X77453333Y-85893333D02*
X77405713Y-85940952D01*
X77453333Y-85988571D01*
X77500952Y-85940952D01*
X77453333Y-85893333D01*
X77453333Y-85988571D01*
X77024761Y-85607619D02*
X76977142Y-85560000D01*
X76881904Y-85512380D01*
X76643809Y-85512380D01*
X76548571Y-85560000D01*
X76500952Y-85607619D01*
X76453333Y-85702857D01*
X76453333Y-85798095D01*
X76500952Y-85940952D01*
X77072380Y-86512380D01*
X76453333Y-86512380D01*
X74405237Y-86192380D02*
X74405237Y-85192380D01*
X73833809Y-86192380D02*
X74262380Y-85620952D01*
X73833809Y-85192380D02*
X74405237Y-85763809D01*
X92072380Y-67512380D02*
X92072380Y-66512380D01*
X91834285Y-66512380D01*
X91691428Y-66560000D01*
X91596190Y-66655238D01*
X91548571Y-66750476D01*
X91500952Y-66940952D01*
X91500952Y-67083809D01*
X91548571Y-67274285D01*
X91596190Y-67369523D01*
X91691428Y-67464761D01*
X91834285Y-67512380D01*
X92072380Y-67512380D01*
X91167619Y-66512380D02*
X90548571Y-66512380D01*
X90881904Y-66893333D01*
X90739047Y-66893333D01*
X90643809Y-66940952D01*
X90596190Y-66988571D01*
X90548571Y-67083809D01*
X90548571Y-67321904D01*
X90596190Y-67417142D01*
X90643809Y-67464761D01*
X90739047Y-67512380D01*
X91024761Y-67512380D01*
X91120000Y-67464761D01*
X91167619Y-67417142D01*
X90120000Y-67417142D02*
X90072380Y-67464761D01*
X90120000Y-67512380D01*
X90167619Y-67464761D01*
X90120000Y-67417142D01*
X90120000Y-67512380D01*
X90120000Y-66893333D02*
X90072380Y-66940952D01*
X90120000Y-66988571D01*
X90167619Y-66940952D01*
X90120000Y-66893333D01*
X90120000Y-66988571D01*
X89691428Y-66607619D02*
X89643809Y-66560000D01*
X89548571Y-66512380D01*
X89310476Y-66512380D01*
X89215238Y-66560000D01*
X89167619Y-66607619D01*
X89120000Y-66702857D01*
X89120000Y-66798095D01*
X89167619Y-66940952D01*
X89739047Y-67512380D01*
X89120000Y-67512380D01*
X87071904Y-67192380D02*
X87071904Y-66192380D01*
X86500476Y-67192380D02*
X86929047Y-66620952D01*
X86500476Y-66192380D02*
X87071904Y-66763809D01*
X82572380Y-48512380D02*
X82572380Y-47512380D01*
X82334285Y-47512380D01*
X82191428Y-47560000D01*
X82096190Y-47655238D01*
X82048571Y-47750476D01*
X82000952Y-47940952D01*
X82000952Y-48083809D01*
X82048571Y-48274285D01*
X82096190Y-48369523D01*
X82191428Y-48464761D01*
X82334285Y-48512380D01*
X82572380Y-48512380D01*
X81143809Y-47845714D02*
X81143809Y-48512380D01*
X81381904Y-47464761D02*
X81620000Y-48179047D01*
X81000952Y-48179047D01*
X80620000Y-48417142D02*
X80572380Y-48464761D01*
X80620000Y-48512380D01*
X80667619Y-48464761D01*
X80620000Y-48417142D01*
X80620000Y-48512380D01*
X80620000Y-47893333D02*
X80572380Y-47940952D01*
X80620000Y-47988571D01*
X80667619Y-47940952D01*
X80620000Y-47893333D01*
X80620000Y-47988571D01*
X80191428Y-47607619D02*
X80143809Y-47560000D01*
X80048571Y-47512380D01*
X79810476Y-47512380D01*
X79715238Y-47560000D01*
X79667619Y-47607619D01*
X79620000Y-47702857D01*
X79620000Y-47798095D01*
X79667619Y-47940952D01*
X80239047Y-48512380D01*
X79620000Y-48512380D01*
X77571904Y-48192380D02*
X77571904Y-47192380D01*
X77000476Y-48192380D02*
X77429047Y-47620952D01*
X77000476Y-47192380D02*
X77571904Y-47763809D01*
X60405713Y-124512380D02*
X60405713Y-123512380D01*
X60167618Y-123512380D01*
X60024761Y-123560000D01*
X59929523Y-123655238D01*
X59881904Y-123750476D01*
X59834285Y-123940952D01*
X59834285Y-124083809D01*
X59881904Y-124274285D01*
X59929523Y-124369523D01*
X60024761Y-124464761D01*
X60167618Y-124512380D01*
X60405713Y-124512380D01*
X59215237Y-123512380D02*
X59119999Y-123512380D01*
X59024761Y-123560000D01*
X58977142Y-123607619D01*
X58929523Y-123702857D01*
X58881904Y-123893333D01*
X58881904Y-124131428D01*
X58929523Y-124321904D01*
X58977142Y-124417142D01*
X59024761Y-124464761D01*
X59119999Y-124512380D01*
X59215237Y-124512380D01*
X59310475Y-124464761D01*
X59358094Y-124417142D01*
X59405713Y-124321904D01*
X59453333Y-124131428D01*
X59453333Y-123893333D01*
X59405713Y-123702857D01*
X59358094Y-123607619D01*
X59310475Y-123560000D01*
X59215237Y-123512380D01*
X58453332Y-124417142D02*
X58405713Y-124464761D01*
X58453332Y-124512380D01*
X58500952Y-124464761D01*
X58453332Y-124417142D01*
X58453332Y-124512380D01*
X58453332Y-123893333D02*
X58405713Y-123940952D01*
X58453332Y-123988571D01*
X58500952Y-123940952D01*
X58453332Y-123893333D01*
X58453332Y-123988571D01*
X57453332Y-124512380D02*
X58024761Y-124512380D01*
X57739047Y-124512380D02*
X57739047Y-123512380D01*
X57834285Y-123655238D01*
X57929523Y-123750476D01*
X58024761Y-123798095D01*
X55405237Y-124192380D02*
X55405237Y-123192380D01*
X54833809Y-124192380D02*
X55262380Y-123620952D01*
X54833809Y-123192380D02*
X55405237Y-123763809D01*
X65405713Y-105512380D02*
X65405713Y-104512380D01*
X65167618Y-104512380D01*
X65024761Y-104560000D01*
X64929523Y-104655238D01*
X64881904Y-104750476D01*
X64834285Y-104940952D01*
X64834285Y-105083809D01*
X64881904Y-105274285D01*
X64929523Y-105369523D01*
X65024761Y-105464761D01*
X65167618Y-105512380D01*
X65405713Y-105512380D01*
X63881904Y-105512380D02*
X64453333Y-105512380D01*
X64167618Y-105512380D02*
X64167618Y-104512380D01*
X64262856Y-104655238D01*
X64358094Y-104750476D01*
X64453333Y-104798095D01*
X63453332Y-105417142D02*
X63405713Y-105464761D01*
X63453332Y-105512380D01*
X63500952Y-105464761D01*
X63453332Y-105417142D01*
X63453332Y-105512380D01*
X63453332Y-104893333D02*
X63405713Y-104940952D01*
X63453332Y-104988571D01*
X63500952Y-104940952D01*
X63453332Y-104893333D01*
X63453332Y-104988571D01*
X62453332Y-105512380D02*
X63024761Y-105512380D01*
X62739047Y-105512380D02*
X62739047Y-104512380D01*
X62834285Y-104655238D01*
X62929523Y-104750476D01*
X63024761Y-104798095D01*
X60405237Y-105192380D02*
X60405237Y-104192380D01*
X59833809Y-105192380D02*
X60262380Y-104620952D01*
X59833809Y-104192380D02*
X60405237Y-104763809D01*
X73072380Y-67512380D02*
X73072380Y-66512380D01*
X72834285Y-66512380D01*
X72691428Y-66560000D01*
X72596190Y-66655238D01*
X72548571Y-66750476D01*
X72500952Y-66940952D01*
X72500952Y-67083809D01*
X72548571Y-67274285D01*
X72596190Y-67369523D01*
X72691428Y-67464761D01*
X72834285Y-67512380D01*
X73072380Y-67512380D01*
X72167619Y-66512380D02*
X71548571Y-66512380D01*
X71881904Y-66893333D01*
X71739047Y-66893333D01*
X71643809Y-66940952D01*
X71596190Y-66988571D01*
X71548571Y-67083809D01*
X71548571Y-67321904D01*
X71596190Y-67417142D01*
X71643809Y-67464761D01*
X71739047Y-67512380D01*
X72024761Y-67512380D01*
X72120000Y-67464761D01*
X72167619Y-67417142D01*
X71120000Y-67417142D02*
X71072380Y-67464761D01*
X71120000Y-67512380D01*
X71167619Y-67464761D01*
X71120000Y-67417142D01*
X71120000Y-67512380D01*
X71120000Y-66893333D02*
X71072380Y-66940952D01*
X71120000Y-66988571D01*
X71167619Y-66940952D01*
X71120000Y-66893333D01*
X71120000Y-66988571D01*
X70120000Y-67512380D02*
X70691428Y-67512380D01*
X70405714Y-67512380D02*
X70405714Y-66512380D01*
X70500952Y-66655238D01*
X70596190Y-66750476D01*
X70691428Y-66798095D01*
X68071904Y-67192380D02*
X68071904Y-66192380D01*
X67500476Y-67192380D02*
X67929047Y-66620952D01*
X67500476Y-66192380D02*
X68071904Y-66763809D01*
X63572380Y-48512380D02*
X63572380Y-47512380D01*
X63334285Y-47512380D01*
X63191428Y-47560000D01*
X63096190Y-47655238D01*
X63048571Y-47750476D01*
X63000952Y-47940952D01*
X63000952Y-48083809D01*
X63048571Y-48274285D01*
X63096190Y-48369523D01*
X63191428Y-48464761D01*
X63334285Y-48512380D01*
X63572380Y-48512380D01*
X62143809Y-47845714D02*
X62143809Y-48512380D01*
X62381904Y-47464761D02*
X62620000Y-48179047D01*
X62000952Y-48179047D01*
X61619999Y-48417142D02*
X61572380Y-48464761D01*
X61619999Y-48512380D01*
X61667619Y-48464761D01*
X61619999Y-48417142D01*
X61619999Y-48512380D01*
X61619999Y-47893333D02*
X61572380Y-47940952D01*
X61619999Y-47988571D01*
X61667619Y-47940952D01*
X61619999Y-47893333D01*
X61619999Y-47988571D01*
X60619999Y-48512380D02*
X61191428Y-48512380D01*
X60905714Y-48512380D02*
X60905714Y-47512380D01*
X61000952Y-47655238D01*
X61096190Y-47750476D01*
X61191428Y-47798095D01*
X58571904Y-48192380D02*
X58571904Y-47192380D01*
X58000476Y-48192380D02*
X58429047Y-47620952D01*
X58000476Y-47192380D02*
X58571904Y-47763809D01*
X41405713Y-124512380D02*
X41405713Y-123512380D01*
X41167618Y-123512380D01*
X41024761Y-123560000D01*
X40929523Y-123655238D01*
X40881904Y-123750476D01*
X40834285Y-123940952D01*
X40834285Y-124083809D01*
X40881904Y-124274285D01*
X40929523Y-124369523D01*
X41024761Y-124464761D01*
X41167618Y-124512380D01*
X41405713Y-124512380D01*
X40215237Y-123512380D02*
X40119999Y-123512380D01*
X40024761Y-123560000D01*
X39977142Y-123607619D01*
X39929523Y-123702857D01*
X39881904Y-123893333D01*
X39881904Y-124131428D01*
X39929523Y-124321904D01*
X39977142Y-124417142D01*
X40024761Y-124464761D01*
X40119999Y-124512380D01*
X40215237Y-124512380D01*
X40310475Y-124464761D01*
X40358094Y-124417142D01*
X40405713Y-124321904D01*
X40453333Y-124131428D01*
X40453333Y-123893333D01*
X40405713Y-123702857D01*
X40358094Y-123607619D01*
X40310475Y-123560000D01*
X40215237Y-123512380D01*
X39453332Y-124417142D02*
X39405713Y-124464761D01*
X39453332Y-124512380D01*
X39500952Y-124464761D01*
X39453332Y-124417142D01*
X39453332Y-124512380D01*
X39453332Y-123893333D02*
X39405713Y-123940952D01*
X39453332Y-123988571D01*
X39500952Y-123940952D01*
X39453332Y-123893333D01*
X39453332Y-123988571D01*
X38786666Y-123512380D02*
X38691428Y-123512380D01*
X38596190Y-123560000D01*
X38548571Y-123607619D01*
X38500952Y-123702857D01*
X38453332Y-123893333D01*
X38453332Y-124131428D01*
X38500952Y-124321904D01*
X38548571Y-124417142D01*
X38596190Y-124464761D01*
X38691428Y-124512380D01*
X38786666Y-124512380D01*
X38881904Y-124464761D01*
X38929523Y-124417142D01*
X38977142Y-124321904D01*
X39024761Y-124131428D01*
X39024761Y-123893333D01*
X38977142Y-123702857D01*
X38929523Y-123607619D01*
X38881904Y-123560000D01*
X38786666Y-123512380D01*
X36405237Y-124192380D02*
X36405237Y-123192380D01*
X35833809Y-124192380D02*
X36262380Y-123620952D01*
X35833809Y-123192380D02*
X36405237Y-123763809D01*
X49572380Y-67512380D02*
X49572380Y-66512380D01*
X49334285Y-66512380D01*
X49191428Y-66560000D01*
X49096190Y-66655238D01*
X49048571Y-66750476D01*
X49000952Y-66940952D01*
X49000952Y-67083809D01*
X49048571Y-67274285D01*
X49096190Y-67369523D01*
X49191428Y-67464761D01*
X49334285Y-67512380D01*
X49572380Y-67512380D01*
X48667619Y-66512380D02*
X48048571Y-66512380D01*
X48381904Y-66893333D01*
X48239047Y-66893333D01*
X48143809Y-66940952D01*
X48096190Y-66988571D01*
X48048571Y-67083809D01*
X48048571Y-67321904D01*
X48096190Y-67417142D01*
X48143809Y-67464761D01*
X48239047Y-67512380D01*
X48524761Y-67512380D01*
X48620000Y-67464761D01*
X48667619Y-67417142D01*
X47619999Y-67417142D02*
X47572380Y-67464761D01*
X47619999Y-67512380D01*
X47667619Y-67464761D01*
X47619999Y-67417142D01*
X47619999Y-67512380D01*
X47619999Y-66893333D02*
X47572380Y-66940952D01*
X47619999Y-66988571D01*
X47667619Y-66940952D01*
X47619999Y-66893333D01*
X47619999Y-66988571D01*
X46953333Y-66512380D02*
X46858095Y-66512380D01*
X46762857Y-66560000D01*
X46715238Y-66607619D01*
X46667619Y-66702857D01*
X46619999Y-66893333D01*
X46619999Y-67131428D01*
X46667619Y-67321904D01*
X46715238Y-67417142D01*
X46762857Y-67464761D01*
X46858095Y-67512380D01*
X46953333Y-67512380D01*
X47048571Y-67464761D01*
X47096190Y-67417142D01*
X47143809Y-67321904D01*
X47191428Y-67131428D01*
X47191428Y-66893333D01*
X47143809Y-66702857D01*
X47096190Y-66607619D01*
X47048571Y-66560000D01*
X46953333Y-66512380D01*
X44571904Y-67192380D02*
X44571904Y-66192380D01*
X44000476Y-67192380D02*
X44429047Y-66620952D01*
X44000476Y-66192380D02*
X44571904Y-66763809D01*
X44572380Y-48512380D02*
X44572380Y-47512380D01*
X44334285Y-47512380D01*
X44191428Y-47560000D01*
X44096190Y-47655238D01*
X44048571Y-47750476D01*
X44000952Y-47940952D01*
X44000952Y-48083809D01*
X44048571Y-48274285D01*
X44096190Y-48369523D01*
X44191428Y-48464761D01*
X44334285Y-48512380D01*
X44572380Y-48512380D01*
X43143809Y-47845714D02*
X43143809Y-48512380D01*
X43381904Y-47464761D02*
X43620000Y-48179047D01*
X43000952Y-48179047D01*
X42619999Y-48417142D02*
X42572380Y-48464761D01*
X42619999Y-48512380D01*
X42667619Y-48464761D01*
X42619999Y-48417142D01*
X42619999Y-48512380D01*
X42619999Y-47893333D02*
X42572380Y-47940952D01*
X42619999Y-47988571D01*
X42667619Y-47940952D01*
X42619999Y-47893333D01*
X42619999Y-47988571D01*
X41953333Y-47512380D02*
X41858095Y-47512380D01*
X41762857Y-47560000D01*
X41715238Y-47607619D01*
X41667619Y-47702857D01*
X41619999Y-47893333D01*
X41619999Y-48131428D01*
X41667619Y-48321904D01*
X41715238Y-48417142D01*
X41762857Y-48464761D01*
X41858095Y-48512380D01*
X41953333Y-48512380D01*
X42048571Y-48464761D01*
X42096190Y-48417142D01*
X42143809Y-48321904D01*
X42191428Y-48131428D01*
X42191428Y-47893333D01*
X42143809Y-47702857D01*
X42096190Y-47607619D01*
X42048571Y-47560000D01*
X41953333Y-47512380D01*
X39571904Y-48192380D02*
X39571904Y-47192380D01*
X39000476Y-48192380D02*
X39429047Y-47620952D01*
X39000476Y-47192380D02*
X39571904Y-47763809D01*
X44572380Y-29512380D02*
X44572380Y-28512380D01*
X44334285Y-28512380D01*
X44191428Y-28560000D01*
X44096190Y-28655238D01*
X44048571Y-28750476D01*
X44000952Y-28940952D01*
X44000952Y-29083809D01*
X44048571Y-29274285D01*
X44096190Y-29369523D01*
X44191428Y-29464761D01*
X44334285Y-29512380D01*
X44572380Y-29512380D01*
X43096190Y-28512380D02*
X43572380Y-28512380D01*
X43620000Y-28988571D01*
X43572380Y-28940952D01*
X43477142Y-28893333D01*
X43239047Y-28893333D01*
X43143809Y-28940952D01*
X43096190Y-28988571D01*
X43048571Y-29083809D01*
X43048571Y-29321904D01*
X43096190Y-29417142D01*
X43143809Y-29464761D01*
X43239047Y-29512380D01*
X43477142Y-29512380D01*
X43572380Y-29464761D01*
X43620000Y-29417142D01*
X42619999Y-29417142D02*
X42572380Y-29464761D01*
X42619999Y-29512380D01*
X42667619Y-29464761D01*
X42619999Y-29417142D01*
X42619999Y-29512380D01*
X42619999Y-28893333D02*
X42572380Y-28940952D01*
X42619999Y-28988571D01*
X42667619Y-28940952D01*
X42619999Y-28893333D01*
X42619999Y-28988571D01*
X41953333Y-28512380D02*
X41858095Y-28512380D01*
X41762857Y-28560000D01*
X41715238Y-28607619D01*
X41667619Y-28702857D01*
X41619999Y-28893333D01*
X41619999Y-29131428D01*
X41667619Y-29321904D01*
X41715238Y-29417142D01*
X41762857Y-29464761D01*
X41858095Y-29512380D01*
X41953333Y-29512380D01*
X42048571Y-29464761D01*
X42096190Y-29417142D01*
X42143809Y-29321904D01*
X42191428Y-29131428D01*
X42191428Y-28893333D01*
X42143809Y-28702857D01*
X42096190Y-28607619D01*
X42048571Y-28560000D01*
X41953333Y-28512380D01*
X39571904Y-29192380D02*
X39571904Y-28192380D01*
X39000476Y-29192380D02*
X39429047Y-28620952D01*
X39000476Y-28192380D02*
X39571904Y-28763809D01*
M02*
