G04 #@! TF.GenerationSoftware,KiCad,Pcbnew,(5.1.4-0-10_14)*
G04 #@! TF.CreationDate,2019-10-23T14:13:54-04:00*
G04 #@! TF.ProjectId,NomadRight,4e6f6d61-6452-4696-9768-742e6b696361,rev?*
G04 #@! TF.SameCoordinates,Original*
G04 #@! TF.FileFunction,Legend,Bot*
G04 #@! TF.FilePolarity,Positive*
%FSLAX46Y46*%
G04 Gerber Fmt 4.6, Leading zero omitted, Abs format (unit mm)*
G04 Created by KiCad (PCBNEW (5.1.4-0-10_14)) date 2019-10-23 14:13:54*
%MOMM*%
%LPD*%
G04 APERTURE LIST*
%ADD10C,0.120000*%
%ADD11C,0.150000*%
G04 APERTURE END LIST*
D10*
X40471252Y-103020000D02*
X39948748Y-103020000D01*
X40471252Y-101600000D02*
X39948748Y-101600000D01*
X38420000Y-109641252D02*
X38420000Y-109118748D01*
X39840000Y-109641252D02*
X39840000Y-109118748D01*
X167560000Y-41930000D02*
X167560000Y-39690000D01*
X167800000Y-41930000D02*
X167800000Y-39690000D01*
X167680000Y-41930000D02*
X167680000Y-39690000D01*
X171850000Y-40810000D02*
X171200000Y-40810000D01*
X166310000Y-40810000D02*
X166960000Y-40810000D01*
X171200000Y-41930000D02*
X166960000Y-41930000D01*
X171200000Y-39690000D02*
X171200000Y-41930000D01*
X166960000Y-39690000D02*
X171200000Y-39690000D01*
X166960000Y-41930000D02*
X166960000Y-39690000D01*
X144060000Y-41930000D02*
X144060000Y-39690000D01*
X144300000Y-41930000D02*
X144300000Y-39690000D01*
X144180000Y-41930000D02*
X144180000Y-39690000D01*
X148350000Y-40810000D02*
X147700000Y-40810000D01*
X142810000Y-40810000D02*
X143460000Y-40810000D01*
X147700000Y-41930000D02*
X143460000Y-41930000D01*
X147700000Y-39690000D02*
X147700000Y-41930000D01*
X143460000Y-39690000D02*
X147700000Y-39690000D01*
X143460000Y-41930000D02*
X143460000Y-39690000D01*
X125060000Y-41930000D02*
X125060000Y-39690000D01*
X125300000Y-41930000D02*
X125300000Y-39690000D01*
X125180000Y-41930000D02*
X125180000Y-39690000D01*
X129350000Y-40810000D02*
X128700000Y-40810000D01*
X123810000Y-40810000D02*
X124460000Y-40810000D01*
X128700000Y-41930000D02*
X124460000Y-41930000D01*
X128700000Y-39690000D02*
X128700000Y-41930000D01*
X124460000Y-39690000D02*
X128700000Y-39690000D01*
X124460000Y-41930000D02*
X124460000Y-39690000D01*
X106060000Y-41930000D02*
X106060000Y-39690000D01*
X106300000Y-41930000D02*
X106300000Y-39690000D01*
X106180000Y-41930000D02*
X106180000Y-39690000D01*
X110350000Y-40810000D02*
X109700000Y-40810000D01*
X104810000Y-40810000D02*
X105460000Y-40810000D01*
X109700000Y-41930000D02*
X105460000Y-41930000D01*
X109700000Y-39690000D02*
X109700000Y-41930000D01*
X105460000Y-39690000D02*
X109700000Y-39690000D01*
X105460000Y-41930000D02*
X105460000Y-39690000D01*
X87060000Y-41930000D02*
X87060000Y-39690000D01*
X87300000Y-41930000D02*
X87300000Y-39690000D01*
X87180000Y-41930000D02*
X87180000Y-39690000D01*
X91350000Y-40810000D02*
X90700000Y-40810000D01*
X85810000Y-40810000D02*
X86460000Y-40810000D01*
X90700000Y-41930000D02*
X86460000Y-41930000D01*
X90700000Y-39690000D02*
X90700000Y-41930000D01*
X86460000Y-39690000D02*
X90700000Y-39690000D01*
X86460000Y-41930000D02*
X86460000Y-39690000D01*
X68060000Y-41930000D02*
X68060000Y-39690000D01*
X68300000Y-41930000D02*
X68300000Y-39690000D01*
X68180000Y-41930000D02*
X68180000Y-39690000D01*
X72350000Y-40810000D02*
X71700000Y-40810000D01*
X66810000Y-40810000D02*
X67460000Y-40810000D01*
X71700000Y-41930000D02*
X67460000Y-41930000D01*
X71700000Y-39690000D02*
X71700000Y-41930000D01*
X67460000Y-39690000D02*
X71700000Y-39690000D01*
X67460000Y-41930000D02*
X67460000Y-39690000D01*
X49060000Y-41930000D02*
X49060000Y-39690000D01*
X49300000Y-41930000D02*
X49300000Y-39690000D01*
X49180000Y-41930000D02*
X49180000Y-39690000D01*
X53350000Y-40810000D02*
X52700000Y-40810000D01*
X47810000Y-40810000D02*
X48460000Y-40810000D01*
X52700000Y-41930000D02*
X48460000Y-41930000D01*
X52700000Y-39690000D02*
X52700000Y-41930000D01*
X48460000Y-39690000D02*
X52700000Y-39690000D01*
X48460000Y-41930000D02*
X48460000Y-39690000D01*
X172560000Y-60930000D02*
X172560000Y-58690000D01*
X172800000Y-60930000D02*
X172800000Y-58690000D01*
X172680000Y-60930000D02*
X172680000Y-58690000D01*
X176850000Y-59810000D02*
X176200000Y-59810000D01*
X171310000Y-59810000D02*
X171960000Y-59810000D01*
X176200000Y-60930000D02*
X171960000Y-60930000D01*
X176200000Y-58690000D02*
X176200000Y-60930000D01*
X171960000Y-58690000D02*
X176200000Y-58690000D01*
X171960000Y-60930000D02*
X171960000Y-58690000D01*
X153560000Y-60930000D02*
X153560000Y-58690000D01*
X153800000Y-60930000D02*
X153800000Y-58690000D01*
X153680000Y-60930000D02*
X153680000Y-58690000D01*
X157850000Y-59810000D02*
X157200000Y-59810000D01*
X152310000Y-59810000D02*
X152960000Y-59810000D01*
X157200000Y-60930000D02*
X152960000Y-60930000D01*
X157200000Y-58690000D02*
X157200000Y-60930000D01*
X152960000Y-58690000D02*
X157200000Y-58690000D01*
X152960000Y-60930000D02*
X152960000Y-58690000D01*
X134560000Y-60930000D02*
X134560000Y-58690000D01*
X134800000Y-60930000D02*
X134800000Y-58690000D01*
X134680000Y-60930000D02*
X134680000Y-58690000D01*
X138850000Y-59810000D02*
X138200000Y-59810000D01*
X133310000Y-59810000D02*
X133960000Y-59810000D01*
X138200000Y-60930000D02*
X133960000Y-60930000D01*
X138200000Y-58690000D02*
X138200000Y-60930000D01*
X133960000Y-58690000D02*
X138200000Y-58690000D01*
X133960000Y-60930000D02*
X133960000Y-58690000D01*
X115560000Y-60930000D02*
X115560000Y-58690000D01*
X115800000Y-60930000D02*
X115800000Y-58690000D01*
X115680000Y-60930000D02*
X115680000Y-58690000D01*
X119850000Y-59810000D02*
X119200000Y-59810000D01*
X114310000Y-59810000D02*
X114960000Y-59810000D01*
X119200000Y-60930000D02*
X114960000Y-60930000D01*
X119200000Y-58690000D02*
X119200000Y-60930000D01*
X114960000Y-58690000D02*
X119200000Y-58690000D01*
X114960000Y-60930000D02*
X114960000Y-58690000D01*
X96560000Y-60930000D02*
X96560000Y-58690000D01*
X96800000Y-60930000D02*
X96800000Y-58690000D01*
X96680000Y-60930000D02*
X96680000Y-58690000D01*
X100850000Y-59810000D02*
X100200000Y-59810000D01*
X95310000Y-59810000D02*
X95960000Y-59810000D01*
X100200000Y-60930000D02*
X95960000Y-60930000D01*
X100200000Y-58690000D02*
X100200000Y-60930000D01*
X95960000Y-58690000D02*
X100200000Y-58690000D01*
X95960000Y-60930000D02*
X95960000Y-58690000D01*
X77560000Y-60930000D02*
X77560000Y-58690000D01*
X77800000Y-60930000D02*
X77800000Y-58690000D01*
X77680000Y-60930000D02*
X77680000Y-58690000D01*
X81850000Y-59810000D02*
X81200000Y-59810000D01*
X76310000Y-59810000D02*
X76960000Y-59810000D01*
X81200000Y-60930000D02*
X76960000Y-60930000D01*
X81200000Y-58690000D02*
X81200000Y-60930000D01*
X76960000Y-58690000D02*
X81200000Y-58690000D01*
X76960000Y-60930000D02*
X76960000Y-58690000D01*
X58560000Y-60930000D02*
X58560000Y-58690000D01*
X58800000Y-60930000D02*
X58800000Y-58690000D01*
X58680000Y-60930000D02*
X58680000Y-58690000D01*
X62850000Y-59810000D02*
X62200000Y-59810000D01*
X57310000Y-59810000D02*
X57960000Y-59810000D01*
X62200000Y-60930000D02*
X57960000Y-60930000D01*
X62200000Y-58690000D02*
X62200000Y-60930000D01*
X57960000Y-58690000D02*
X62200000Y-58690000D01*
X57960000Y-60930000D02*
X57960000Y-58690000D01*
X39560000Y-60930000D02*
X39560000Y-58690000D01*
X39800000Y-60930000D02*
X39800000Y-58690000D01*
X39680000Y-60930000D02*
X39680000Y-58690000D01*
X43850000Y-59810000D02*
X43200000Y-59810000D01*
X38310000Y-59810000D02*
X38960000Y-59810000D01*
X43200000Y-60930000D02*
X38960000Y-60930000D01*
X43200000Y-58690000D02*
X43200000Y-60930000D01*
X38960000Y-58690000D02*
X43200000Y-58690000D01*
X38960000Y-60930000D02*
X38960000Y-58690000D01*
X164393333Y-79930000D02*
X164393333Y-77690000D01*
X164633333Y-79930000D02*
X164633333Y-77690000D01*
X164513333Y-79930000D02*
X164513333Y-77690000D01*
X168683333Y-78810000D02*
X168033333Y-78810000D01*
X163143333Y-78810000D02*
X163793333Y-78810000D01*
X168033333Y-79930000D02*
X163793333Y-79930000D01*
X168033333Y-77690000D02*
X168033333Y-79930000D01*
X163793333Y-77690000D02*
X168033333Y-77690000D01*
X163793333Y-79930000D02*
X163793333Y-77690000D01*
X140893333Y-79930000D02*
X140893333Y-77690000D01*
X141133333Y-79930000D02*
X141133333Y-77690000D01*
X141013333Y-79930000D02*
X141013333Y-77690000D01*
X145183333Y-78810000D02*
X144533333Y-78810000D01*
X139643333Y-78810000D02*
X140293333Y-78810000D01*
X144533333Y-79930000D02*
X140293333Y-79930000D01*
X144533333Y-77690000D02*
X144533333Y-79930000D01*
X140293333Y-77690000D02*
X144533333Y-77690000D01*
X140293333Y-79930000D02*
X140293333Y-77690000D01*
X121893333Y-79930000D02*
X121893333Y-77690000D01*
X122133333Y-79930000D02*
X122133333Y-77690000D01*
X122013333Y-79930000D02*
X122013333Y-77690000D01*
X126183333Y-78810000D02*
X125533333Y-78810000D01*
X120643333Y-78810000D02*
X121293333Y-78810000D01*
X125533333Y-79930000D02*
X121293333Y-79930000D01*
X125533333Y-77690000D02*
X125533333Y-79930000D01*
X121293333Y-77690000D02*
X125533333Y-77690000D01*
X121293333Y-79930000D02*
X121293333Y-77690000D01*
X102893333Y-79930000D02*
X102893333Y-77690000D01*
X103133333Y-79930000D02*
X103133333Y-77690000D01*
X103013333Y-79930000D02*
X103013333Y-77690000D01*
X107183333Y-78810000D02*
X106533333Y-78810000D01*
X101643333Y-78810000D02*
X102293333Y-78810000D01*
X106533333Y-79930000D02*
X102293333Y-79930000D01*
X106533333Y-77690000D02*
X106533333Y-79930000D01*
X102293333Y-77690000D02*
X106533333Y-77690000D01*
X102293333Y-79930000D02*
X102293333Y-77690000D01*
X83893333Y-79930000D02*
X83893333Y-77690000D01*
X84133333Y-79930000D02*
X84133333Y-77690000D01*
X84013333Y-79930000D02*
X84013333Y-77690000D01*
X88183333Y-78810000D02*
X87533333Y-78810000D01*
X82643333Y-78810000D02*
X83293333Y-78810000D01*
X87533333Y-79930000D02*
X83293333Y-79930000D01*
X87533333Y-77690000D02*
X87533333Y-79930000D01*
X83293333Y-77690000D02*
X87533333Y-77690000D01*
X83293333Y-79930000D02*
X83293333Y-77690000D01*
X64893333Y-79930000D02*
X64893333Y-77690000D01*
X65133333Y-79930000D02*
X65133333Y-77690000D01*
X65013333Y-79930000D02*
X65013333Y-77690000D01*
X69183333Y-78810000D02*
X68533333Y-78810000D01*
X63643333Y-78810000D02*
X64293333Y-78810000D01*
X68533333Y-79930000D02*
X64293333Y-79930000D01*
X68533333Y-77690000D02*
X68533333Y-79930000D01*
X64293333Y-77690000D02*
X68533333Y-77690000D01*
X64293333Y-79930000D02*
X64293333Y-77690000D01*
X45893333Y-79930000D02*
X45893333Y-77690000D01*
X46133333Y-79930000D02*
X46133333Y-77690000D01*
X46013333Y-79930000D02*
X46013333Y-77690000D01*
X50183333Y-78810000D02*
X49533333Y-78810000D01*
X44643333Y-78810000D02*
X45293333Y-78810000D01*
X49533333Y-79930000D02*
X45293333Y-79930000D01*
X49533333Y-77690000D02*
X49533333Y-79930000D01*
X45293333Y-77690000D02*
X49533333Y-77690000D01*
X45293333Y-79930000D02*
X45293333Y-77690000D01*
X178393333Y-98930000D02*
X178393333Y-96690000D01*
X178633333Y-98930000D02*
X178633333Y-96690000D01*
X178513333Y-98930000D02*
X178513333Y-96690000D01*
X182683333Y-97810000D02*
X182033333Y-97810000D01*
X177143333Y-97810000D02*
X177793333Y-97810000D01*
X182033333Y-98930000D02*
X177793333Y-98930000D01*
X182033333Y-96690000D02*
X182033333Y-98930000D01*
X177793333Y-96690000D02*
X182033333Y-96690000D01*
X177793333Y-98930000D02*
X177793333Y-96690000D01*
X154893333Y-98930000D02*
X154893333Y-96690000D01*
X155133333Y-98930000D02*
X155133333Y-96690000D01*
X155013333Y-98930000D02*
X155013333Y-96690000D01*
X159183333Y-97810000D02*
X158533333Y-97810000D01*
X153643333Y-97810000D02*
X154293333Y-97810000D01*
X158533333Y-98930000D02*
X154293333Y-98930000D01*
X158533333Y-96690000D02*
X158533333Y-98930000D01*
X154293333Y-96690000D02*
X158533333Y-96690000D01*
X154293333Y-98930000D02*
X154293333Y-96690000D01*
X131393333Y-98930000D02*
X131393333Y-96690000D01*
X131633333Y-98930000D02*
X131633333Y-96690000D01*
X131513333Y-98930000D02*
X131513333Y-96690000D01*
X135683333Y-97810000D02*
X135033333Y-97810000D01*
X130143333Y-97810000D02*
X130793333Y-97810000D01*
X135033333Y-98930000D02*
X130793333Y-98930000D01*
X135033333Y-96690000D02*
X135033333Y-98930000D01*
X130793333Y-96690000D02*
X135033333Y-96690000D01*
X130793333Y-98930000D02*
X130793333Y-96690000D01*
X112393333Y-98930000D02*
X112393333Y-96690000D01*
X112633333Y-98930000D02*
X112633333Y-96690000D01*
X112513333Y-98930000D02*
X112513333Y-96690000D01*
X116683333Y-97810000D02*
X116033333Y-97810000D01*
X111143333Y-97810000D02*
X111793333Y-97810000D01*
X116033333Y-98930000D02*
X111793333Y-98930000D01*
X116033333Y-96690000D02*
X116033333Y-98930000D01*
X111793333Y-96690000D02*
X116033333Y-96690000D01*
X111793333Y-98930000D02*
X111793333Y-96690000D01*
X93393333Y-98930000D02*
X93393333Y-96690000D01*
X93633333Y-98930000D02*
X93633333Y-96690000D01*
X93513333Y-98930000D02*
X93513333Y-96690000D01*
X97683333Y-97810000D02*
X97033333Y-97810000D01*
X92143333Y-97810000D02*
X92793333Y-97810000D01*
X97033333Y-98930000D02*
X92793333Y-98930000D01*
X97033333Y-96690000D02*
X97033333Y-98930000D01*
X92793333Y-96690000D02*
X97033333Y-96690000D01*
X92793333Y-98930000D02*
X92793333Y-96690000D01*
X74393333Y-98930000D02*
X74393333Y-96690000D01*
X74633333Y-98930000D02*
X74633333Y-96690000D01*
X74513333Y-98930000D02*
X74513333Y-96690000D01*
X78683333Y-97810000D02*
X78033333Y-97810000D01*
X73143333Y-97810000D02*
X73793333Y-97810000D01*
X78033333Y-98930000D02*
X73793333Y-98930000D01*
X78033333Y-96690000D02*
X78033333Y-98930000D01*
X73793333Y-96690000D02*
X78033333Y-96690000D01*
X73793333Y-98930000D02*
X73793333Y-96690000D01*
X55393333Y-98930000D02*
X55393333Y-96690000D01*
X55633333Y-98930000D02*
X55633333Y-96690000D01*
X55513333Y-98930000D02*
X55513333Y-96690000D01*
X59683333Y-97810000D02*
X59033333Y-97810000D01*
X54143333Y-97810000D02*
X54793333Y-97810000D01*
X59033333Y-98930000D02*
X54793333Y-98930000D01*
X59033333Y-96690000D02*
X59033333Y-98930000D01*
X54793333Y-96690000D02*
X59033333Y-96690000D01*
X54793333Y-98930000D02*
X54793333Y-96690000D01*
X197393333Y-117930000D02*
X197393333Y-115690000D01*
X197633333Y-117930000D02*
X197633333Y-115690000D01*
X197513333Y-117930000D02*
X197513333Y-115690000D01*
X201683333Y-116810000D02*
X201033333Y-116810000D01*
X196143333Y-116810000D02*
X196793333Y-116810000D01*
X201033333Y-117930000D02*
X196793333Y-117930000D01*
X201033333Y-115690000D02*
X201033333Y-117930000D01*
X196793333Y-115690000D02*
X201033333Y-115690000D01*
X196793333Y-117930000D02*
X196793333Y-115690000D01*
X178393333Y-117930000D02*
X178393333Y-115690000D01*
X178633333Y-117930000D02*
X178633333Y-115690000D01*
X178513333Y-117930000D02*
X178513333Y-115690000D01*
X182683333Y-116810000D02*
X182033333Y-116810000D01*
X177143333Y-116810000D02*
X177793333Y-116810000D01*
X182033333Y-117930000D02*
X177793333Y-117930000D01*
X182033333Y-115690000D02*
X182033333Y-117930000D01*
X177793333Y-115690000D02*
X182033333Y-115690000D01*
X177793333Y-117930000D02*
X177793333Y-115690000D01*
X159393333Y-117930000D02*
X159393333Y-115690000D01*
X159633333Y-117930000D02*
X159633333Y-115690000D01*
X159513333Y-117930000D02*
X159513333Y-115690000D01*
X163683333Y-116810000D02*
X163033333Y-116810000D01*
X158143333Y-116810000D02*
X158793333Y-116810000D01*
X163033333Y-117930000D02*
X158793333Y-117930000D01*
X163033333Y-115690000D02*
X163033333Y-117930000D01*
X158793333Y-115690000D02*
X163033333Y-115690000D01*
X158793333Y-117930000D02*
X158793333Y-115690000D01*
X64393333Y-117930000D02*
X64393333Y-115690000D01*
X64633333Y-117930000D02*
X64633333Y-115690000D01*
X64513333Y-117930000D02*
X64513333Y-115690000D01*
X68683333Y-116810000D02*
X68033333Y-116810000D01*
X63143333Y-116810000D02*
X63793333Y-116810000D01*
X68033333Y-117930000D02*
X63793333Y-117930000D01*
X68033333Y-115690000D02*
X68033333Y-117930000D01*
X63793333Y-115690000D02*
X68033333Y-115690000D01*
X63793333Y-117930000D02*
X63793333Y-115690000D01*
D11*
X40376666Y-101112380D02*
X40710000Y-100636190D01*
X40948095Y-101112380D02*
X40948095Y-100112380D01*
X40567142Y-100112380D01*
X40471904Y-100160000D01*
X40424285Y-100207619D01*
X40376666Y-100302857D01*
X40376666Y-100445714D01*
X40424285Y-100540952D01*
X40471904Y-100588571D01*
X40567142Y-100636190D01*
X40948095Y-100636190D01*
X39995714Y-100207619D02*
X39948095Y-100160000D01*
X39852857Y-100112380D01*
X39614761Y-100112380D01*
X39519523Y-100160000D01*
X39471904Y-100207619D01*
X39424285Y-100302857D01*
X39424285Y-100398095D01*
X39471904Y-100540952D01*
X40043333Y-101112380D01*
X39424285Y-101112380D01*
X40327619Y-109546666D02*
X40803809Y-109880000D01*
X40327619Y-110118095D02*
X41327619Y-110118095D01*
X41327619Y-109737142D01*
X41280000Y-109641904D01*
X41232380Y-109594285D01*
X41137142Y-109546666D01*
X40994285Y-109546666D01*
X40899047Y-109594285D01*
X40851428Y-109641904D01*
X40803809Y-109737142D01*
X40803809Y-110118095D01*
X40327619Y-108594285D02*
X40327619Y-109165714D01*
X40327619Y-108880000D02*
X41327619Y-108880000D01*
X41184761Y-108975238D01*
X41089523Y-109070476D01*
X41041904Y-109165714D01*
X171008571Y-43382380D02*
X171008571Y-42382380D01*
X170770476Y-42382380D01*
X170627619Y-42430000D01*
X170532380Y-42525238D01*
X170484761Y-42620476D01*
X170437142Y-42810952D01*
X170437142Y-42953809D01*
X170484761Y-43144285D01*
X170532380Y-43239523D01*
X170627619Y-43334761D01*
X170770476Y-43382380D01*
X171008571Y-43382380D01*
X169580000Y-42715714D02*
X169580000Y-43382380D01*
X169818095Y-42334761D02*
X170056190Y-43049047D01*
X169437142Y-43049047D01*
X169056190Y-43287142D02*
X169008571Y-43334761D01*
X169056190Y-43382380D01*
X169103809Y-43334761D01*
X169056190Y-43287142D01*
X169056190Y-43382380D01*
X169056190Y-42763333D02*
X169008571Y-42810952D01*
X169056190Y-42858571D01*
X169103809Y-42810952D01*
X169056190Y-42763333D01*
X169056190Y-42858571D01*
X168056190Y-43382380D02*
X168627619Y-43382380D01*
X168341904Y-43382380D02*
X168341904Y-42382380D01*
X168437142Y-42525238D01*
X168532380Y-42620476D01*
X168627619Y-42668095D01*
X167722857Y-42382380D02*
X167103809Y-42382380D01*
X167437142Y-42763333D01*
X167294285Y-42763333D01*
X167199047Y-42810952D01*
X167151428Y-42858571D01*
X167103809Y-42953809D01*
X167103809Y-43191904D01*
X167151428Y-43287142D01*
X167199047Y-43334761D01*
X167294285Y-43382380D01*
X167580000Y-43382380D01*
X167675238Y-43334761D01*
X167722857Y-43287142D01*
X165531904Y-43062380D02*
X165531904Y-42062380D01*
X164960476Y-43062380D02*
X165389047Y-42490952D01*
X164960476Y-42062380D02*
X165531904Y-42633809D01*
X147508571Y-43382380D02*
X147508571Y-42382380D01*
X147270476Y-42382380D01*
X147127619Y-42430000D01*
X147032380Y-42525238D01*
X146984761Y-42620476D01*
X146937142Y-42810952D01*
X146937142Y-42953809D01*
X146984761Y-43144285D01*
X147032380Y-43239523D01*
X147127619Y-43334761D01*
X147270476Y-43382380D01*
X147508571Y-43382380D01*
X146080000Y-42715714D02*
X146080000Y-43382380D01*
X146318095Y-42334761D02*
X146556190Y-43049047D01*
X145937142Y-43049047D01*
X145556190Y-43287142D02*
X145508571Y-43334761D01*
X145556190Y-43382380D01*
X145603809Y-43334761D01*
X145556190Y-43287142D01*
X145556190Y-43382380D01*
X145556190Y-42763333D02*
X145508571Y-42810952D01*
X145556190Y-42858571D01*
X145603809Y-42810952D01*
X145556190Y-42763333D01*
X145556190Y-42858571D01*
X144556190Y-43382380D02*
X145127619Y-43382380D01*
X144841904Y-43382380D02*
X144841904Y-42382380D01*
X144937142Y-42525238D01*
X145032380Y-42620476D01*
X145127619Y-42668095D01*
X144175238Y-42477619D02*
X144127619Y-42430000D01*
X144032380Y-42382380D01*
X143794285Y-42382380D01*
X143699047Y-42430000D01*
X143651428Y-42477619D01*
X143603809Y-42572857D01*
X143603809Y-42668095D01*
X143651428Y-42810952D01*
X144222857Y-43382380D01*
X143603809Y-43382380D01*
X142031904Y-43062380D02*
X142031904Y-42062380D01*
X141460476Y-43062380D02*
X141889047Y-42490952D01*
X141460476Y-42062380D02*
X142031904Y-42633809D01*
X128508571Y-43382380D02*
X128508571Y-42382380D01*
X128270476Y-42382380D01*
X128127619Y-42430000D01*
X128032380Y-42525238D01*
X127984761Y-42620476D01*
X127937142Y-42810952D01*
X127937142Y-42953809D01*
X127984761Y-43144285D01*
X128032380Y-43239523D01*
X128127619Y-43334761D01*
X128270476Y-43382380D01*
X128508571Y-43382380D01*
X127080000Y-42715714D02*
X127080000Y-43382380D01*
X127318095Y-42334761D02*
X127556190Y-43049047D01*
X126937142Y-43049047D01*
X126556190Y-43287142D02*
X126508571Y-43334761D01*
X126556190Y-43382380D01*
X126603809Y-43334761D01*
X126556190Y-43287142D01*
X126556190Y-43382380D01*
X126556190Y-42763333D02*
X126508571Y-42810952D01*
X126556190Y-42858571D01*
X126603809Y-42810952D01*
X126556190Y-42763333D01*
X126556190Y-42858571D01*
X125556190Y-43382380D02*
X126127619Y-43382380D01*
X125841904Y-43382380D02*
X125841904Y-42382380D01*
X125937142Y-42525238D01*
X126032380Y-42620476D01*
X126127619Y-42668095D01*
X124603809Y-43382380D02*
X125175238Y-43382380D01*
X124889523Y-43382380D02*
X124889523Y-42382380D01*
X124984761Y-42525238D01*
X125080000Y-42620476D01*
X125175238Y-42668095D01*
X123031904Y-43062380D02*
X123031904Y-42062380D01*
X122460476Y-43062380D02*
X122889047Y-42490952D01*
X122460476Y-42062380D02*
X123031904Y-42633809D01*
X109508571Y-43382380D02*
X109508571Y-42382380D01*
X109270476Y-42382380D01*
X109127619Y-42430000D01*
X109032380Y-42525238D01*
X108984761Y-42620476D01*
X108937142Y-42810952D01*
X108937142Y-42953809D01*
X108984761Y-43144285D01*
X109032380Y-43239523D01*
X109127619Y-43334761D01*
X109270476Y-43382380D01*
X109508571Y-43382380D01*
X108080000Y-42715714D02*
X108080000Y-43382380D01*
X108318095Y-42334761D02*
X108556190Y-43049047D01*
X107937142Y-43049047D01*
X107556190Y-43287142D02*
X107508571Y-43334761D01*
X107556190Y-43382380D01*
X107603809Y-43334761D01*
X107556190Y-43287142D01*
X107556190Y-43382380D01*
X107556190Y-42763333D02*
X107508571Y-42810952D01*
X107556190Y-42858571D01*
X107603809Y-42810952D01*
X107556190Y-42763333D01*
X107556190Y-42858571D01*
X106556190Y-43382380D02*
X107127619Y-43382380D01*
X106841904Y-43382380D02*
X106841904Y-42382380D01*
X106937142Y-42525238D01*
X107032380Y-42620476D01*
X107127619Y-42668095D01*
X105937142Y-42382380D02*
X105841904Y-42382380D01*
X105746666Y-42430000D01*
X105699047Y-42477619D01*
X105651428Y-42572857D01*
X105603809Y-42763333D01*
X105603809Y-43001428D01*
X105651428Y-43191904D01*
X105699047Y-43287142D01*
X105746666Y-43334761D01*
X105841904Y-43382380D01*
X105937142Y-43382380D01*
X106032380Y-43334761D01*
X106080000Y-43287142D01*
X106127619Y-43191904D01*
X106175238Y-43001428D01*
X106175238Y-42763333D01*
X106127619Y-42572857D01*
X106080000Y-42477619D01*
X106032380Y-42430000D01*
X105937142Y-42382380D01*
X104031904Y-43062380D02*
X104031904Y-42062380D01*
X103460476Y-43062380D02*
X103889047Y-42490952D01*
X103460476Y-42062380D02*
X104031904Y-42633809D01*
X90032380Y-43382380D02*
X90032380Y-42382380D01*
X89794285Y-42382380D01*
X89651428Y-42430000D01*
X89556190Y-42525238D01*
X89508571Y-42620476D01*
X89460952Y-42810952D01*
X89460952Y-42953809D01*
X89508571Y-43144285D01*
X89556190Y-43239523D01*
X89651428Y-43334761D01*
X89794285Y-43382380D01*
X90032380Y-43382380D01*
X88603809Y-42715714D02*
X88603809Y-43382380D01*
X88841904Y-42334761D02*
X89080000Y-43049047D01*
X88460952Y-43049047D01*
X88080000Y-43287142D02*
X88032380Y-43334761D01*
X88080000Y-43382380D01*
X88127619Y-43334761D01*
X88080000Y-43287142D01*
X88080000Y-43382380D01*
X88080000Y-42763333D02*
X88032380Y-42810952D01*
X88080000Y-42858571D01*
X88127619Y-42810952D01*
X88080000Y-42763333D01*
X88080000Y-42858571D01*
X87556190Y-43382380D02*
X87365714Y-43382380D01*
X87270476Y-43334761D01*
X87222857Y-43287142D01*
X87127619Y-43144285D01*
X87080000Y-42953809D01*
X87080000Y-42572857D01*
X87127619Y-42477619D01*
X87175238Y-42430000D01*
X87270476Y-42382380D01*
X87460952Y-42382380D01*
X87556190Y-42430000D01*
X87603809Y-42477619D01*
X87651428Y-42572857D01*
X87651428Y-42810952D01*
X87603809Y-42906190D01*
X87556190Y-42953809D01*
X87460952Y-43001428D01*
X87270476Y-43001428D01*
X87175238Y-42953809D01*
X87127619Y-42906190D01*
X87080000Y-42810952D01*
X85031904Y-43062380D02*
X85031904Y-42062380D01*
X84460476Y-43062380D02*
X84889047Y-42490952D01*
X84460476Y-42062380D02*
X85031904Y-42633809D01*
X71032380Y-43382380D02*
X71032380Y-42382380D01*
X70794285Y-42382380D01*
X70651428Y-42430000D01*
X70556190Y-42525238D01*
X70508571Y-42620476D01*
X70460952Y-42810952D01*
X70460952Y-42953809D01*
X70508571Y-43144285D01*
X70556190Y-43239523D01*
X70651428Y-43334761D01*
X70794285Y-43382380D01*
X71032380Y-43382380D01*
X69603809Y-42715714D02*
X69603809Y-43382380D01*
X69841904Y-42334761D02*
X70080000Y-43049047D01*
X69460952Y-43049047D01*
X69080000Y-43287142D02*
X69032380Y-43334761D01*
X69080000Y-43382380D01*
X69127619Y-43334761D01*
X69080000Y-43287142D01*
X69080000Y-43382380D01*
X69080000Y-42763333D02*
X69032380Y-42810952D01*
X69080000Y-42858571D01*
X69127619Y-42810952D01*
X69080000Y-42763333D01*
X69080000Y-42858571D01*
X68460952Y-42810952D02*
X68556190Y-42763333D01*
X68603809Y-42715714D01*
X68651428Y-42620476D01*
X68651428Y-42572857D01*
X68603809Y-42477619D01*
X68556190Y-42430000D01*
X68460952Y-42382380D01*
X68270476Y-42382380D01*
X68175238Y-42430000D01*
X68127619Y-42477619D01*
X68080000Y-42572857D01*
X68080000Y-42620476D01*
X68127619Y-42715714D01*
X68175238Y-42763333D01*
X68270476Y-42810952D01*
X68460952Y-42810952D01*
X68556190Y-42858571D01*
X68603809Y-42906190D01*
X68651428Y-43001428D01*
X68651428Y-43191904D01*
X68603809Y-43287142D01*
X68556190Y-43334761D01*
X68460952Y-43382380D01*
X68270476Y-43382380D01*
X68175238Y-43334761D01*
X68127619Y-43287142D01*
X68080000Y-43191904D01*
X68080000Y-43001428D01*
X68127619Y-42906190D01*
X68175238Y-42858571D01*
X68270476Y-42810952D01*
X66031904Y-43062380D02*
X66031904Y-42062380D01*
X65460476Y-43062380D02*
X65889047Y-42490952D01*
X65460476Y-42062380D02*
X66031904Y-42633809D01*
X52032380Y-43382380D02*
X52032380Y-42382380D01*
X51794285Y-42382380D01*
X51651428Y-42430000D01*
X51556190Y-42525238D01*
X51508571Y-42620476D01*
X51460952Y-42810952D01*
X51460952Y-42953809D01*
X51508571Y-43144285D01*
X51556190Y-43239523D01*
X51651428Y-43334761D01*
X51794285Y-43382380D01*
X52032380Y-43382380D01*
X50603809Y-42715714D02*
X50603809Y-43382380D01*
X50841904Y-42334761D02*
X51080000Y-43049047D01*
X50460952Y-43049047D01*
X50079999Y-43287142D02*
X50032380Y-43334761D01*
X50079999Y-43382380D01*
X50127619Y-43334761D01*
X50079999Y-43287142D01*
X50079999Y-43382380D01*
X50079999Y-42763333D02*
X50032380Y-42810952D01*
X50079999Y-42858571D01*
X50127619Y-42810952D01*
X50079999Y-42763333D01*
X50079999Y-42858571D01*
X49699047Y-42382380D02*
X49032380Y-42382380D01*
X49460952Y-43382380D01*
X47031904Y-43062380D02*
X47031904Y-42062380D01*
X46460476Y-43062380D02*
X46889047Y-42490952D01*
X46460476Y-42062380D02*
X47031904Y-42633809D01*
X176008571Y-62382380D02*
X176008571Y-61382380D01*
X175770476Y-61382380D01*
X175627619Y-61430000D01*
X175532380Y-61525238D01*
X175484761Y-61620476D01*
X175437142Y-61810952D01*
X175437142Y-61953809D01*
X175484761Y-62144285D01*
X175532380Y-62239523D01*
X175627619Y-62334761D01*
X175770476Y-62382380D01*
X176008571Y-62382380D01*
X175103809Y-61382380D02*
X174484761Y-61382380D01*
X174818095Y-61763333D01*
X174675238Y-61763333D01*
X174580000Y-61810952D01*
X174532380Y-61858571D01*
X174484761Y-61953809D01*
X174484761Y-62191904D01*
X174532380Y-62287142D01*
X174580000Y-62334761D01*
X174675238Y-62382380D01*
X174960952Y-62382380D01*
X175056190Y-62334761D01*
X175103809Y-62287142D01*
X174056190Y-62287142D02*
X174008571Y-62334761D01*
X174056190Y-62382380D01*
X174103809Y-62334761D01*
X174056190Y-62287142D01*
X174056190Y-62382380D01*
X174056190Y-61763333D02*
X174008571Y-61810952D01*
X174056190Y-61858571D01*
X174103809Y-61810952D01*
X174056190Y-61763333D01*
X174056190Y-61858571D01*
X173056190Y-62382380D02*
X173627619Y-62382380D01*
X173341904Y-62382380D02*
X173341904Y-61382380D01*
X173437142Y-61525238D01*
X173532380Y-61620476D01*
X173627619Y-61668095D01*
X172199047Y-61715714D02*
X172199047Y-62382380D01*
X172437142Y-61334761D02*
X172675238Y-62049047D01*
X172056190Y-62049047D01*
X170531904Y-62062380D02*
X170531904Y-61062380D01*
X169960476Y-62062380D02*
X170389047Y-61490952D01*
X169960476Y-61062380D02*
X170531904Y-61633809D01*
X157008571Y-62382380D02*
X157008571Y-61382380D01*
X156770476Y-61382380D01*
X156627619Y-61430000D01*
X156532380Y-61525238D01*
X156484761Y-61620476D01*
X156437142Y-61810952D01*
X156437142Y-61953809D01*
X156484761Y-62144285D01*
X156532380Y-62239523D01*
X156627619Y-62334761D01*
X156770476Y-62382380D01*
X157008571Y-62382380D01*
X156103809Y-61382380D02*
X155484761Y-61382380D01*
X155818095Y-61763333D01*
X155675238Y-61763333D01*
X155580000Y-61810952D01*
X155532380Y-61858571D01*
X155484761Y-61953809D01*
X155484761Y-62191904D01*
X155532380Y-62287142D01*
X155580000Y-62334761D01*
X155675238Y-62382380D01*
X155960952Y-62382380D01*
X156056190Y-62334761D01*
X156103809Y-62287142D01*
X155056190Y-62287142D02*
X155008571Y-62334761D01*
X155056190Y-62382380D01*
X155103809Y-62334761D01*
X155056190Y-62287142D01*
X155056190Y-62382380D01*
X155056190Y-61763333D02*
X155008571Y-61810952D01*
X155056190Y-61858571D01*
X155103809Y-61810952D01*
X155056190Y-61763333D01*
X155056190Y-61858571D01*
X154056190Y-62382380D02*
X154627619Y-62382380D01*
X154341904Y-62382380D02*
X154341904Y-61382380D01*
X154437142Y-61525238D01*
X154532380Y-61620476D01*
X154627619Y-61668095D01*
X153722857Y-61382380D02*
X153103809Y-61382380D01*
X153437142Y-61763333D01*
X153294285Y-61763333D01*
X153199047Y-61810952D01*
X153151428Y-61858571D01*
X153103809Y-61953809D01*
X153103809Y-62191904D01*
X153151428Y-62287142D01*
X153199047Y-62334761D01*
X153294285Y-62382380D01*
X153580000Y-62382380D01*
X153675238Y-62334761D01*
X153722857Y-62287142D01*
X151531904Y-62062380D02*
X151531904Y-61062380D01*
X150960476Y-62062380D02*
X151389047Y-61490952D01*
X150960476Y-61062380D02*
X151531904Y-61633809D01*
X138008571Y-62382380D02*
X138008571Y-61382380D01*
X137770476Y-61382380D01*
X137627619Y-61430000D01*
X137532380Y-61525238D01*
X137484761Y-61620476D01*
X137437142Y-61810952D01*
X137437142Y-61953809D01*
X137484761Y-62144285D01*
X137532380Y-62239523D01*
X137627619Y-62334761D01*
X137770476Y-62382380D01*
X138008571Y-62382380D01*
X137103809Y-61382380D02*
X136484761Y-61382380D01*
X136818095Y-61763333D01*
X136675238Y-61763333D01*
X136580000Y-61810952D01*
X136532380Y-61858571D01*
X136484761Y-61953809D01*
X136484761Y-62191904D01*
X136532380Y-62287142D01*
X136580000Y-62334761D01*
X136675238Y-62382380D01*
X136960952Y-62382380D01*
X137056190Y-62334761D01*
X137103809Y-62287142D01*
X136056190Y-62287142D02*
X136008571Y-62334761D01*
X136056190Y-62382380D01*
X136103809Y-62334761D01*
X136056190Y-62287142D01*
X136056190Y-62382380D01*
X136056190Y-61763333D02*
X136008571Y-61810952D01*
X136056190Y-61858571D01*
X136103809Y-61810952D01*
X136056190Y-61763333D01*
X136056190Y-61858571D01*
X135056190Y-62382380D02*
X135627619Y-62382380D01*
X135341904Y-62382380D02*
X135341904Y-61382380D01*
X135437142Y-61525238D01*
X135532380Y-61620476D01*
X135627619Y-61668095D01*
X134675238Y-61477619D02*
X134627619Y-61430000D01*
X134532380Y-61382380D01*
X134294285Y-61382380D01*
X134199047Y-61430000D01*
X134151428Y-61477619D01*
X134103809Y-61572857D01*
X134103809Y-61668095D01*
X134151428Y-61810952D01*
X134722857Y-62382380D01*
X134103809Y-62382380D01*
X132531904Y-62062380D02*
X132531904Y-61062380D01*
X131960476Y-62062380D02*
X132389047Y-61490952D01*
X131960476Y-61062380D02*
X132531904Y-61633809D01*
X119008571Y-62382380D02*
X119008571Y-61382380D01*
X118770476Y-61382380D01*
X118627619Y-61430000D01*
X118532380Y-61525238D01*
X118484761Y-61620476D01*
X118437142Y-61810952D01*
X118437142Y-61953809D01*
X118484761Y-62144285D01*
X118532380Y-62239523D01*
X118627619Y-62334761D01*
X118770476Y-62382380D01*
X119008571Y-62382380D01*
X118103809Y-61382380D02*
X117484761Y-61382380D01*
X117818095Y-61763333D01*
X117675238Y-61763333D01*
X117580000Y-61810952D01*
X117532380Y-61858571D01*
X117484761Y-61953809D01*
X117484761Y-62191904D01*
X117532380Y-62287142D01*
X117580000Y-62334761D01*
X117675238Y-62382380D01*
X117960952Y-62382380D01*
X118056190Y-62334761D01*
X118103809Y-62287142D01*
X117056190Y-62287142D02*
X117008571Y-62334761D01*
X117056190Y-62382380D01*
X117103809Y-62334761D01*
X117056190Y-62287142D01*
X117056190Y-62382380D01*
X117056190Y-61763333D02*
X117008571Y-61810952D01*
X117056190Y-61858571D01*
X117103809Y-61810952D01*
X117056190Y-61763333D01*
X117056190Y-61858571D01*
X116056190Y-62382380D02*
X116627619Y-62382380D01*
X116341904Y-62382380D02*
X116341904Y-61382380D01*
X116437142Y-61525238D01*
X116532380Y-61620476D01*
X116627619Y-61668095D01*
X115103809Y-62382380D02*
X115675238Y-62382380D01*
X115389523Y-62382380D02*
X115389523Y-61382380D01*
X115484761Y-61525238D01*
X115580000Y-61620476D01*
X115675238Y-61668095D01*
X113531904Y-62062380D02*
X113531904Y-61062380D01*
X112960476Y-62062380D02*
X113389047Y-61490952D01*
X112960476Y-61062380D02*
X113531904Y-61633809D01*
X100008571Y-62382380D02*
X100008571Y-61382380D01*
X99770476Y-61382380D01*
X99627619Y-61430000D01*
X99532380Y-61525238D01*
X99484761Y-61620476D01*
X99437142Y-61810952D01*
X99437142Y-61953809D01*
X99484761Y-62144285D01*
X99532380Y-62239523D01*
X99627619Y-62334761D01*
X99770476Y-62382380D01*
X100008571Y-62382380D01*
X99103809Y-61382380D02*
X98484761Y-61382380D01*
X98818095Y-61763333D01*
X98675238Y-61763333D01*
X98580000Y-61810952D01*
X98532380Y-61858571D01*
X98484761Y-61953809D01*
X98484761Y-62191904D01*
X98532380Y-62287142D01*
X98580000Y-62334761D01*
X98675238Y-62382380D01*
X98960952Y-62382380D01*
X99056190Y-62334761D01*
X99103809Y-62287142D01*
X98056190Y-62287142D02*
X98008571Y-62334761D01*
X98056190Y-62382380D01*
X98103809Y-62334761D01*
X98056190Y-62287142D01*
X98056190Y-62382380D01*
X98056190Y-61763333D02*
X98008571Y-61810952D01*
X98056190Y-61858571D01*
X98103809Y-61810952D01*
X98056190Y-61763333D01*
X98056190Y-61858571D01*
X97056190Y-62382380D02*
X97627619Y-62382380D01*
X97341904Y-62382380D02*
X97341904Y-61382380D01*
X97437142Y-61525238D01*
X97532380Y-61620476D01*
X97627619Y-61668095D01*
X96437142Y-61382380D02*
X96341904Y-61382380D01*
X96246666Y-61430000D01*
X96199047Y-61477619D01*
X96151428Y-61572857D01*
X96103809Y-61763333D01*
X96103809Y-62001428D01*
X96151428Y-62191904D01*
X96199047Y-62287142D01*
X96246666Y-62334761D01*
X96341904Y-62382380D01*
X96437142Y-62382380D01*
X96532380Y-62334761D01*
X96580000Y-62287142D01*
X96627619Y-62191904D01*
X96675238Y-62001428D01*
X96675238Y-61763333D01*
X96627619Y-61572857D01*
X96580000Y-61477619D01*
X96532380Y-61430000D01*
X96437142Y-61382380D01*
X94531904Y-62062380D02*
X94531904Y-61062380D01*
X93960476Y-62062380D02*
X94389047Y-61490952D01*
X93960476Y-61062380D02*
X94531904Y-61633809D01*
X80532380Y-62382380D02*
X80532380Y-61382380D01*
X80294285Y-61382380D01*
X80151428Y-61430000D01*
X80056190Y-61525238D01*
X80008571Y-61620476D01*
X79960952Y-61810952D01*
X79960952Y-61953809D01*
X80008571Y-62144285D01*
X80056190Y-62239523D01*
X80151428Y-62334761D01*
X80294285Y-62382380D01*
X80532380Y-62382380D01*
X79627619Y-61382380D02*
X79008571Y-61382380D01*
X79341904Y-61763333D01*
X79199047Y-61763333D01*
X79103809Y-61810952D01*
X79056190Y-61858571D01*
X79008571Y-61953809D01*
X79008571Y-62191904D01*
X79056190Y-62287142D01*
X79103809Y-62334761D01*
X79199047Y-62382380D01*
X79484761Y-62382380D01*
X79580000Y-62334761D01*
X79627619Y-62287142D01*
X78580000Y-62287142D02*
X78532380Y-62334761D01*
X78580000Y-62382380D01*
X78627619Y-62334761D01*
X78580000Y-62287142D01*
X78580000Y-62382380D01*
X78580000Y-61763333D02*
X78532380Y-61810952D01*
X78580000Y-61858571D01*
X78627619Y-61810952D01*
X78580000Y-61763333D01*
X78580000Y-61858571D01*
X78056190Y-62382380D02*
X77865714Y-62382380D01*
X77770476Y-62334761D01*
X77722857Y-62287142D01*
X77627619Y-62144285D01*
X77580000Y-61953809D01*
X77580000Y-61572857D01*
X77627619Y-61477619D01*
X77675238Y-61430000D01*
X77770476Y-61382380D01*
X77960952Y-61382380D01*
X78056190Y-61430000D01*
X78103809Y-61477619D01*
X78151428Y-61572857D01*
X78151428Y-61810952D01*
X78103809Y-61906190D01*
X78056190Y-61953809D01*
X77960952Y-62001428D01*
X77770476Y-62001428D01*
X77675238Y-61953809D01*
X77627619Y-61906190D01*
X77580000Y-61810952D01*
X75531904Y-62062380D02*
X75531904Y-61062380D01*
X74960476Y-62062380D02*
X75389047Y-61490952D01*
X74960476Y-61062380D02*
X75531904Y-61633809D01*
X61532380Y-62382380D02*
X61532380Y-61382380D01*
X61294285Y-61382380D01*
X61151428Y-61430000D01*
X61056190Y-61525238D01*
X61008571Y-61620476D01*
X60960952Y-61810952D01*
X60960952Y-61953809D01*
X61008571Y-62144285D01*
X61056190Y-62239523D01*
X61151428Y-62334761D01*
X61294285Y-62382380D01*
X61532380Y-62382380D01*
X60627619Y-61382380D02*
X60008571Y-61382380D01*
X60341904Y-61763333D01*
X60199047Y-61763333D01*
X60103809Y-61810952D01*
X60056190Y-61858571D01*
X60008571Y-61953809D01*
X60008571Y-62191904D01*
X60056190Y-62287142D01*
X60103809Y-62334761D01*
X60199047Y-62382380D01*
X60484761Y-62382380D01*
X60580000Y-62334761D01*
X60627619Y-62287142D01*
X59579999Y-62287142D02*
X59532380Y-62334761D01*
X59579999Y-62382380D01*
X59627619Y-62334761D01*
X59579999Y-62287142D01*
X59579999Y-62382380D01*
X59579999Y-61763333D02*
X59532380Y-61810952D01*
X59579999Y-61858571D01*
X59627619Y-61810952D01*
X59579999Y-61763333D01*
X59579999Y-61858571D01*
X58960952Y-61810952D02*
X59056190Y-61763333D01*
X59103809Y-61715714D01*
X59151428Y-61620476D01*
X59151428Y-61572857D01*
X59103809Y-61477619D01*
X59056190Y-61430000D01*
X58960952Y-61382380D01*
X58770476Y-61382380D01*
X58675238Y-61430000D01*
X58627619Y-61477619D01*
X58579999Y-61572857D01*
X58579999Y-61620476D01*
X58627619Y-61715714D01*
X58675238Y-61763333D01*
X58770476Y-61810952D01*
X58960952Y-61810952D01*
X59056190Y-61858571D01*
X59103809Y-61906190D01*
X59151428Y-62001428D01*
X59151428Y-62191904D01*
X59103809Y-62287142D01*
X59056190Y-62334761D01*
X58960952Y-62382380D01*
X58770476Y-62382380D01*
X58675238Y-62334761D01*
X58627619Y-62287142D01*
X58579999Y-62191904D01*
X58579999Y-62001428D01*
X58627619Y-61906190D01*
X58675238Y-61858571D01*
X58770476Y-61810952D01*
X56531904Y-62062380D02*
X56531904Y-61062380D01*
X55960476Y-62062380D02*
X56389047Y-61490952D01*
X55960476Y-61062380D02*
X56531904Y-61633809D01*
X42532380Y-62382380D02*
X42532380Y-61382380D01*
X42294285Y-61382380D01*
X42151428Y-61430000D01*
X42056190Y-61525238D01*
X42008571Y-61620476D01*
X41960952Y-61810952D01*
X41960952Y-61953809D01*
X42008571Y-62144285D01*
X42056190Y-62239523D01*
X42151428Y-62334761D01*
X42294285Y-62382380D01*
X42532380Y-62382380D01*
X41627619Y-61382380D02*
X41008571Y-61382380D01*
X41341904Y-61763333D01*
X41199047Y-61763333D01*
X41103809Y-61810952D01*
X41056190Y-61858571D01*
X41008571Y-61953809D01*
X41008571Y-62191904D01*
X41056190Y-62287142D01*
X41103809Y-62334761D01*
X41199047Y-62382380D01*
X41484761Y-62382380D01*
X41580000Y-62334761D01*
X41627619Y-62287142D01*
X40579999Y-62287142D02*
X40532380Y-62334761D01*
X40579999Y-62382380D01*
X40627619Y-62334761D01*
X40579999Y-62287142D01*
X40579999Y-62382380D01*
X40579999Y-61763333D02*
X40532380Y-61810952D01*
X40579999Y-61858571D01*
X40627619Y-61810952D01*
X40579999Y-61763333D01*
X40579999Y-61858571D01*
X40199047Y-61382380D02*
X39532380Y-61382380D01*
X39960952Y-62382380D01*
X37531904Y-62062380D02*
X37531904Y-61062380D01*
X36960476Y-62062380D02*
X37389047Y-61490952D01*
X36960476Y-61062380D02*
X37531904Y-61633809D01*
X167841904Y-81382380D02*
X167841904Y-80382380D01*
X167603809Y-80382380D01*
X167460952Y-80430000D01*
X167365713Y-80525238D01*
X167318094Y-80620476D01*
X167270475Y-80810952D01*
X167270475Y-80953809D01*
X167318094Y-81144285D01*
X167365713Y-81239523D01*
X167460952Y-81334761D01*
X167603809Y-81382380D01*
X167841904Y-81382380D01*
X166889523Y-80477619D02*
X166841904Y-80430000D01*
X166746666Y-80382380D01*
X166508571Y-80382380D01*
X166413333Y-80430000D01*
X166365713Y-80477619D01*
X166318094Y-80572857D01*
X166318094Y-80668095D01*
X166365713Y-80810952D01*
X166937142Y-81382380D01*
X166318094Y-81382380D01*
X165889523Y-81287142D02*
X165841904Y-81334761D01*
X165889523Y-81382380D01*
X165937142Y-81334761D01*
X165889523Y-81287142D01*
X165889523Y-81382380D01*
X165889523Y-80763333D02*
X165841904Y-80810952D01*
X165889523Y-80858571D01*
X165937142Y-80810952D01*
X165889523Y-80763333D01*
X165889523Y-80858571D01*
X164889523Y-81382380D02*
X165460952Y-81382380D01*
X165175237Y-81382380D02*
X165175237Y-80382380D01*
X165270475Y-80525238D01*
X165365713Y-80620476D01*
X165460952Y-80668095D01*
X164556190Y-80382380D02*
X163937142Y-80382380D01*
X164270475Y-80763333D01*
X164127618Y-80763333D01*
X164032380Y-80810952D01*
X163984761Y-80858571D01*
X163937142Y-80953809D01*
X163937142Y-81191904D01*
X163984761Y-81287142D01*
X164032380Y-81334761D01*
X164127618Y-81382380D01*
X164413333Y-81382380D01*
X164508571Y-81334761D01*
X164556190Y-81287142D01*
X162365237Y-81062380D02*
X162365237Y-80062380D01*
X161793809Y-81062380D02*
X162222380Y-80490952D01*
X161793809Y-80062380D02*
X162365237Y-80633809D01*
X144341904Y-81382380D02*
X144341904Y-80382380D01*
X144103809Y-80382380D01*
X143960952Y-80430000D01*
X143865713Y-80525238D01*
X143818094Y-80620476D01*
X143770475Y-80810952D01*
X143770475Y-80953809D01*
X143818094Y-81144285D01*
X143865713Y-81239523D01*
X143960952Y-81334761D01*
X144103809Y-81382380D01*
X144341904Y-81382380D01*
X143389523Y-80477619D02*
X143341904Y-80430000D01*
X143246666Y-80382380D01*
X143008571Y-80382380D01*
X142913333Y-80430000D01*
X142865713Y-80477619D01*
X142818094Y-80572857D01*
X142818094Y-80668095D01*
X142865713Y-80810952D01*
X143437142Y-81382380D01*
X142818094Y-81382380D01*
X142389523Y-81287142D02*
X142341904Y-81334761D01*
X142389523Y-81382380D01*
X142437142Y-81334761D01*
X142389523Y-81287142D01*
X142389523Y-81382380D01*
X142389523Y-80763333D02*
X142341904Y-80810952D01*
X142389523Y-80858571D01*
X142437142Y-80810952D01*
X142389523Y-80763333D01*
X142389523Y-80858571D01*
X141389523Y-81382380D02*
X141960952Y-81382380D01*
X141675237Y-81382380D02*
X141675237Y-80382380D01*
X141770475Y-80525238D01*
X141865713Y-80620476D01*
X141960952Y-80668095D01*
X141008571Y-80477619D02*
X140960952Y-80430000D01*
X140865713Y-80382380D01*
X140627618Y-80382380D01*
X140532380Y-80430000D01*
X140484761Y-80477619D01*
X140437142Y-80572857D01*
X140437142Y-80668095D01*
X140484761Y-80810952D01*
X141056190Y-81382380D01*
X140437142Y-81382380D01*
X138865237Y-81062380D02*
X138865237Y-80062380D01*
X138293809Y-81062380D02*
X138722380Y-80490952D01*
X138293809Y-80062380D02*
X138865237Y-80633809D01*
X125341904Y-81382380D02*
X125341904Y-80382380D01*
X125103809Y-80382380D01*
X124960952Y-80430000D01*
X124865713Y-80525238D01*
X124818094Y-80620476D01*
X124770475Y-80810952D01*
X124770475Y-80953809D01*
X124818094Y-81144285D01*
X124865713Y-81239523D01*
X124960952Y-81334761D01*
X125103809Y-81382380D01*
X125341904Y-81382380D01*
X124389523Y-80477619D02*
X124341904Y-80430000D01*
X124246666Y-80382380D01*
X124008571Y-80382380D01*
X123913333Y-80430000D01*
X123865713Y-80477619D01*
X123818094Y-80572857D01*
X123818094Y-80668095D01*
X123865713Y-80810952D01*
X124437142Y-81382380D01*
X123818094Y-81382380D01*
X123389523Y-81287142D02*
X123341904Y-81334761D01*
X123389523Y-81382380D01*
X123437142Y-81334761D01*
X123389523Y-81287142D01*
X123389523Y-81382380D01*
X123389523Y-80763333D02*
X123341904Y-80810952D01*
X123389523Y-80858571D01*
X123437142Y-80810952D01*
X123389523Y-80763333D01*
X123389523Y-80858571D01*
X122389523Y-81382380D02*
X122960952Y-81382380D01*
X122675237Y-81382380D02*
X122675237Y-80382380D01*
X122770475Y-80525238D01*
X122865713Y-80620476D01*
X122960952Y-80668095D01*
X121437142Y-81382380D02*
X122008571Y-81382380D01*
X121722856Y-81382380D02*
X121722856Y-80382380D01*
X121818094Y-80525238D01*
X121913333Y-80620476D01*
X122008571Y-80668095D01*
X119865237Y-81062380D02*
X119865237Y-80062380D01*
X119293809Y-81062380D02*
X119722380Y-80490952D01*
X119293809Y-80062380D02*
X119865237Y-80633809D01*
X106341904Y-81382380D02*
X106341904Y-80382380D01*
X106103809Y-80382380D01*
X105960952Y-80430000D01*
X105865713Y-80525238D01*
X105818094Y-80620476D01*
X105770475Y-80810952D01*
X105770475Y-80953809D01*
X105818094Y-81144285D01*
X105865713Y-81239523D01*
X105960952Y-81334761D01*
X106103809Y-81382380D01*
X106341904Y-81382380D01*
X105389523Y-80477619D02*
X105341904Y-80430000D01*
X105246666Y-80382380D01*
X105008571Y-80382380D01*
X104913333Y-80430000D01*
X104865713Y-80477619D01*
X104818094Y-80572857D01*
X104818094Y-80668095D01*
X104865713Y-80810952D01*
X105437142Y-81382380D01*
X104818094Y-81382380D01*
X104389523Y-81287142D02*
X104341904Y-81334761D01*
X104389523Y-81382380D01*
X104437142Y-81334761D01*
X104389523Y-81287142D01*
X104389523Y-81382380D01*
X104389523Y-80763333D02*
X104341904Y-80810952D01*
X104389523Y-80858571D01*
X104437142Y-80810952D01*
X104389523Y-80763333D01*
X104389523Y-80858571D01*
X103389523Y-81382380D02*
X103960952Y-81382380D01*
X103675237Y-81382380D02*
X103675237Y-80382380D01*
X103770475Y-80525238D01*
X103865713Y-80620476D01*
X103960952Y-80668095D01*
X102770475Y-80382380D02*
X102675237Y-80382380D01*
X102579999Y-80430000D01*
X102532380Y-80477619D01*
X102484761Y-80572857D01*
X102437142Y-80763333D01*
X102437142Y-81001428D01*
X102484761Y-81191904D01*
X102532380Y-81287142D01*
X102579999Y-81334761D01*
X102675237Y-81382380D01*
X102770475Y-81382380D01*
X102865713Y-81334761D01*
X102913333Y-81287142D01*
X102960952Y-81191904D01*
X103008571Y-81001428D01*
X103008571Y-80763333D01*
X102960952Y-80572857D01*
X102913333Y-80477619D01*
X102865713Y-80430000D01*
X102770475Y-80382380D01*
X100865237Y-81062380D02*
X100865237Y-80062380D01*
X100293809Y-81062380D02*
X100722380Y-80490952D01*
X100293809Y-80062380D02*
X100865237Y-80633809D01*
X86865713Y-81382380D02*
X86865713Y-80382380D01*
X86627618Y-80382380D01*
X86484761Y-80430000D01*
X86389523Y-80525238D01*
X86341904Y-80620476D01*
X86294285Y-80810952D01*
X86294285Y-80953809D01*
X86341904Y-81144285D01*
X86389523Y-81239523D01*
X86484761Y-81334761D01*
X86627618Y-81382380D01*
X86865713Y-81382380D01*
X85913333Y-80477619D02*
X85865713Y-80430000D01*
X85770475Y-80382380D01*
X85532380Y-80382380D01*
X85437142Y-80430000D01*
X85389523Y-80477619D01*
X85341904Y-80572857D01*
X85341904Y-80668095D01*
X85389523Y-80810952D01*
X85960952Y-81382380D01*
X85341904Y-81382380D01*
X84913333Y-81287142D02*
X84865713Y-81334761D01*
X84913333Y-81382380D01*
X84960952Y-81334761D01*
X84913333Y-81287142D01*
X84913333Y-81382380D01*
X84913333Y-80763333D02*
X84865713Y-80810952D01*
X84913333Y-80858571D01*
X84960952Y-80810952D01*
X84913333Y-80763333D01*
X84913333Y-80858571D01*
X84389523Y-81382380D02*
X84199047Y-81382380D01*
X84103809Y-81334761D01*
X84056190Y-81287142D01*
X83960952Y-81144285D01*
X83913333Y-80953809D01*
X83913333Y-80572857D01*
X83960952Y-80477619D01*
X84008571Y-80430000D01*
X84103809Y-80382380D01*
X84294285Y-80382380D01*
X84389523Y-80430000D01*
X84437142Y-80477619D01*
X84484761Y-80572857D01*
X84484761Y-80810952D01*
X84437142Y-80906190D01*
X84389523Y-80953809D01*
X84294285Y-81001428D01*
X84103809Y-81001428D01*
X84008571Y-80953809D01*
X83960952Y-80906190D01*
X83913333Y-80810952D01*
X81865237Y-81062380D02*
X81865237Y-80062380D01*
X81293809Y-81062380D02*
X81722380Y-80490952D01*
X81293809Y-80062380D02*
X81865237Y-80633809D01*
X67865713Y-81382380D02*
X67865713Y-80382380D01*
X67627618Y-80382380D01*
X67484761Y-80430000D01*
X67389523Y-80525238D01*
X67341904Y-80620476D01*
X67294285Y-80810952D01*
X67294285Y-80953809D01*
X67341904Y-81144285D01*
X67389523Y-81239523D01*
X67484761Y-81334761D01*
X67627618Y-81382380D01*
X67865713Y-81382380D01*
X66913333Y-80477619D02*
X66865713Y-80430000D01*
X66770475Y-80382380D01*
X66532380Y-80382380D01*
X66437142Y-80430000D01*
X66389523Y-80477619D01*
X66341904Y-80572857D01*
X66341904Y-80668095D01*
X66389523Y-80810952D01*
X66960952Y-81382380D01*
X66341904Y-81382380D01*
X65913332Y-81287142D02*
X65865713Y-81334761D01*
X65913332Y-81382380D01*
X65960952Y-81334761D01*
X65913332Y-81287142D01*
X65913332Y-81382380D01*
X65913332Y-80763333D02*
X65865713Y-80810952D01*
X65913332Y-80858571D01*
X65960952Y-80810952D01*
X65913332Y-80763333D01*
X65913332Y-80858571D01*
X65294285Y-80810952D02*
X65389523Y-80763333D01*
X65437142Y-80715714D01*
X65484761Y-80620476D01*
X65484761Y-80572857D01*
X65437142Y-80477619D01*
X65389523Y-80430000D01*
X65294285Y-80382380D01*
X65103809Y-80382380D01*
X65008571Y-80430000D01*
X64960952Y-80477619D01*
X64913332Y-80572857D01*
X64913332Y-80620476D01*
X64960952Y-80715714D01*
X65008571Y-80763333D01*
X65103809Y-80810952D01*
X65294285Y-80810952D01*
X65389523Y-80858571D01*
X65437142Y-80906190D01*
X65484761Y-81001428D01*
X65484761Y-81191904D01*
X65437142Y-81287142D01*
X65389523Y-81334761D01*
X65294285Y-81382380D01*
X65103809Y-81382380D01*
X65008571Y-81334761D01*
X64960952Y-81287142D01*
X64913332Y-81191904D01*
X64913332Y-81001428D01*
X64960952Y-80906190D01*
X65008571Y-80858571D01*
X65103809Y-80810952D01*
X62865237Y-81062380D02*
X62865237Y-80062380D01*
X62293809Y-81062380D02*
X62722380Y-80490952D01*
X62293809Y-80062380D02*
X62865237Y-80633809D01*
X48865713Y-81382380D02*
X48865713Y-80382380D01*
X48627618Y-80382380D01*
X48484761Y-80430000D01*
X48389523Y-80525238D01*
X48341904Y-80620476D01*
X48294285Y-80810952D01*
X48294285Y-80953809D01*
X48341904Y-81144285D01*
X48389523Y-81239523D01*
X48484761Y-81334761D01*
X48627618Y-81382380D01*
X48865713Y-81382380D01*
X47913333Y-80477619D02*
X47865713Y-80430000D01*
X47770475Y-80382380D01*
X47532380Y-80382380D01*
X47437142Y-80430000D01*
X47389523Y-80477619D01*
X47341904Y-80572857D01*
X47341904Y-80668095D01*
X47389523Y-80810952D01*
X47960952Y-81382380D01*
X47341904Y-81382380D01*
X46913332Y-81287142D02*
X46865713Y-81334761D01*
X46913332Y-81382380D01*
X46960952Y-81334761D01*
X46913332Y-81287142D01*
X46913332Y-81382380D01*
X46913332Y-80763333D02*
X46865713Y-80810952D01*
X46913332Y-80858571D01*
X46960952Y-80810952D01*
X46913332Y-80763333D01*
X46913332Y-80858571D01*
X46532380Y-80382380D02*
X45865713Y-80382380D01*
X46294285Y-81382380D01*
X43865237Y-81062380D02*
X43865237Y-80062380D01*
X43293809Y-81062380D02*
X43722380Y-80490952D01*
X43293809Y-80062380D02*
X43865237Y-80633809D01*
X181841904Y-100382380D02*
X181841904Y-99382380D01*
X181603809Y-99382380D01*
X181460952Y-99430000D01*
X181365713Y-99525238D01*
X181318094Y-99620476D01*
X181270475Y-99810952D01*
X181270475Y-99953809D01*
X181318094Y-100144285D01*
X181365713Y-100239523D01*
X181460952Y-100334761D01*
X181603809Y-100382380D01*
X181841904Y-100382380D01*
X180318094Y-100382380D02*
X180889523Y-100382380D01*
X180603809Y-100382380D02*
X180603809Y-99382380D01*
X180699047Y-99525238D01*
X180794285Y-99620476D01*
X180889523Y-99668095D01*
X179889523Y-100287142D02*
X179841904Y-100334761D01*
X179889523Y-100382380D01*
X179937142Y-100334761D01*
X179889523Y-100287142D01*
X179889523Y-100382380D01*
X179889523Y-99763333D02*
X179841904Y-99810952D01*
X179889523Y-99858571D01*
X179937142Y-99810952D01*
X179889523Y-99763333D01*
X179889523Y-99858571D01*
X178889523Y-100382380D02*
X179460952Y-100382380D01*
X179175237Y-100382380D02*
X179175237Y-99382380D01*
X179270475Y-99525238D01*
X179365713Y-99620476D01*
X179460952Y-99668095D01*
X178032380Y-99715714D02*
X178032380Y-100382380D01*
X178270475Y-99334761D02*
X178508571Y-100049047D01*
X177889523Y-100049047D01*
X176365237Y-100062380D02*
X176365237Y-99062380D01*
X175793809Y-100062380D02*
X176222380Y-99490952D01*
X175793809Y-99062380D02*
X176365237Y-99633809D01*
X158341904Y-100382380D02*
X158341904Y-99382380D01*
X158103809Y-99382380D01*
X157960952Y-99430000D01*
X157865713Y-99525238D01*
X157818094Y-99620476D01*
X157770475Y-99810952D01*
X157770475Y-99953809D01*
X157818094Y-100144285D01*
X157865713Y-100239523D01*
X157960952Y-100334761D01*
X158103809Y-100382380D01*
X158341904Y-100382380D01*
X156818094Y-100382380D02*
X157389523Y-100382380D01*
X157103809Y-100382380D02*
X157103809Y-99382380D01*
X157199047Y-99525238D01*
X157294285Y-99620476D01*
X157389523Y-99668095D01*
X156389523Y-100287142D02*
X156341904Y-100334761D01*
X156389523Y-100382380D01*
X156437142Y-100334761D01*
X156389523Y-100287142D01*
X156389523Y-100382380D01*
X156389523Y-99763333D02*
X156341904Y-99810952D01*
X156389523Y-99858571D01*
X156437142Y-99810952D01*
X156389523Y-99763333D01*
X156389523Y-99858571D01*
X155389523Y-100382380D02*
X155960952Y-100382380D01*
X155675237Y-100382380D02*
X155675237Y-99382380D01*
X155770475Y-99525238D01*
X155865713Y-99620476D01*
X155960952Y-99668095D01*
X155056190Y-99382380D02*
X154437142Y-99382380D01*
X154770475Y-99763333D01*
X154627618Y-99763333D01*
X154532380Y-99810952D01*
X154484761Y-99858571D01*
X154437142Y-99953809D01*
X154437142Y-100191904D01*
X154484761Y-100287142D01*
X154532380Y-100334761D01*
X154627618Y-100382380D01*
X154913333Y-100382380D01*
X155008571Y-100334761D01*
X155056190Y-100287142D01*
X152865237Y-100062380D02*
X152865237Y-99062380D01*
X152293809Y-100062380D02*
X152722380Y-99490952D01*
X152293809Y-99062380D02*
X152865237Y-99633809D01*
X134841904Y-100382380D02*
X134841904Y-99382380D01*
X134603809Y-99382380D01*
X134460952Y-99430000D01*
X134365713Y-99525238D01*
X134318094Y-99620476D01*
X134270475Y-99810952D01*
X134270475Y-99953809D01*
X134318094Y-100144285D01*
X134365713Y-100239523D01*
X134460952Y-100334761D01*
X134603809Y-100382380D01*
X134841904Y-100382380D01*
X133318094Y-100382380D02*
X133889523Y-100382380D01*
X133603809Y-100382380D02*
X133603809Y-99382380D01*
X133699047Y-99525238D01*
X133794285Y-99620476D01*
X133889523Y-99668095D01*
X132889523Y-100287142D02*
X132841904Y-100334761D01*
X132889523Y-100382380D01*
X132937142Y-100334761D01*
X132889523Y-100287142D01*
X132889523Y-100382380D01*
X132889523Y-99763333D02*
X132841904Y-99810952D01*
X132889523Y-99858571D01*
X132937142Y-99810952D01*
X132889523Y-99763333D01*
X132889523Y-99858571D01*
X131889523Y-100382380D02*
X132460952Y-100382380D01*
X132175237Y-100382380D02*
X132175237Y-99382380D01*
X132270475Y-99525238D01*
X132365713Y-99620476D01*
X132460952Y-99668095D01*
X131508571Y-99477619D02*
X131460952Y-99430000D01*
X131365713Y-99382380D01*
X131127618Y-99382380D01*
X131032380Y-99430000D01*
X130984761Y-99477619D01*
X130937142Y-99572857D01*
X130937142Y-99668095D01*
X130984761Y-99810952D01*
X131556190Y-100382380D01*
X130937142Y-100382380D01*
X129365237Y-100062380D02*
X129365237Y-99062380D01*
X128793809Y-100062380D02*
X129222380Y-99490952D01*
X128793809Y-99062380D02*
X129365237Y-99633809D01*
X115841904Y-100382380D02*
X115841904Y-99382380D01*
X115603809Y-99382380D01*
X115460952Y-99430000D01*
X115365713Y-99525238D01*
X115318094Y-99620476D01*
X115270475Y-99810952D01*
X115270475Y-99953809D01*
X115318094Y-100144285D01*
X115365713Y-100239523D01*
X115460952Y-100334761D01*
X115603809Y-100382380D01*
X115841904Y-100382380D01*
X114318094Y-100382380D02*
X114889523Y-100382380D01*
X114603809Y-100382380D02*
X114603809Y-99382380D01*
X114699047Y-99525238D01*
X114794285Y-99620476D01*
X114889523Y-99668095D01*
X113889523Y-100287142D02*
X113841904Y-100334761D01*
X113889523Y-100382380D01*
X113937142Y-100334761D01*
X113889523Y-100287142D01*
X113889523Y-100382380D01*
X113889523Y-99763333D02*
X113841904Y-99810952D01*
X113889523Y-99858571D01*
X113937142Y-99810952D01*
X113889523Y-99763333D01*
X113889523Y-99858571D01*
X112889523Y-100382380D02*
X113460952Y-100382380D01*
X113175237Y-100382380D02*
X113175237Y-99382380D01*
X113270475Y-99525238D01*
X113365713Y-99620476D01*
X113460952Y-99668095D01*
X111937142Y-100382380D02*
X112508571Y-100382380D01*
X112222856Y-100382380D02*
X112222856Y-99382380D01*
X112318094Y-99525238D01*
X112413333Y-99620476D01*
X112508571Y-99668095D01*
X110365237Y-100062380D02*
X110365237Y-99062380D01*
X109793809Y-100062380D02*
X110222380Y-99490952D01*
X109793809Y-99062380D02*
X110365237Y-99633809D01*
X96841904Y-100382380D02*
X96841904Y-99382380D01*
X96603809Y-99382380D01*
X96460952Y-99430000D01*
X96365713Y-99525238D01*
X96318094Y-99620476D01*
X96270475Y-99810952D01*
X96270475Y-99953809D01*
X96318094Y-100144285D01*
X96365713Y-100239523D01*
X96460952Y-100334761D01*
X96603809Y-100382380D01*
X96841904Y-100382380D01*
X95318094Y-100382380D02*
X95889523Y-100382380D01*
X95603809Y-100382380D02*
X95603809Y-99382380D01*
X95699047Y-99525238D01*
X95794285Y-99620476D01*
X95889523Y-99668095D01*
X94889523Y-100287142D02*
X94841904Y-100334761D01*
X94889523Y-100382380D01*
X94937142Y-100334761D01*
X94889523Y-100287142D01*
X94889523Y-100382380D01*
X94889523Y-99763333D02*
X94841904Y-99810952D01*
X94889523Y-99858571D01*
X94937142Y-99810952D01*
X94889523Y-99763333D01*
X94889523Y-99858571D01*
X93889523Y-100382380D02*
X94460952Y-100382380D01*
X94175237Y-100382380D02*
X94175237Y-99382380D01*
X94270475Y-99525238D01*
X94365713Y-99620476D01*
X94460952Y-99668095D01*
X93270475Y-99382380D02*
X93175237Y-99382380D01*
X93079999Y-99430000D01*
X93032380Y-99477619D01*
X92984761Y-99572857D01*
X92937142Y-99763333D01*
X92937142Y-100001428D01*
X92984761Y-100191904D01*
X93032380Y-100287142D01*
X93079999Y-100334761D01*
X93175237Y-100382380D01*
X93270475Y-100382380D01*
X93365713Y-100334761D01*
X93413333Y-100287142D01*
X93460952Y-100191904D01*
X93508571Y-100001428D01*
X93508571Y-99763333D01*
X93460952Y-99572857D01*
X93413333Y-99477619D01*
X93365713Y-99430000D01*
X93270475Y-99382380D01*
X91365237Y-100062380D02*
X91365237Y-99062380D01*
X90793809Y-100062380D02*
X91222380Y-99490952D01*
X90793809Y-99062380D02*
X91365237Y-99633809D01*
X77365713Y-100382380D02*
X77365713Y-99382380D01*
X77127618Y-99382380D01*
X76984761Y-99430000D01*
X76889523Y-99525238D01*
X76841904Y-99620476D01*
X76794285Y-99810952D01*
X76794285Y-99953809D01*
X76841904Y-100144285D01*
X76889523Y-100239523D01*
X76984761Y-100334761D01*
X77127618Y-100382380D01*
X77365713Y-100382380D01*
X75841904Y-100382380D02*
X76413333Y-100382380D01*
X76127618Y-100382380D02*
X76127618Y-99382380D01*
X76222856Y-99525238D01*
X76318094Y-99620476D01*
X76413333Y-99668095D01*
X75413333Y-100287142D02*
X75365713Y-100334761D01*
X75413333Y-100382380D01*
X75460952Y-100334761D01*
X75413333Y-100287142D01*
X75413333Y-100382380D01*
X75413333Y-99763333D02*
X75365713Y-99810952D01*
X75413333Y-99858571D01*
X75460952Y-99810952D01*
X75413333Y-99763333D01*
X75413333Y-99858571D01*
X74889523Y-100382380D02*
X74699047Y-100382380D01*
X74603809Y-100334761D01*
X74556190Y-100287142D01*
X74460952Y-100144285D01*
X74413333Y-99953809D01*
X74413333Y-99572857D01*
X74460952Y-99477619D01*
X74508571Y-99430000D01*
X74603809Y-99382380D01*
X74794285Y-99382380D01*
X74889523Y-99430000D01*
X74937142Y-99477619D01*
X74984761Y-99572857D01*
X74984761Y-99810952D01*
X74937142Y-99906190D01*
X74889523Y-99953809D01*
X74794285Y-100001428D01*
X74603809Y-100001428D01*
X74508571Y-99953809D01*
X74460952Y-99906190D01*
X74413333Y-99810952D01*
X72365237Y-100062380D02*
X72365237Y-99062380D01*
X71793809Y-100062380D02*
X72222380Y-99490952D01*
X71793809Y-99062380D02*
X72365237Y-99633809D01*
X58365713Y-100382380D02*
X58365713Y-99382380D01*
X58127618Y-99382380D01*
X57984761Y-99430000D01*
X57889523Y-99525238D01*
X57841904Y-99620476D01*
X57794285Y-99810952D01*
X57794285Y-99953809D01*
X57841904Y-100144285D01*
X57889523Y-100239523D01*
X57984761Y-100334761D01*
X58127618Y-100382380D01*
X58365713Y-100382380D01*
X56841904Y-100382380D02*
X57413333Y-100382380D01*
X57127618Y-100382380D02*
X57127618Y-99382380D01*
X57222856Y-99525238D01*
X57318094Y-99620476D01*
X57413333Y-99668095D01*
X56413332Y-100287142D02*
X56365713Y-100334761D01*
X56413332Y-100382380D01*
X56460952Y-100334761D01*
X56413332Y-100287142D01*
X56413332Y-100382380D01*
X56413332Y-99763333D02*
X56365713Y-99810952D01*
X56413332Y-99858571D01*
X56460952Y-99810952D01*
X56413332Y-99763333D01*
X56413332Y-99858571D01*
X55794285Y-99810952D02*
X55889523Y-99763333D01*
X55937142Y-99715714D01*
X55984761Y-99620476D01*
X55984761Y-99572857D01*
X55937142Y-99477619D01*
X55889523Y-99430000D01*
X55794285Y-99382380D01*
X55603809Y-99382380D01*
X55508571Y-99430000D01*
X55460952Y-99477619D01*
X55413332Y-99572857D01*
X55413332Y-99620476D01*
X55460952Y-99715714D01*
X55508571Y-99763333D01*
X55603809Y-99810952D01*
X55794285Y-99810952D01*
X55889523Y-99858571D01*
X55937142Y-99906190D01*
X55984761Y-100001428D01*
X55984761Y-100191904D01*
X55937142Y-100287142D01*
X55889523Y-100334761D01*
X55794285Y-100382380D01*
X55603809Y-100382380D01*
X55508571Y-100334761D01*
X55460952Y-100287142D01*
X55413332Y-100191904D01*
X55413332Y-100001428D01*
X55460952Y-99906190D01*
X55508571Y-99858571D01*
X55603809Y-99810952D01*
X53365237Y-100062380D02*
X53365237Y-99062380D01*
X52793809Y-100062380D02*
X53222380Y-99490952D01*
X52793809Y-99062380D02*
X53365237Y-99633809D01*
X200841904Y-119382380D02*
X200841904Y-118382380D01*
X200603809Y-118382380D01*
X200460952Y-118430000D01*
X200365713Y-118525238D01*
X200318094Y-118620476D01*
X200270475Y-118810952D01*
X200270475Y-118953809D01*
X200318094Y-119144285D01*
X200365713Y-119239523D01*
X200460952Y-119334761D01*
X200603809Y-119382380D01*
X200841904Y-119382380D01*
X199651428Y-118382380D02*
X199556190Y-118382380D01*
X199460952Y-118430000D01*
X199413333Y-118477619D01*
X199365713Y-118572857D01*
X199318094Y-118763333D01*
X199318094Y-119001428D01*
X199365713Y-119191904D01*
X199413333Y-119287142D01*
X199460952Y-119334761D01*
X199556190Y-119382380D01*
X199651428Y-119382380D01*
X199746666Y-119334761D01*
X199794285Y-119287142D01*
X199841904Y-119191904D01*
X199889523Y-119001428D01*
X199889523Y-118763333D01*
X199841904Y-118572857D01*
X199794285Y-118477619D01*
X199746666Y-118430000D01*
X199651428Y-118382380D01*
X198889523Y-119287142D02*
X198841904Y-119334761D01*
X198889523Y-119382380D01*
X198937142Y-119334761D01*
X198889523Y-119287142D01*
X198889523Y-119382380D01*
X198889523Y-118763333D02*
X198841904Y-118810952D01*
X198889523Y-118858571D01*
X198937142Y-118810952D01*
X198889523Y-118763333D01*
X198889523Y-118858571D01*
X197889523Y-119382380D02*
X198460952Y-119382380D01*
X198175237Y-119382380D02*
X198175237Y-118382380D01*
X198270475Y-118525238D01*
X198365713Y-118620476D01*
X198460952Y-118668095D01*
X197032380Y-118715714D02*
X197032380Y-119382380D01*
X197270475Y-118334761D02*
X197508571Y-119049047D01*
X196889523Y-119049047D01*
X195365237Y-119062380D02*
X195365237Y-118062380D01*
X194793809Y-119062380D02*
X195222380Y-118490952D01*
X194793809Y-118062380D02*
X195365237Y-118633809D01*
X181841904Y-119382380D02*
X181841904Y-118382380D01*
X181603809Y-118382380D01*
X181460952Y-118430000D01*
X181365713Y-118525238D01*
X181318094Y-118620476D01*
X181270475Y-118810952D01*
X181270475Y-118953809D01*
X181318094Y-119144285D01*
X181365713Y-119239523D01*
X181460952Y-119334761D01*
X181603809Y-119382380D01*
X181841904Y-119382380D01*
X180651428Y-118382380D02*
X180556190Y-118382380D01*
X180460952Y-118430000D01*
X180413333Y-118477619D01*
X180365713Y-118572857D01*
X180318094Y-118763333D01*
X180318094Y-119001428D01*
X180365713Y-119191904D01*
X180413333Y-119287142D01*
X180460952Y-119334761D01*
X180556190Y-119382380D01*
X180651428Y-119382380D01*
X180746666Y-119334761D01*
X180794285Y-119287142D01*
X180841904Y-119191904D01*
X180889523Y-119001428D01*
X180889523Y-118763333D01*
X180841904Y-118572857D01*
X180794285Y-118477619D01*
X180746666Y-118430000D01*
X180651428Y-118382380D01*
X179889523Y-119287142D02*
X179841904Y-119334761D01*
X179889523Y-119382380D01*
X179937142Y-119334761D01*
X179889523Y-119287142D01*
X179889523Y-119382380D01*
X179889523Y-118763333D02*
X179841904Y-118810952D01*
X179889523Y-118858571D01*
X179937142Y-118810952D01*
X179889523Y-118763333D01*
X179889523Y-118858571D01*
X178889523Y-119382380D02*
X179460952Y-119382380D01*
X179175237Y-119382380D02*
X179175237Y-118382380D01*
X179270475Y-118525238D01*
X179365713Y-118620476D01*
X179460952Y-118668095D01*
X178556190Y-118382380D02*
X177937142Y-118382380D01*
X178270475Y-118763333D01*
X178127618Y-118763333D01*
X178032380Y-118810952D01*
X177984761Y-118858571D01*
X177937142Y-118953809D01*
X177937142Y-119191904D01*
X177984761Y-119287142D01*
X178032380Y-119334761D01*
X178127618Y-119382380D01*
X178413333Y-119382380D01*
X178508571Y-119334761D01*
X178556190Y-119287142D01*
X176365237Y-119062380D02*
X176365237Y-118062380D01*
X175793809Y-119062380D02*
X176222380Y-118490952D01*
X175793809Y-118062380D02*
X176365237Y-118633809D01*
X162841904Y-119382380D02*
X162841904Y-118382380D01*
X162603809Y-118382380D01*
X162460952Y-118430000D01*
X162365713Y-118525238D01*
X162318094Y-118620476D01*
X162270475Y-118810952D01*
X162270475Y-118953809D01*
X162318094Y-119144285D01*
X162365713Y-119239523D01*
X162460952Y-119334761D01*
X162603809Y-119382380D01*
X162841904Y-119382380D01*
X161651428Y-118382380D02*
X161556190Y-118382380D01*
X161460952Y-118430000D01*
X161413333Y-118477619D01*
X161365713Y-118572857D01*
X161318094Y-118763333D01*
X161318094Y-119001428D01*
X161365713Y-119191904D01*
X161413333Y-119287142D01*
X161460952Y-119334761D01*
X161556190Y-119382380D01*
X161651428Y-119382380D01*
X161746666Y-119334761D01*
X161794285Y-119287142D01*
X161841904Y-119191904D01*
X161889523Y-119001428D01*
X161889523Y-118763333D01*
X161841904Y-118572857D01*
X161794285Y-118477619D01*
X161746666Y-118430000D01*
X161651428Y-118382380D01*
X160889523Y-119287142D02*
X160841904Y-119334761D01*
X160889523Y-119382380D01*
X160937142Y-119334761D01*
X160889523Y-119287142D01*
X160889523Y-119382380D01*
X160889523Y-118763333D02*
X160841904Y-118810952D01*
X160889523Y-118858571D01*
X160937142Y-118810952D01*
X160889523Y-118763333D01*
X160889523Y-118858571D01*
X159889523Y-119382380D02*
X160460952Y-119382380D01*
X160175237Y-119382380D02*
X160175237Y-118382380D01*
X160270475Y-118525238D01*
X160365713Y-118620476D01*
X160460952Y-118668095D01*
X159508571Y-118477619D02*
X159460952Y-118430000D01*
X159365713Y-118382380D01*
X159127618Y-118382380D01*
X159032380Y-118430000D01*
X158984761Y-118477619D01*
X158937142Y-118572857D01*
X158937142Y-118668095D01*
X158984761Y-118810952D01*
X159556190Y-119382380D01*
X158937142Y-119382380D01*
X157365237Y-119062380D02*
X157365237Y-118062380D01*
X156793809Y-119062380D02*
X157222380Y-118490952D01*
X156793809Y-118062380D02*
X157365237Y-118633809D01*
X67365713Y-119382380D02*
X67365713Y-118382380D01*
X67127618Y-118382380D01*
X66984761Y-118430000D01*
X66889523Y-118525238D01*
X66841904Y-118620476D01*
X66794285Y-118810952D01*
X66794285Y-118953809D01*
X66841904Y-119144285D01*
X66889523Y-119239523D01*
X66984761Y-119334761D01*
X67127618Y-119382380D01*
X67365713Y-119382380D01*
X66175237Y-118382380D02*
X66079999Y-118382380D01*
X65984761Y-118430000D01*
X65937142Y-118477619D01*
X65889523Y-118572857D01*
X65841904Y-118763333D01*
X65841904Y-119001428D01*
X65889523Y-119191904D01*
X65937142Y-119287142D01*
X65984761Y-119334761D01*
X66079999Y-119382380D01*
X66175237Y-119382380D01*
X66270475Y-119334761D01*
X66318094Y-119287142D01*
X66365713Y-119191904D01*
X66413333Y-119001428D01*
X66413333Y-118763333D01*
X66365713Y-118572857D01*
X66318094Y-118477619D01*
X66270475Y-118430000D01*
X66175237Y-118382380D01*
X65413332Y-119287142D02*
X65365713Y-119334761D01*
X65413332Y-119382380D01*
X65460952Y-119334761D01*
X65413332Y-119287142D01*
X65413332Y-119382380D01*
X65413332Y-118763333D02*
X65365713Y-118810952D01*
X65413332Y-118858571D01*
X65460952Y-118810952D01*
X65413332Y-118763333D01*
X65413332Y-118858571D01*
X64889523Y-119382380D02*
X64699047Y-119382380D01*
X64603809Y-119334761D01*
X64556190Y-119287142D01*
X64460952Y-119144285D01*
X64413332Y-118953809D01*
X64413332Y-118572857D01*
X64460952Y-118477619D01*
X64508571Y-118430000D01*
X64603809Y-118382380D01*
X64794285Y-118382380D01*
X64889523Y-118430000D01*
X64937142Y-118477619D01*
X64984761Y-118572857D01*
X64984761Y-118810952D01*
X64937142Y-118906190D01*
X64889523Y-118953809D01*
X64794285Y-119001428D01*
X64603809Y-119001428D01*
X64508571Y-118953809D01*
X64460952Y-118906190D01*
X64413332Y-118810952D01*
X62365237Y-119062380D02*
X62365237Y-118062380D01*
X61793809Y-119062380D02*
X62222380Y-118490952D01*
X61793809Y-118062380D02*
X62365237Y-118633809D01*
M02*
