M48
; DRILL file {KiCad (5.1.4-0-10_14)} date Wednesday, October 23, 2019 at 02:28:03 pm
; FORMAT={-:-/ absolute / inch / decimal}
; #@! TF.CreationDate,2019-10-23T14:28:03-04:00
; #@! TF.GenerationSoftware,Kicad,Pcbnew,(5.1.4-0-10_14)
FMAT,2
INCH
T1C0.0315
T2C0.0433
T3C0.0472
T4C0.0433
T5C0.0669
T6C0.0866
T7C0.1339
%
G90
G05
T1
X5.5866Y-1.0598
X5.5866Y-1.3598
X5.6866Y-1.0598
X5.6866Y-1.3598
X5.7866Y-1.0598
X5.7866Y-1.3598
X5.8866Y-1.0598
X5.8866Y-1.3598
X5.9866Y-1.0598
X5.9866Y-1.3598
X6.0866Y-1.0598
X6.0866Y-1.3598
X6.1866Y-1.0598
X6.1866Y-1.3598
X6.2866Y-1.0598
X6.2866Y-1.3598
X6.3866Y-1.0598
X6.3866Y-1.3598
X6.4866Y-1.0598
X6.4866Y-1.3598
X6.008Y-3.8508
X6.308Y-3.8508
X6.5866Y-1.0598
X4.4594Y-2.3547
X4.7594Y-2.3547
X6.8866Y-1.3598
X6.5866Y-1.3598
X6.6866Y-1.0598
X6.6866Y-1.3598
X6.7866Y-1.0598
X6.7866Y-1.3598
X6.8866Y-1.0598
X2.2154Y-2.3547
X2.5154Y-2.3547
X4.7088Y-3.1028
X5.0088Y-3.1028
X2.1413Y-1.6067
X3.3374Y-1.6067
X3.6374Y-1.6067
X6.5067Y-1.6067
X3.5127Y-3.1028
X3.5867Y-3.8508
X3.8867Y-3.8508
X2.4647Y-3.1028
X2.7647Y-3.1028
X1.8413Y-1.6067
X6.382Y-3.1028
X6.682Y-3.1028
X4.3348Y-3.8508
X4.6348Y-3.8508
X6.8067Y-1.6067
X3.2127Y-3.1028
X6.9332Y-3.8508
X7.2332Y-3.8508
X1.7167Y-3.1028
X6.2555Y-2.3547
X3.9608Y-3.1028
X4.2608Y-3.1028
X5.0828Y-3.8508
X5.3828Y-3.8508
X4.8335Y-1.6067
X5.1335Y-1.6067
X4.0854Y-1.6067
X4.3854Y-1.6067
X5.9555Y-2.3547
X7.6812Y-4.5988
X7.9812Y-4.5988
X2.0907Y-3.8508
X2.745Y-4.5988
X5.7568Y-3.1028
X5.8815Y-1.6067
X6.9332Y-4.5988
X7.2332Y-4.5988
X5.2075Y-2.3547
X5.5075Y-2.3547
X2.9634Y-2.3547
X3.2634Y-2.3547
X6.4852Y-4.5988
X2.0167Y-3.1028
X2.445Y-4.5988
X5.4568Y-3.1028
X6.1852Y-4.5988
X5.5815Y-1.6067
X2.3907Y-3.8508
X3.7114Y-2.3547
X4.0114Y-2.3547
X1.4673Y-2.3547
X1.7673Y-2.3547
X6.7035Y-2.3547
X7.0035Y-2.3547
X2.8387Y-3.8508
X3.1387Y-3.8508
X2.5894Y-1.6067
X2.8894Y-1.6067
T2
X1.4441Y-3.9543
X1.4441Y-4.3205
X1.6409Y-4.285
X1.763Y-4.0803
T3
X4.4083Y-2.8307
X5.1563Y-2.8307
X5.3531Y-2.9134
X4.6051Y-2.9134
X3.2862Y-2.0827
X3.4831Y-2.1654
X2.9122Y-2.8307
X3.1091Y-2.9134
X7.6301Y-5.0748
X7.8269Y-5.1575
X3.5356Y-4.3268
X3.7324Y-4.4094
X2.5382Y-2.0827
X2.735Y-2.1654
X2.3938Y-5.0748
X2.5907Y-5.1575
X2.4135Y-3.5787
X2.6104Y-3.6614
X3.9096Y-3.5787
X1.6655Y-3.5787
X1.8623Y-3.6614
X2.1642Y-2.8307
X2.361Y-2.9134
X6.882Y-5.0748
X4.1064Y-3.6614
X4.0343Y-2.0827
X4.2311Y-2.1654
X2.2364Y-4.4094
X7.0789Y-5.1575
X2.0395Y-4.3268
X2.7875Y-4.3268
X1.7902Y-2.0827
X4.2836Y-4.3268
X4.4804Y-4.4094
X6.6524Y-2.8307
X6.8492Y-2.9134
X1.987Y-2.1654
X5.9043Y-2.8307
X6.1012Y-2.9134
X5.9568Y-4.3268
X2.9844Y-4.4094
X6.1537Y-4.4094
X5.4056Y-3.5787
X6.134Y-5.0748
X3.1615Y-3.5787
X3.3584Y-3.6614
X6.3308Y-5.1575
X5.5303Y-2.0827
X5.7272Y-2.1654
X4.7823Y-2.0827
X4.9791Y-2.1654
X6.3308Y-3.5787
X6.5277Y-3.6614
X6.4555Y-2.0827
X1.613Y-2.9134
X4.8545Y-3.6614
X1.4161Y-2.8307
X6.6524Y-2.1654
X6.882Y-4.3268
X7.0789Y-4.4094
X4.6576Y-3.5787
X5.0316Y-4.3268
X5.2285Y-4.4094
X5.6025Y-3.6614
X3.6602Y-2.8307
X3.8571Y-2.9134
T4
X1.4441Y-4.1433
X1.6409Y-4.1433
T5
X6.1143Y-4.9252
X6.5474Y-4.9252
X3.6406Y-2.6811
X4.0736Y-2.6811
X5.1366Y-2.6811
X5.5697Y-2.6811
X4.8217Y-2.6811
X6.8623Y-4.1772
X3.3256Y-2.6811
X7.2954Y-4.1772
X4.3886Y-2.6811
X1.8295Y-2.6811
X3.5159Y-4.1772
X3.949Y-4.1772
X2.8925Y-2.6811
X4.6379Y-3.4291
X5.071Y-3.4291
X3.2665Y-1.9331
X3.6996Y-1.9331
X6.3112Y-3.4291
X6.7442Y-3.4291
X7.6104Y-4.9252
X8.0434Y-4.9252
X2.5185Y-1.9331
X2.3741Y-4.9252
X2.8072Y-4.9252
X2.9516Y-1.9331
X2.5776Y-2.6811
X2.3938Y-3.4291
X2.8269Y-3.4291
X1.6458Y-3.4291
X2.0789Y-3.4291
X2.1445Y-2.6811
X6.6327Y-2.6811
X7.0657Y-2.6811
X5.386Y-3.4291
X5.819Y-3.4291
X3.1419Y-3.4291
X3.5749Y-3.4291
X1.3965Y-2.6811
X1.7705Y-1.9331
X6.8623Y-4.9252
X7.2954Y-4.9252
X4.2639Y-4.1772
X4.697Y-4.1772
X3.8899Y-3.4291
X4.323Y-3.4291
X4.0146Y-1.9331
X4.4476Y-1.9331
X2.0198Y-4.1772
X2.4529Y-4.1772
X5.5106Y-1.9331
X5.9437Y-1.9331
X5.1957Y-1.9331
X6.4358Y-1.9331
X6.8689Y-1.9331
X5.0119Y-4.1772
X5.445Y-4.1772
X5.9371Y-4.1772
X6.3702Y-4.1772
X3.2009Y-4.1772
X4.7626Y-1.9331
X5.8846Y-2.6811
X6.3177Y-2.6811
X2.7678Y-4.1772
X2.2035Y-1.9331
T6
X5.889Y-5.3657
X5.1886Y-1.4638
X1.7961Y-5.3642
X7.5185Y-3.7358
X1.5461Y-1.4921
X7.2898Y-2.2409
X7.2693Y-0.7457
X3.3843Y-5.3657
X1.4217Y-4.6169
X5.2091Y-0.7449
X1.1717Y-3.1209
X8.2669Y-5.3661
T7
X2.735Y-1.9331
X7.0789Y-4.9252
X2.6104Y-3.4291
X2.5907Y-4.9252
X1.987Y-1.9331
X4.1064Y-3.4291
X4.2311Y-1.9331
X2.2364Y-4.1772
X1.8623Y-3.4291
X2.361Y-2.6811
X2.9844Y-4.1772
X6.8492Y-2.6811
X6.1012Y-2.6811
X4.4804Y-4.1772
X6.1537Y-4.1772
X5.6025Y-3.4291
X5.7272Y-1.9331
X4.9791Y-1.9331
X6.3308Y-4.9252
X4.8545Y-3.4291
X3.3584Y-3.4291
X6.6524Y-1.9331
X3.4831Y-1.9331
X3.7324Y-4.1772
X7.0789Y-4.1772
X5.2285Y-4.1772
X5.3531Y-2.6811
X4.6051Y-2.6811
X1.613Y-2.6811
X7.8269Y-4.9252
X6.5277Y-3.4291
X3.8571Y-2.6811
X3.1091Y-2.6811
T0
M30
