G04 #@! TF.GenerationSoftware,KiCad,Pcbnew,(5.1.4-0-10_14)*
G04 #@! TF.CreationDate,2019-10-23T14:13:54-04:00*
G04 #@! TF.ProjectId,NomadRight,4e6f6d61-6452-4696-9768-742e6b696361,rev?*
G04 #@! TF.SameCoordinates,Original*
G04 #@! TF.FileFunction,Copper,L1,Top*
G04 #@! TF.FilePolarity,Positive*
%FSLAX46Y46*%
G04 Gerber Fmt 4.6, Leading zero omitted, Abs format (unit mm)*
G04 Created by KiCad (PCBNEW (5.1.4-0-10_14)) date 2019-10-23 14:13:54*
%MOMM*%
%LPD*%
G04 APERTURE LIST*
%ADD10C,1.650000*%
%ADD11R,1.650000X1.650000*%
%ADD12O,1.600000X1.600000*%
%ADD13R,1.600000X1.600000*%
%ADD14C,2.000000*%
%ADD15C,0.250000*%
G04 APERTURE END LIST*
D10*
X36680000Y-109740000D03*
X44780000Y-103640000D03*
X41680000Y-108840000D03*
D11*
X36680000Y-100440000D03*
D12*
X174920000Y-34540000D03*
X141900000Y-26920000D03*
X172380000Y-34540000D03*
X144440000Y-26920000D03*
X169840000Y-34540000D03*
X146980000Y-26920000D03*
X167300000Y-34540000D03*
X149520000Y-26920000D03*
X164760000Y-34540000D03*
X152060000Y-26920000D03*
X162220000Y-34540000D03*
X154600000Y-26920000D03*
X159680000Y-34540000D03*
X157140000Y-26920000D03*
X157140000Y-34540000D03*
X159680000Y-26920000D03*
X154600000Y-34540000D03*
X162220000Y-26920000D03*
X152060000Y-34540000D03*
X164760000Y-26920000D03*
X149520000Y-34540000D03*
X167300000Y-26920000D03*
X146980000Y-34540000D03*
X169840000Y-26920000D03*
X144440000Y-34540000D03*
X172380000Y-26920000D03*
X141900000Y-34540000D03*
D13*
X174920000Y-26920000D03*
D14*
X163970000Y-52900000D03*
X168970000Y-55000000D03*
X140470000Y-52900000D03*
X145470000Y-55000000D03*
X121470000Y-52900000D03*
X126470000Y-55000000D03*
X102470000Y-52900000D03*
X107470000Y-55000000D03*
X83470000Y-52900000D03*
X88470000Y-55000000D03*
X64470000Y-52900000D03*
X69470000Y-55000000D03*
X45470000Y-52900000D03*
X50470000Y-55000000D03*
X168970000Y-71900000D03*
X173970000Y-74000000D03*
X149970000Y-71900000D03*
X154970000Y-74000000D03*
X130970000Y-71900000D03*
X135970000Y-74000000D03*
X111970000Y-71900000D03*
X116970000Y-74000000D03*
X92970000Y-71900000D03*
X97970000Y-74000000D03*
X73970000Y-71900000D03*
X78970000Y-74000000D03*
X54970000Y-71900000D03*
X59970000Y-74000000D03*
X35970000Y-71900000D03*
X40970000Y-74000000D03*
X160803333Y-90900000D03*
X165803333Y-93000000D03*
X137303333Y-90900000D03*
X142303333Y-93000000D03*
X118303333Y-90900000D03*
X123303333Y-93000000D03*
X99303333Y-90900000D03*
X104303333Y-93000000D03*
X80303333Y-90900000D03*
X85303333Y-93000000D03*
X61303333Y-90900000D03*
X66303333Y-93000000D03*
X42303333Y-90900000D03*
X47303333Y-93000000D03*
X174803333Y-109900000D03*
X179803333Y-112000000D03*
X151303333Y-109900000D03*
X156303333Y-112000000D03*
X127803333Y-109900000D03*
X132803333Y-112000000D03*
X108803333Y-109900000D03*
X113803333Y-112000000D03*
X89803333Y-109900000D03*
X94803333Y-112000000D03*
X70803333Y-109900000D03*
X75803333Y-112000000D03*
X51803333Y-109900000D03*
X56803333Y-112000000D03*
X193803333Y-128900000D03*
X198803333Y-131000000D03*
X174803333Y-128900000D03*
X179803333Y-131000000D03*
X155803333Y-128900000D03*
X160803333Y-131000000D03*
X60803333Y-128900000D03*
X65803333Y-131000000D03*
D12*
X172890000Y-40810000D03*
D13*
X165270000Y-40810000D03*
D12*
X149390000Y-40810000D03*
D13*
X141770000Y-40810000D03*
D12*
X130390000Y-40810000D03*
D13*
X122770000Y-40810000D03*
D12*
X111390000Y-40810000D03*
D13*
X103770000Y-40810000D03*
D12*
X92390000Y-40810000D03*
D13*
X84770000Y-40810000D03*
D12*
X73390000Y-40810000D03*
D13*
X65770000Y-40810000D03*
D12*
X54390000Y-40810000D03*
D13*
X46770000Y-40810000D03*
D12*
X177890000Y-59810000D03*
D13*
X170270000Y-59810000D03*
D12*
X158890000Y-59810000D03*
D13*
X151270000Y-59810000D03*
D12*
X139890000Y-59810000D03*
D13*
X132270000Y-59810000D03*
D12*
X120890000Y-59810000D03*
D13*
X113270000Y-59810000D03*
D12*
X101890000Y-59810000D03*
D13*
X94270000Y-59810000D03*
D12*
X82890000Y-59810000D03*
D13*
X75270000Y-59810000D03*
D12*
X63890000Y-59810000D03*
D13*
X56270000Y-59810000D03*
D12*
X44890000Y-59810000D03*
D13*
X37270000Y-59810000D03*
D12*
X169723333Y-78810000D03*
D13*
X162103333Y-78810000D03*
D12*
X146223333Y-78810000D03*
D13*
X138603333Y-78810000D03*
D12*
X127223333Y-78810000D03*
D13*
X119603333Y-78810000D03*
D12*
X108223333Y-78810000D03*
D13*
X100603333Y-78810000D03*
D12*
X89223333Y-78810000D03*
D13*
X81603333Y-78810000D03*
D12*
X70223333Y-78810000D03*
D13*
X62603333Y-78810000D03*
D12*
X51223333Y-78810000D03*
D13*
X43603333Y-78810000D03*
D12*
X183723333Y-97810000D03*
D13*
X176103333Y-97810000D03*
D12*
X160223333Y-97810000D03*
D13*
X152603333Y-97810000D03*
D12*
X136723333Y-97810000D03*
D13*
X129103333Y-97810000D03*
D12*
X117723333Y-97810000D03*
D13*
X110103333Y-97810000D03*
D12*
X98723333Y-97810000D03*
D13*
X91103333Y-97810000D03*
D12*
X79723333Y-97810000D03*
D13*
X72103333Y-97810000D03*
D12*
X60723333Y-97810000D03*
D13*
X53103333Y-97810000D03*
D12*
X202723333Y-116810000D03*
D13*
X195103333Y-116810000D03*
D12*
X183723333Y-116810000D03*
D13*
X176103333Y-116810000D03*
D12*
X164723333Y-116810000D03*
D13*
X157103333Y-116810000D03*
D12*
X69723333Y-116810000D03*
D13*
X62103333Y-116810000D03*
D15*
X63778332Y-122755001D02*
X68923334Y-117609999D01*
X68923334Y-117609999D02*
X69723333Y-116810000D01*
X63778332Y-125925001D02*
X63778332Y-122755001D01*
X60803333Y-128900000D02*
X63778332Y-125925001D01*
X72103333Y-98860000D02*
X72103333Y-97810000D01*
X69128332Y-108735001D02*
X69128332Y-101835001D01*
X62103333Y-115760000D02*
X69128332Y-108735001D01*
X69128332Y-101835001D02*
X72103333Y-98860000D01*
X62103333Y-116810000D02*
X62103333Y-115760000D01*
X81603333Y-79860000D02*
X81603333Y-78810000D01*
X81603333Y-83560998D02*
X81603333Y-79860000D01*
X72103333Y-93060998D02*
X81603333Y-83560998D01*
X72103333Y-97810000D02*
X72103333Y-93060998D01*
X76320000Y-59810000D02*
X75270000Y-59810000D01*
X84015001Y-59269999D02*
X83430001Y-58684999D01*
X77445001Y-58684999D02*
X76320000Y-59810000D01*
X84015001Y-65324663D02*
X84015001Y-59269999D01*
X83430001Y-58684999D02*
X77445001Y-58684999D01*
X81603333Y-67736331D02*
X84015001Y-65324663D01*
X81603333Y-78810000D02*
X81603333Y-67736331D01*
X84770000Y-49260000D02*
X84770000Y-41860000D01*
X84770000Y-41860000D02*
X84770000Y-40810000D01*
X75270000Y-58760000D02*
X84770000Y-49260000D01*
X75270000Y-59810000D02*
X75270000Y-58760000D01*
X164723333Y-117941370D02*
X164723333Y-116810000D01*
X164723333Y-118182998D02*
X164723333Y-117941370D01*
X155803333Y-127102998D02*
X164723333Y-118182998D01*
X155803333Y-128900000D02*
X155803333Y-127102998D01*
X131278334Y-96684999D02*
X130153333Y-97810000D01*
X137848334Y-97269999D02*
X137263334Y-96684999D01*
X137848334Y-98605001D02*
X137848334Y-97269999D01*
X130153333Y-97810000D02*
X129103333Y-97810000D01*
X156053333Y-116810000D02*
X137848334Y-98605001D01*
X137263334Y-96684999D02*
X131278334Y-96684999D01*
X157103333Y-116810000D02*
X156053333Y-116810000D01*
X138603333Y-79860000D02*
X138603333Y-78810000D01*
X129978334Y-88484999D02*
X138603333Y-79860000D01*
X129978334Y-95884999D02*
X129978334Y-88484999D01*
X129103333Y-96760000D02*
X129978334Y-95884999D01*
X129103333Y-97810000D02*
X129103333Y-96760000D01*
X129294999Y-63835001D02*
X132270000Y-60860000D01*
X129294999Y-72186001D02*
X129294999Y-63835001D01*
X132270000Y-60860000D02*
X132270000Y-59810000D01*
X135918998Y-78810000D02*
X129294999Y-72186001D01*
X138603333Y-78810000D02*
X135918998Y-78810000D01*
X141770000Y-41860000D02*
X141770000Y-40810000D01*
X138794999Y-44835001D02*
X141770000Y-41860000D01*
X138794999Y-52235001D02*
X138794999Y-44835001D01*
X132270000Y-58760000D02*
X138794999Y-52235001D01*
X132270000Y-59810000D02*
X132270000Y-58760000D01*
X167090000Y-33953394D02*
X167090000Y-35086606D01*
X175803332Y-127900001D02*
X175803332Y-124730001D01*
X182923334Y-117609999D02*
X183723333Y-116810000D01*
X175803332Y-124730001D02*
X182923334Y-117609999D01*
X174803333Y-128900000D02*
X175803332Y-127900001D01*
X153653333Y-97810000D02*
X152603333Y-97810000D01*
X154778334Y-96684999D02*
X153653333Y-97810000D01*
X160763334Y-96684999D02*
X154778334Y-96684999D01*
X161348334Y-97269999D02*
X160763334Y-96684999D01*
X161348334Y-101005001D02*
X161348334Y-97269999D01*
X176103333Y-115760000D02*
X161348334Y-101005001D01*
X176103333Y-116810000D02*
X176103333Y-115760000D01*
X161053333Y-78810000D02*
X162103333Y-78810000D01*
X152603333Y-87260000D02*
X161053333Y-78810000D01*
X152603333Y-97810000D02*
X152603333Y-87260000D01*
X151270000Y-60860000D02*
X151270000Y-59810000D01*
X148294999Y-63835001D02*
X151270000Y-60860000D01*
X148294999Y-72186001D02*
X148294999Y-63835001D01*
X154918998Y-78810000D02*
X148294999Y-72186001D01*
X162103333Y-78810000D02*
X154918998Y-78810000D01*
X164220000Y-40810000D02*
X165270000Y-40810000D01*
X151270000Y-53760000D02*
X164220000Y-40810000D01*
X151270000Y-59810000D02*
X151270000Y-53760000D01*
X165270000Y-39110000D02*
X169840000Y-34540000D01*
X165270000Y-40810000D02*
X165270000Y-39110000D01*
X201923334Y-117609999D02*
X202723333Y-116810000D01*
X194803332Y-124730001D02*
X201923334Y-117609999D01*
X194803332Y-127900001D02*
X194803332Y-124730001D01*
X193803333Y-128900000D02*
X194803332Y-127900001D01*
X170270000Y-60860000D02*
X170270000Y-59810000D01*
X167294999Y-63835001D02*
X170270000Y-60860000D01*
X167294999Y-72186001D02*
X167294999Y-63835001D01*
X170848334Y-79350001D02*
X170848334Y-75739336D01*
X170128332Y-80070003D02*
X170848334Y-79350001D01*
X170128332Y-90784999D02*
X170128332Y-80070003D01*
X170848334Y-75739336D02*
X167294999Y-72186001D01*
X176103333Y-96760000D02*
X170128332Y-90784999D01*
X176103333Y-97810000D02*
X176103333Y-96760000D01*
X176103333Y-98860000D02*
X176103333Y-97810000D01*
X173128332Y-101835001D02*
X176103333Y-98860000D01*
X178512331Y-112670000D02*
X176884333Y-112670000D01*
X173128332Y-110186001D02*
X173128332Y-101835001D01*
X174167332Y-111225001D02*
X173128332Y-110186001D01*
X179167332Y-113325001D02*
X178512331Y-112670000D01*
X195103333Y-116810000D02*
X185690000Y-116810000D01*
X176884333Y-112670000D02*
X175439334Y-111225001D01*
X175439334Y-111225001D02*
X174167332Y-111225001D01*
X165885001Y-28045001D02*
X165559999Y-27719999D01*
X167550003Y-28045001D02*
X165885001Y-28045001D01*
X173505001Y-34790003D02*
X173505001Y-33999999D01*
X173505001Y-33999999D02*
X167550003Y-28045001D01*
X176010000Y-37295002D02*
X173505001Y-34790003D01*
X176010000Y-53020000D02*
X176010000Y-37295002D01*
X165559999Y-27719999D02*
X164760000Y-26920000D01*
X170270000Y-58760000D02*
X176010000Y-53020000D01*
X170270000Y-59810000D02*
X170270000Y-58760000D01*
X182205001Y-113325001D02*
X185690000Y-116810000D01*
X179167332Y-113325001D02*
X182205001Y-113325001D01*
X60723333Y-98941370D02*
X60723333Y-97810000D01*
X60723333Y-99182998D02*
X60723333Y-98941370D01*
X51803333Y-108102998D02*
X60723333Y-99182998D01*
X51803333Y-109900000D02*
X51803333Y-108102998D01*
X53978334Y-88484999D02*
X62603333Y-79860000D01*
X53978334Y-95884999D02*
X53978334Y-88484999D01*
X53103333Y-96760000D02*
X53978334Y-95884999D01*
X62603333Y-79860000D02*
X62603333Y-78810000D01*
X53103333Y-97810000D02*
X53103333Y-96760000D01*
X57320000Y-59810000D02*
X56270000Y-59810000D01*
X64430001Y-58684999D02*
X58445001Y-58684999D01*
X65015001Y-59269999D02*
X64430001Y-58684999D01*
X65015001Y-60350001D02*
X65015001Y-59269999D01*
X58445001Y-58684999D02*
X57320000Y-59810000D01*
X62603333Y-62761669D02*
X65015001Y-60350001D01*
X62603333Y-78810000D02*
X62603333Y-62761669D01*
X65770000Y-41860000D02*
X65770000Y-40810000D01*
X65770000Y-45560998D02*
X65770000Y-41860000D01*
X56270000Y-55060998D02*
X65770000Y-45560998D01*
X56270000Y-59810000D02*
X56270000Y-55060998D01*
X79723333Y-99182998D02*
X79723333Y-98941370D01*
X70803333Y-108102998D02*
X79723333Y-99182998D01*
X79723333Y-98941370D02*
X79723333Y-97810000D01*
X70803333Y-109900000D02*
X70803333Y-108102998D01*
X98723333Y-99182998D02*
X98723333Y-98941370D01*
X98723333Y-98941370D02*
X98723333Y-97810000D01*
X89803333Y-108102998D02*
X98723333Y-99182998D01*
X89803333Y-109900000D02*
X89803333Y-108102998D01*
X91103333Y-93060998D02*
X100603333Y-83560998D01*
X100603333Y-79860000D02*
X100603333Y-78810000D01*
X100603333Y-83560998D02*
X100603333Y-79860000D01*
X91103333Y-97810000D02*
X91103333Y-93060998D01*
X94270000Y-68039002D02*
X94270000Y-60860000D01*
X91644999Y-72536001D02*
X91644999Y-70664003D01*
X93606001Y-73225001D02*
X92333999Y-73225001D01*
X99408999Y-72536001D02*
X94295001Y-72536001D01*
X91644999Y-70664003D02*
X94270000Y-68039002D01*
X92333999Y-73225001D02*
X91644999Y-72536001D01*
X94295001Y-72536001D02*
X93606001Y-73225001D01*
X100603333Y-73730335D02*
X99408999Y-72536001D01*
X94270000Y-60860000D02*
X94270000Y-59810000D01*
X100603333Y-78810000D02*
X100603333Y-73730335D01*
X103770000Y-41860000D02*
X103770000Y-40810000D01*
X95145001Y-50484999D02*
X103770000Y-41860000D01*
X95145001Y-57884999D02*
X95145001Y-50484999D01*
X94270000Y-58760000D02*
X95145001Y-57884999D01*
X94270000Y-59810000D02*
X94270000Y-58760000D01*
X117723333Y-98941370D02*
X117723333Y-97810000D01*
X108803333Y-108102998D02*
X117723333Y-99182998D01*
X117723333Y-99182998D02*
X117723333Y-98941370D01*
X108803333Y-109900000D02*
X108803333Y-108102998D01*
X119603333Y-79860000D02*
X119603333Y-78810000D01*
X119603333Y-83560998D02*
X119603333Y-79860000D01*
X110103333Y-93060998D02*
X119603333Y-83560998D01*
X110103333Y-97810000D02*
X110103333Y-93060998D01*
X113270000Y-60860000D02*
X113270000Y-59810000D01*
X110294999Y-72186001D02*
X110294999Y-63835001D01*
X110294999Y-63835001D02*
X113270000Y-60860000D01*
X116918998Y-78810000D02*
X110294999Y-72186001D01*
X119603333Y-78810000D02*
X116918998Y-78810000D01*
X122770000Y-41860000D02*
X122770000Y-40810000D01*
X114145001Y-50484999D02*
X122770000Y-41860000D01*
X114145001Y-57884999D02*
X114145001Y-50484999D01*
X113270000Y-58760000D02*
X114145001Y-57884999D01*
X113270000Y-59810000D02*
X113270000Y-58760000D01*
X139936411Y-39680000D02*
X139106400Y-40510011D01*
X159620000Y-39680000D02*
X139936411Y-39680000D01*
X138056991Y-40510011D02*
X118757002Y-59810000D01*
X164760000Y-34540000D02*
X159620000Y-39680000D01*
X139106400Y-40510011D02*
X138056991Y-40510011D01*
X114320000Y-59810000D02*
X113270000Y-59810000D01*
X118757002Y-59810000D02*
X114320000Y-59810000D01*
X136723333Y-99182998D02*
X136723333Y-98941370D01*
X136723333Y-98941370D02*
X136723333Y-97810000D01*
X127803333Y-108102998D02*
X136723333Y-99182998D01*
X127803333Y-109900000D02*
X127803333Y-108102998D01*
X160223333Y-98941370D02*
X160223333Y-97810000D01*
X151303333Y-108102998D02*
X160223333Y-99182998D01*
X160223333Y-99182998D02*
X160223333Y-98941370D01*
X151303333Y-109900000D02*
X151303333Y-108102998D01*
X183723333Y-98941370D02*
X183723333Y-97810000D01*
X183723333Y-99182998D02*
X183723333Y-98941370D01*
X174803333Y-108102998D02*
X183723333Y-99182998D01*
X174803333Y-109900000D02*
X174803333Y-108102998D01*
X45278332Y-87925001D02*
X43303332Y-89900001D01*
X43303332Y-89900001D02*
X42303333Y-90900000D01*
X45278332Y-84755001D02*
X45278332Y-87925001D01*
X51223333Y-78810000D02*
X45278332Y-84755001D01*
X37270000Y-60860000D02*
X37270000Y-59810000D01*
X34644999Y-70664003D02*
X37270000Y-68039002D01*
X37270000Y-68039002D02*
X37270000Y-60860000D01*
X40918998Y-78810000D02*
X34644999Y-72536001D01*
X34644999Y-72536001D02*
X34644999Y-70664003D01*
X43603333Y-78810000D02*
X40918998Y-78810000D01*
X43794999Y-44835001D02*
X46770000Y-41860000D01*
X43794999Y-52235001D02*
X43794999Y-44835001D01*
X46770000Y-41860000D02*
X46770000Y-40810000D01*
X37270000Y-58760000D02*
X43794999Y-52235001D01*
X37270000Y-59810000D02*
X37270000Y-58760000D01*
X70223333Y-79941370D02*
X70223333Y-78810000D01*
X70223333Y-80182998D02*
X70223333Y-79941370D01*
X61303333Y-89102998D02*
X70223333Y-80182998D01*
X61303333Y-90900000D02*
X61303333Y-89102998D01*
X89223333Y-79941370D02*
X89223333Y-78810000D01*
X89223333Y-80271666D02*
X89223333Y-79941370D01*
X80303333Y-89191666D02*
X89223333Y-80271666D01*
X80303333Y-90900000D02*
X80303333Y-89191666D01*
X107423334Y-79609999D02*
X108223333Y-78810000D01*
X100303332Y-89900001D02*
X100303332Y-86730001D01*
X100303332Y-86730001D02*
X107423334Y-79609999D01*
X99303333Y-90900000D02*
X100303332Y-89900001D01*
X119303332Y-86730001D02*
X126423334Y-79609999D01*
X119303332Y-89900001D02*
X119303332Y-86730001D01*
X126423334Y-79609999D02*
X127223333Y-78810000D01*
X118303333Y-90900000D02*
X119303332Y-89900001D01*
X146223333Y-79941370D02*
X146223333Y-78810000D01*
X146223333Y-80182998D02*
X146223333Y-79941370D01*
X137303333Y-89102998D02*
X146223333Y-80182998D01*
X137303333Y-90900000D02*
X137303333Y-89102998D01*
X168923334Y-79609999D02*
X169723333Y-78810000D01*
X161803332Y-89900001D02*
X161803332Y-86730001D01*
X161803332Y-86730001D02*
X168923334Y-79609999D01*
X160803333Y-90900000D02*
X161803332Y-89900001D01*
X36969999Y-70900001D02*
X35970000Y-71900000D01*
X38944999Y-68925001D02*
X36969999Y-70900001D01*
X38944999Y-65755001D02*
X38944999Y-68925001D01*
X44890000Y-59810000D02*
X38944999Y-65755001D01*
X55969999Y-70900001D02*
X54970000Y-71900000D01*
X57944999Y-68925001D02*
X55969999Y-70900001D01*
X57944999Y-65755001D02*
X57944999Y-68925001D01*
X63890000Y-59810000D02*
X57944999Y-65755001D01*
X74969999Y-70900001D02*
X73970000Y-71900000D01*
X76944999Y-68925001D02*
X74969999Y-70900001D01*
X76944999Y-65755001D02*
X76944999Y-68925001D01*
X82890000Y-59810000D02*
X76944999Y-65755001D01*
X92970000Y-70485787D02*
X92970000Y-71900000D01*
X92970000Y-70102998D02*
X92970000Y-70485787D01*
X101890000Y-61182998D02*
X92970000Y-70102998D01*
X101890000Y-59810000D02*
X101890000Y-61182998D01*
X111970000Y-70485787D02*
X111970000Y-71900000D01*
X111970000Y-70102998D02*
X111970000Y-70485787D01*
X120090001Y-61982997D02*
X111970000Y-70102998D01*
X120090001Y-60609999D02*
X120090001Y-61982997D01*
X120890000Y-59810000D02*
X120090001Y-60609999D01*
X139890000Y-60941370D02*
X139890000Y-59810000D01*
X130970000Y-70102998D02*
X139890000Y-61182998D01*
X139890000Y-61182998D02*
X139890000Y-60941370D01*
X130970000Y-71900000D02*
X130970000Y-70102998D01*
X158090001Y-60609999D02*
X158890000Y-59810000D01*
X150969999Y-67730001D02*
X158090001Y-60609999D01*
X150969999Y-70900001D02*
X150969999Y-67730001D01*
X149970000Y-71900000D02*
X150969999Y-70900001D01*
X177090001Y-60609999D02*
X177890000Y-59810000D01*
X169969999Y-67730001D02*
X177090001Y-60609999D01*
X169969999Y-70900001D02*
X169969999Y-67730001D01*
X168970000Y-71900000D02*
X169969999Y-70900001D01*
X54390000Y-42182998D02*
X54390000Y-41941370D01*
X45470000Y-51102998D02*
X54390000Y-42182998D01*
X54390000Y-41941370D02*
X54390000Y-40810000D01*
X45470000Y-52900000D02*
X45470000Y-51102998D01*
X72590001Y-41609999D02*
X73390000Y-40810000D01*
X65469999Y-48730001D02*
X72590001Y-41609999D01*
X65469999Y-51900001D02*
X65469999Y-48730001D01*
X64470000Y-52900000D02*
X65469999Y-51900001D01*
X91590001Y-41609999D02*
X92390000Y-40810000D01*
X86444999Y-46755001D02*
X91590001Y-41609999D01*
X86444999Y-48510788D02*
X86444999Y-46755001D01*
X83470000Y-51485787D02*
X86444999Y-48510788D01*
X83470000Y-52900000D02*
X83470000Y-51485787D01*
X110590001Y-41609999D02*
X111390000Y-40810000D01*
X103469999Y-48730001D02*
X110590001Y-41609999D01*
X103469999Y-51900001D02*
X103469999Y-48730001D01*
X102470000Y-52900000D02*
X103469999Y-51900001D01*
X130390000Y-41941370D02*
X130390000Y-40810000D01*
X130390000Y-42182998D02*
X130390000Y-41941370D01*
X121470000Y-51102998D02*
X130390000Y-42182998D01*
X121470000Y-52900000D02*
X121470000Y-51102998D01*
X141469999Y-48730001D02*
X148590001Y-41609999D01*
X141469999Y-51900001D02*
X141469999Y-48730001D01*
X148590001Y-41609999D02*
X149390000Y-40810000D01*
X140470000Y-52900000D02*
X141469999Y-51900001D01*
X172890000Y-42182998D02*
X166944999Y-48127999D01*
X166944999Y-48127999D02*
X166944999Y-49925001D01*
X164969999Y-51900001D02*
X163970000Y-52900000D01*
X166944999Y-49925001D02*
X164969999Y-51900001D01*
X172890000Y-40810000D02*
X172890000Y-42182998D01*
X57615011Y-130675011D02*
X37504999Y-110564999D01*
X78526735Y-116010010D02*
X63861734Y-130675011D01*
X151103600Y-116010010D02*
X78526735Y-116010010D01*
X152379990Y-117286400D02*
X151103600Y-116010010D01*
X152379990Y-128074069D02*
X152379990Y-117286400D01*
X157080931Y-132775010D02*
X152379990Y-128074069D01*
X182596144Y-132775011D02*
X157080931Y-132775010D01*
X197128354Y-118242802D02*
X182596144Y-132775011D01*
X197128355Y-115377199D02*
X197128354Y-118242802D01*
X194161389Y-114784978D02*
X196536135Y-114784979D01*
X188171187Y-98618367D02*
X188171187Y-108794776D01*
X181545021Y-37352200D02*
X181545021Y-91992201D01*
X181545021Y-91992201D02*
X188171187Y-98618367D01*
X173505001Y-26379999D02*
X173505001Y-29312180D01*
X37504999Y-110564999D02*
X36680000Y-109740000D01*
X172469991Y-25344989D02*
X173505001Y-26379999D01*
X63861734Y-130675011D02*
X57615011Y-130675011D01*
X144350009Y-25344989D02*
X172469991Y-25344989D01*
X196536135Y-114784979D02*
X197128355Y-115377199D01*
X188171187Y-108794776D02*
X194161389Y-114784978D01*
X143314999Y-26379999D02*
X144350009Y-25344989D01*
X143314999Y-27460001D02*
X143314999Y-26379999D01*
X143899999Y-28045001D02*
X143314999Y-27460001D01*
X173505001Y-29312180D02*
X181545021Y-37352200D01*
X145854999Y-28045001D02*
X143899999Y-28045001D01*
X146980000Y-26920000D02*
X145854999Y-28045001D01*
X44780000Y-114837669D02*
X44780000Y-104806726D01*
X60167332Y-130225001D02*
X44780000Y-114837669D01*
X78340335Y-115560000D02*
X63675334Y-130225001D01*
X152830000Y-117100000D02*
X151290000Y-115560000D01*
X152830000Y-127887669D02*
X152830000Y-117100000D01*
X63675334Y-130225001D02*
X60167332Y-130225001D01*
X157267332Y-132325001D02*
X152830000Y-127887669D01*
X182409744Y-132325001D02*
X157267332Y-132325001D01*
X196678345Y-118056401D02*
X182409744Y-132325001D01*
X196678345Y-115563599D02*
X196678345Y-118056401D01*
X193974989Y-115234988D02*
X196349734Y-115234988D01*
X187721177Y-98804767D02*
X187721177Y-108981177D01*
X187721177Y-108981177D02*
X193974989Y-115234988D01*
X170965001Y-26379999D02*
X170965001Y-27408591D01*
X181095011Y-92178601D02*
X187721177Y-98804767D01*
X196349734Y-115234988D02*
X196678345Y-115563599D01*
X44780000Y-104806726D02*
X44780000Y-103640000D01*
X151290000Y-115560000D02*
X78340335Y-115560000D01*
X144440000Y-26920000D02*
X145565001Y-25794999D01*
X170965001Y-27408591D02*
X181095011Y-37538600D01*
X145565001Y-25794999D02*
X170380001Y-25794999D01*
X181095011Y-37538600D02*
X181095011Y-92178601D01*
X170380001Y-25794999D02*
X170965001Y-26379999D01*
X40855001Y-108015001D02*
X41680000Y-108840000D01*
X34194991Y-60700007D02*
X34194991Y-72894991D01*
X39710000Y-78410000D02*
X39710000Y-106870000D01*
X34194991Y-72894991D02*
X39710000Y-78410000D01*
X131240000Y-40060000D02*
X130860000Y-39680000D01*
X40850022Y-54044978D02*
X34194991Y-60700007D01*
X40850022Y-44544976D02*
X40850022Y-54044978D01*
X45714998Y-39680000D02*
X40850022Y-44544976D01*
X130860000Y-39680000D02*
X45714998Y-39680000D01*
X138920000Y-40060000D02*
X131240000Y-40060000D01*
X39710000Y-106870000D02*
X40855001Y-108015001D01*
X144440000Y-34540000D02*
X138920000Y-40060000D01*
X149520000Y-29460000D02*
X144440000Y-34540000D01*
X149520000Y-26920000D02*
X149520000Y-29460000D01*
X196163334Y-115684999D02*
X192568588Y-115684999D01*
X192568588Y-115684999D02*
X187271166Y-110387577D01*
X187271166Y-110387577D02*
X187271166Y-98991167D01*
X196228334Y-117870001D02*
X196228334Y-115749999D01*
X180645000Y-37725000D02*
X170639999Y-27719999D01*
X170639999Y-27719999D02*
X169840000Y-26920000D01*
X196228334Y-115749999D02*
X196163334Y-115684999D01*
X183098335Y-131000000D02*
X196228334Y-117870001D01*
X180645000Y-92365001D02*
X180645000Y-37725000D01*
X179803333Y-131000000D02*
X183098335Y-131000000D01*
X187271166Y-98991167D02*
X180645000Y-92365001D01*
X170090003Y-28045001D02*
X168425001Y-28045001D01*
X179803333Y-109860998D02*
X184848334Y-104815997D01*
X184848334Y-104815997D02*
X184848334Y-97269999D01*
X179015001Y-66815997D02*
X179015001Y-36969999D01*
X179015001Y-36969999D02*
X170090003Y-28045001D01*
X168425001Y-28045001D02*
X168099999Y-27719999D01*
X177680000Y-68150998D02*
X179015001Y-66815997D01*
X184848334Y-97269999D02*
X182628335Y-95050000D01*
X168099999Y-27719999D02*
X167300000Y-26920000D01*
X177680000Y-95050000D02*
X177680000Y-68150998D01*
X182628335Y-95050000D02*
X177680000Y-95050000D01*
X179803333Y-112000000D02*
X179803333Y-109860998D01*
X174015001Y-36175001D02*
X172380000Y-34540000D01*
X174015001Y-47052001D02*
X174015001Y-36175001D01*
X163228334Y-57838668D02*
X174015001Y-47052001D01*
X160942331Y-93000000D02*
X159128332Y-91186001D01*
X163228334Y-82435997D02*
X163228334Y-57838668D01*
X165803333Y-93000000D02*
X160942331Y-93000000D01*
X159128332Y-86535999D02*
X163228334Y-82435997D01*
X159128332Y-91186001D02*
X159128332Y-86535999D01*
X163019999Y-27719999D02*
X162220000Y-26920000D01*
X163345001Y-28045001D02*
X163019999Y-27719999D01*
X165010003Y-28045001D02*
X163345001Y-28045001D01*
X160015001Y-66815997D02*
X160015001Y-59269999D01*
X158144999Y-52263999D02*
X166395001Y-44013997D01*
X170965001Y-33999999D02*
X165010003Y-28045001D01*
X166395001Y-39650001D02*
X170965001Y-35080001D01*
X166395001Y-44013997D02*
X166395001Y-39650001D01*
X158144999Y-57399997D02*
X158144999Y-52263999D01*
X160015001Y-59269999D02*
X158144999Y-57399997D01*
X154970000Y-71860998D02*
X160015001Y-66815997D01*
X170965001Y-35080001D02*
X170965001Y-33999999D01*
X154970000Y-74000000D02*
X154970000Y-71860998D01*
X165885001Y-35924001D02*
X151534001Y-50275001D01*
X165885001Y-33125001D02*
X165885001Y-35924001D01*
X159680000Y-26920000D02*
X165885001Y-33125001D01*
X150194999Y-50275001D02*
X145470000Y-55000000D01*
X151534001Y-50275001D02*
X150194999Y-50275001D01*
M02*
